<svg width="36" height="36" viewBox="0 0 36 36" fill="none" xmlns="http://www.w3.org/2000/svg">
<rect width="36" height="36" rx="18" fill="#33B978"/>
<g clip-path="url(#clip0)">
<path d="M24.0921 18.0674C23.3017 15.3524 21.1616 13.3196 19.312 12.034" stroke="white" stroke-width="1.6" stroke-linecap="round" stroke-linejoin="round"/>
<path fill-rule="evenodd" clip-rule="evenodd" d="M17.3441 22.386V21.6954C16.254 21.5991 15.5549 21.0627 15.469 20.2307H16.5463C16.6524 20.5443 16.9204 20.7646 17.3441 20.8457V19.3809L17.1275 19.333C16.0907 19.0994 15.6094 18.6553 15.6094 17.8817C15.6094 17.0594 16.316 16.4537 17.3441 16.333V15.636H18.0941V16.3281C19.1143 16.4269 19.7695 16.9494 19.8639 17.7717H18.8312C18.7529 17.4728 18.4959 17.2585 18.0941 17.1798V18.5823L18.4458 18.66C19.4832 18.8895 19.9692 19.3141 19.9692 20.0782C19.9692 20.9576 19.1965 21.5749 18.0941 21.6911V22.386L17.3441 22.386ZM18.0941 20.8501C18.5693 20.7665 18.8818 20.5148 18.8818 20.178C18.8818 19.8709 18.6304 19.6713 18.0941 19.5468V20.8501ZM16.6718 17.8243C16.6718 18.0985 16.8867 18.2832 17.3441 18.4115V17.1874C16.9435 17.2776 16.6718 17.5111 16.6718 17.8243Z" fill="white"/>
<path opacity="0.56" d="M24.75 20.063C24.75 20.063 23.2558 23.3384 20.8635 24.4488L19.5575 22.6986L18 27.1895L22.723 27.563L21.9525 26.1206C21.9525 26.1206 23.2266 25.0322 23.7896 23.813C24.3527 22.5938 24.75 20.063 24.75 20.063Z" fill="white" stroke="white" stroke-width="1.19483" stroke-linecap="round" stroke-linejoin="round"/>
<path d="M16.1351 12.0398L14.9851 8.99635C14.9851 8.99635 16.9327 8.25302 18.1226 8.99635C19.3126 9.73968 20.8869 9.73968 20.8869 9.73968L19.3126 12.0398C19.3126 12.0398 18.2781 12.3747 17.7195 12.3747C17.1608 12.3747 16.1351 12.0398 16.1351 12.0398V12.0398Z" stroke="white" stroke-width="1.6" stroke-linecap="round" stroke-linejoin="round"/>
<path d="M16.188 12.034C13.6255 14.0594 11.063 17.8109 11.063 21.0003C11.063 24.0562 13.0937 26.6378 15.8792 27.4693" stroke="white" stroke-width="1.6" stroke-linecap="round" stroke-linejoin="round"/>
</g>
<defs>
<clipPath id="clip0">
<rect width="21" height="21" fill="white" transform="translate(7.5 7.5)"/>
</clipPath>
</defs>
</svg>
