<svg width="29" height="28" viewBox="0 0 29 28" fill="none" xmlns="http://www.w3.org/2000/svg">
<path d="M5.00806 15.499C5.00806 15.499 7.42127 12.8304 9.78953 11.7149C12.1578 10.5993 15.4998 10.799 15.4998 10.799V12.999L21.3605 8.81276C21.9189 8.41394 21.9189 7.58411 21.3605 7.18529L15.4998 2.99902V5.49902C15.4998 5.49902 11.0438 5.49902 8.16444 7.99902C5.28508 10.499 5.00806 15.499 5.00806 15.499L5.00806 15.499Z" stroke="#1761C5" stroke-width="1.8" stroke-linecap="round" stroke-linejoin="round"/>
<path d="M23.9912 13.999C23.9912 13.999 21.578 16.6677 19.2097 17.7832C16.8415 18.8987 13.4995 18.699 13.4995 18.699V16.499L7.63873 20.6853C7.08038 21.0841 7.08038 21.9139 7.63873 22.3128L13.4995 26.499V23.999C13.4995 23.999 17.9555 23.999 20.8348 21.499C23.7142 18.999 23.9912 13.999 23.9912 13.999L23.9912 13.999Z" fill="#1761C5" stroke="#1761C5" stroke-width="1.8" stroke-linecap="round" stroke-linejoin="round"/>
</svg>
