<svg width="25" height="24" viewBox="0 0 25 24" fill="none" xmlns="http://www.w3.org/2000/svg">
<path d="M1.417 3.24935C1.417 1.96069 2.46167 0.916016 3.75033 0.916016H16.5837C17.8723 0.916016 18.917 1.96069 18.917 3.24935V20.7493C18.917 22.038 19.9617 23.0827 21.2503 23.0827V23.0827H3.75032C2.46166 23.0827 1.41699 22.038 1.41699 20.7493L1.417 3.24935Z" stroke="#B0B9C1" stroke-width="1.8" stroke-linecap="round" stroke-linejoin="round"/>
<path d="M18.917 13.7493H21.917C22.8375 13.7493 23.5837 14.4955 23.5837 15.416V21.416C23.5837 22.3365 22.8375 23.0827 21.917 23.0827H20.5837C19.6632 23.0827 18.917 22.3365 18.917 21.416V13.7493Z" stroke="#B0B9C1" stroke-width="1.8" stroke-linecap="round" stroke-linejoin="round"/>
<path d="M6.08398 11.999H14.2507" stroke="#B0B9C1" stroke-width="1.8" stroke-linecap="round" stroke-linejoin="round"/>
<path d="M6.08398 16.666H10.7507" stroke="#B0B9C1" stroke-width="1.8" stroke-linecap="round" stroke-linejoin="round"/>
<path d="M6.08398 7.33301H14.2507" stroke="#B0B9C1" stroke-width="1.8" stroke-linecap="round" stroke-linejoin="round"/>
</svg>
