<svg width="187" height="195" viewBox="0 0 187 195" fill="none" xmlns="http://www.w3.org/2000/svg">
<path d="M51.1538 106.164C50.3531 106.562 49.3822 106.219 49.0081 105.408L37.8327 81.1554C36.4756 78.8122 44.2907 79.3325 50.6219 83.3508C56.9532 87.3691 67.6871 97.4468 64.2399 99.6659L51.1538 106.164Z" fill="#165762"/>
<path d="M139.302 192.282H135.412L135.988 188.276L135.995 188.201C136.014 187.791 135.722 187.437 135.315 187.379L135.239 187.372C135.226 187.371 135.213 187.371 135.2 187.371C134.81 187.371 134.474 187.663 134.418 188.051L133.818 192.232C129.807 191.781 126.783 188.393 126.783 184.352V170.079H148.986L147.176 185.29C146.806 188.394 144.639 190.999 141.655 191.926L141.81 188.196V188.12C141.787 187.71 141.46 187.389 141.05 187.372C141.039 187.371 141.027 187.371 141.016 187.371C140.591 187.371 140.243 187.705 140.225 188.13L140.055 192.247C139.802 192.27 139.549 192.282 139.302 192.282Z" fill="url(#paint0_linear)"/>
<path d="M75.4246 192.282H71.9992L72.6373 188.289L72.6454 188.213C72.6719 187.803 72.3856 187.445 71.9794 187.381C71.9375 187.374 71.895 187.371 71.853 187.371C71.462 187.371 71.1333 187.652 71.0713 188.039L70.3952 192.27C66.1954 192.04 62.9065 188.561 62.9065 184.352V170.079H85.1095L83.2987 185.29C82.9512 188.206 81.035 190.679 78.2978 191.744L78.4612 188.2V188.124C78.4411 187.714 78.1165 187.391 77.7061 187.372C77.6934 187.371 77.6807 187.371 77.668 187.371C77.2438 187.371 76.8964 187.703 76.8772 188.127L76.6903 192.181C76.2721 192.248 75.8465 192.282 75.4246 192.282Z" fill="url(#paint1_linear)"/>
<path d="M124.759 194.925H124.758H120.44C120.362 194.925 120.283 194.924 120.205 194.921L120.658 191.437L120.664 191.361C120.678 190.951 120.381 190.602 119.974 190.549L119.899 190.543C119.889 190.542 119.88 190.542 119.87 190.542C119.474 190.542 119.137 190.839 119.086 191.232L118.632 194.718C116.917 194.318 115.364 193.338 114.256 191.959C113.13 190.558 112.51 188.795 112.51 186.995V185.409H70.836C70.6848 185.409 70.5336 185.408 70.3833 185.407L70.0827 187.933C69.8882 189.565 69.2056 191.073 68.1087 192.293C67.0277 193.496 65.6288 194.33 64.0631 194.706L64.1886 191.364L64.1877 191.288C64.1639 190.878 63.8366 190.558 63.4263 190.543C63.4158 190.542 63.4053 190.542 63.3948 190.542C62.967 190.542 62.6195 190.877 62.6037 191.305L62.4679 194.921C62.3811 194.923 62.2939 194.925 62.2086 194.925H57.9134L58.3674 191.437L58.3737 191.361C58.3883 190.951 58.0916 190.602 57.6834 190.549L57.6078 190.543C57.5984 190.542 57.5889 190.542 57.5795 190.542C57.1834 190.542 56.8462 190.839 56.7951 191.232L56.3275 194.82C54.4928 194.519 52.8133 193.572 51.5973 192.153C50.3677 190.719 49.6905 188.887 49.6905 186.995V180.464C46.4999 178.878 43.4807 176.926 40.717 174.664C37.9684 172.414 35.468 169.852 33.2853 167.051C27.6956 160.27 5.50794 133.867 5.2854 133.602L16.9152 108.229L30.1398 113.173C34.3083 106.309 40.1902 100.564 47.1483 96.5619C50.677 94.5321 54.4537 92.9649 58.3737 91.9038C62.4156 90.8097 66.6085 90.2549 70.836 90.2549H115.153C121.576 90.2549 127.807 91.5128 133.672 93.9937C139.338 96.39 144.426 99.8205 148.795 104.19C153.165 108.559 156.595 113.647 158.992 119.313C161.473 125.178 162.73 131.409 162.73 137.832C162.73 147.371 159.918 156.573 154.597 164.444C152.032 168.238 148.937 171.641 145.4 174.558C141.837 177.495 137.883 179.892 133.646 181.681L132.902 187.933C132.696 189.659 131.952 191.234 130.749 192.486C129.575 193.708 128.013 194.535 126.35 194.815L126.479 191.364L126.479 191.288C126.455 190.878 126.127 190.558 125.717 190.543C125.707 190.542 125.696 190.542 125.686 190.542C125.258 190.542 124.91 190.877 124.895 191.305L124.759 194.924L124.759 194.925Z" fill="url(#paint2_linear)"/>
<path d="M61.7258 101.406C60.9252 101.804 59.9543 101.461 59.5801 100.65L48.4047 76.3974C47.0476 74.0541 54.8627 74.5744 61.194 78.5927C67.5252 82.611 78.2591 92.6887 74.812 94.9079L61.7258 101.406Z" fill="url(#paint3_linear)"/>
<ellipse cx="40.724" cy="115.811" rx="2.11454" ry="5.81498" transform="rotate(25 40.724 115.811)" fill="#165762"/>
<path d="M5.2855 133.604C8.1823 135.199 14.2219 130.42 17.5355 123.916C20.8491 117.413 20.2661 109.012 16.9155 108.229C13.5648 107.447 9.87869 111.867 6.56505 118.371C3.25141 124.874 2.38871 132.008 5.2855 133.604Z" fill="url(#paint4_linear)"/>
<ellipse cx="10.0808" cy="120.221" rx="1.05727" ry="4.75771" transform="rotate(25 10.0808 120.221)" fill="#165762"/>
<ellipse cx="13.2517" cy="121.807" rx="1.05727" ry="4.75771" transform="rotate(25 13.2517 121.807)" fill="#165762"/>
<path d="M154.321 120.387C154.321 120.387 169.115 107.711 177.847 115.119C186.579 122.527 174.034 130.094 170.243 121.319C166.452 112.544 171.01 100.956 185.252 102.073" stroke="#419FB1" stroke-width="2.11454" stroke-linecap="round"/>
<path d="M29.2686 139.194C29.2686 139.194 38.3585 140.25 43.0666 135.317" stroke="#165762" stroke-width="2.11454" stroke-linecap="round"/>
<path d="M48.3885 106.075C48.3885 106.075 52.1016 108.592 52.1016 112.292" stroke="#165762" stroke-width="2.11454" stroke-linecap="round"/>
<rect x="80.9999" y="99" width="54" height="9" rx="4.5" fill="#187D8F"/>
<g opacity="0.9" filter="url(#filter0_d)">
<circle cx="108" cy="82" r="27" fill="#FEA200"/>
</g>
<path fill-rule="evenodd" clip-rule="evenodd" d="M106.5 95.5V92.7375C102.139 92.3523 99.3436 90.2074 98.9999 86.8798H103.309C103.733 88.134 104.805 89.0151 106.5 89.3396V83.4797L105.635 83.2888C101.486 82.3537 99.5615 80.5771 99.5615 77.4829C99.5615 74.194 102.387 71.7716 106.5 71.2883V68.5H109.5V71.2683C113.581 71.6636 116.202 73.7542 116.579 77.0437H112.449C112.136 75.8467 111.107 74.9897 109.5 74.675V80.2853L110.906 80.596C115.056 81.5131 117 83.2123 117 86.2687C117 89.7866 113.909 92.2558 109.5 92.7206V95.5L106.5 95.5ZM109.5 89.357C111.401 89.0223 112.65 88.0145 112.65 86.6692C112.65 85.4389 111.646 84.6402 109.5 84.1424V89.357ZM103.81 77.2543C103.81 78.3502 104.67 79.0889 106.5 79.6018V74.7059C104.897 75.0669 103.81 76.001 103.81 77.2543V77.2543Z" fill="#E8F2FF"/>
<path d="M135 103.746C135 106.648 132.156 109 128.647 109H87.3528C83.8442 109 80.9999 106.648 80.9999 103.746C80.9999 103.117 81.1335 102.514 81.3786 101.955C82.2641 103.98 84.6047 105.424 87.3528 105.424H128.647C131.395 105.424 133.736 103.98 134.621 101.961C134.866 102.514 135 103.117 135 103.746Z" fill="url(#paint5_linear)"/>
<path d="M49.5597 24.277C49.5597 24.277 65.3028 37.1969 80.3046 40.6653L74.5085 54.1672C74.5085 54.1672 53.3556 50.9307 42.2499 38.5002L49.5597 24.277Z" fill="#98ECB6"/>
<path d="M49.9944 26.427C49.9944 26.427 64.7645 38.7337 78.7559 41.4412L73.2671 52.7739C73.2671 52.7739 53.6497 48.8332 43.9999 37.9164L49.9944 26.427Z" fill="#98ECB6"/>
<mask id="mask0" mask-type="alpha" maskUnits="userSpaceOnUse" x="43" y="26" width="36" height="27">
<path d="M49.9944 26.427C49.9944 26.427 64.7645 38.7337 78.7559 41.4412L73.2671 52.7739C73.2671 52.7739 53.6497 48.8332 43.9999 37.9164L49.9944 26.427Z" fill="black"/>
</mask>
<g mask="url(#mask0)">
<path d="M73.5536 40.0037C75.1602 38.7988 77.4084 38.9585 78.8284 40.3786C80.1347 41.6848 79.9811 43.8451 78.5033 44.9535L78.4465 44.9961C76.8398 46.2011 74.5917 46.0413 73.1716 44.6213C71.8654 43.315 72.0189 41.1547 73.4967 40.0464L73.5536 40.0037Z" fill="#6DC0A6"/>
<path d="M48.5536 26.0039C50.1602 24.7989 52.4084 24.9587 53.8284 26.3787C55.1347 27.6849 54.9811 29.8452 53.5033 30.9536L53.4465 30.9962C51.8398 32.2012 49.5917 32.0414 48.1716 30.6214C46.8654 29.3152 47.0189 27.1549 48.4967 26.0465L48.5536 26.0039Z" fill="#6DC0A6"/>
<path d="M69.5536 49.0037C71.1602 47.7988 73.4084 47.9585 74.8284 49.3786C76.1347 50.6848 75.9811 52.8451 74.5033 53.9535L74.4465 53.9961C72.8398 55.2011 70.5917 55.0413 69.1716 53.6213C67.8654 52.315 68.0189 50.1547 69.4967 49.0464L69.5536 49.0037Z" fill="#6DC0A6"/>
<path d="M42.0497 40.3739C41.2051 38.5519 41.8288 36.386 43.5131 35.2923C45.0624 34.2862 47.1435 34.8855 47.9204 36.5614L47.9503 36.6259C48.7949 38.448 48.1712 40.6138 46.4869 41.7076C44.9377 42.7137 42.8565 42.1144 42.0796 40.4384L42.0497 40.3739Z" fill="#6DC0A6"/>
<path d="M57.5536 39.0037C59.1602 37.7988 61.4084 37.9585 62.8284 39.3786C64.1347 40.6848 63.9811 42.8451 62.5033 43.9535L62.4465 43.9961C60.8398 45.2011 58.5917 45.0413 57.1716 43.6213C55.8654 42.315 56.0189 40.1547 57.4967 39.0464L57.5536 39.0037Z" fill="#6DC0A6"/>
</g>
<path d="M139.44 0.276978C139.44 0.276978 123.697 13.1969 108.695 16.6653L114.491 30.1672C114.491 30.1672 135.644 26.9307 146.75 14.5002L139.44 0.276978Z" fill="#98ECB6"/>
<path d="M139.005 2.427C139.005 2.427 124.235 14.7337 110.244 17.4412L115.733 28.7739C115.733 28.7739 135.35 24.8332 145 13.9164L139.005 2.427Z" fill="#98ECB6"/>
<mask id="mask1" mask-type="alpha" maskUnits="userSpaceOnUse" x="110" y="2" width="35" height="27">
<path d="M139.005 2.427C139.005 2.427 124.235 14.7337 110.244 17.4412L115.733 28.7739C115.733 28.7739 135.35 24.8332 145 13.9164L139.005 2.427Z" fill="black"/>
</mask>
<g mask="url(#mask1)">
<path d="M115.447 16.0038C113.84 14.7988 111.592 14.9586 110.172 16.3787C108.865 17.6849 109.019 19.8452 110.497 20.9535L110.554 20.9962C112.16 22.2011 114.408 22.0414 115.828 20.6213C117.135 19.3151 116.981 17.1548 115.503 16.0464L115.447 16.0038Z" fill="#6DC0A6"/>
<path d="M140.447 2.00379C138.84 0.798814 136.592 0.958592 135.172 2.37866C133.865 3.68488 134.019 5.84517 135.497 6.95353L135.554 6.99617C137.16 8.20115 139.408 8.04137 140.828 6.6213C142.135 5.31508 141.981 3.15479 140.503 2.04643L140.447 2.00379Z" fill="#6DC0A6"/>
<path d="M119.447 25.0039C117.84 23.7989 115.592 23.9587 114.172 25.3788C112.865 26.685 113.019 28.8453 114.497 29.9537L114.554 29.9963C116.16 31.2013 118.408 31.0415 119.828 29.6214C121.135 28.3152 120.981 26.1549 119.503 25.0465L119.447 25.0039Z" fill="#6DC0A6"/>
<path d="M146.95 16.374C147.795 14.552 147.171 12.3862 145.487 11.2924C143.938 10.2863 141.856 10.8856 141.08 12.5616L141.05 12.626C140.205 14.4481 140.829 16.6139 142.513 17.7077C144.062 18.7138 146.143 18.1145 146.92 16.4385L146.95 16.374Z" fill="#6DC0A6"/>
<path d="M131.447 15.0038C129.84 13.7988 127.592 13.9586 126.172 15.3787C124.865 16.6849 125.019 18.8452 126.497 19.9535L126.554 19.9962C128.16 21.2011 130.408 21.0414 131.828 19.6213C133.135 18.3151 132.981 16.1548 131.503 15.0464L131.447 15.0038Z" fill="#6DC0A6"/>
</g>
<defs>
<filter id="filter0_d" x="56.9999" y="43" width="102" height="102" filterUnits="userSpaceOnUse" color-interpolation-filters="sRGB">
<feFlood flood-opacity="0" result="BackgroundImageFix"/>
<feColorMatrix in="SourceAlpha" type="matrix" values="0 0 0 0 0 0 0 0 0 0 0 0 0 0 0 0 0 0 127 0"/>
<feOffset dy="12"/>
<feGaussianBlur stdDeviation="12"/>
<feColorMatrix type="matrix" values="0 0 0 0 0 0 0 0 0 0.321569 0 0 0 0 0.403922 0 0 0 0.321569 0"/>
<feBlend mode="normal" in2="BackgroundImageFix" result="effect1_dropShadow"/>
<feBlend mode="normal" in="SourceGraphic" in2="effect1_dropShadow" result="shape"/>
</filter>
<linearGradient id="paint0_linear" x1="126.783" y1="170.079" x2="126.783" y2="192.282" gradientUnits="userSpaceOnUse">
<stop stop-color="#3494A2"/>
<stop offset="1" stop-color="#2D879E"/>
</linearGradient>
<linearGradient id="paint1_linear" x1="62.9065" y1="170.079" x2="62.9065" y2="192.282" gradientUnits="userSpaceOnUse">
<stop stop-color="#3494A2"/>
<stop offset="1" stop-color="#2D879E"/>
</linearGradient>
<linearGradient id="paint2_linear" x1="5.2854" y1="90.2549" x2="5.2854" y2="194.925" gradientUnits="userSpaceOnUse">
<stop stop-color="#79E6F6"/>
<stop offset="1" stop-color="#44C8E9"/>
</linearGradient>
<linearGradient id="paint3_linear" x1="48.2495" y1="75" x2="48.2495" y2="101.572" gradientUnits="userSpaceOnUse">
<stop stop-color="#44C8E9"/>
<stop offset="1" stop-color="#21A3B6"/>
</linearGradient>
<linearGradient id="paint4_linear" x1="12.8298" y1="106.075" x2="0.138854" y2="130.983" gradientUnits="userSpaceOnUse">
<stop stop-color="#44C8E9"/>
<stop offset="1" stop-color="#21A3B6"/>
</linearGradient>
<linearGradient id="paint5_linear" x1="80.9999" y1="101.955" x2="80.9999" y2="109" gradientUnits="userSpaceOnUse">
<stop stop-color="#44C8E9"/>
<stop offset="1" stop-color="#21A3B6"/>
</linearGradient>
</defs>
</svg>
