<svg width="24" height="24" viewBox="0 0 24 24" fill="none" xmlns="http://www.w3.org/2000/svg">
<path fill-rule="evenodd" clip-rule="evenodd" d="M8.29707 23.0001C5.4945 23.0002 3.75282 22.0508 3.26033 20.2547C2.94993 19.1204 3.23305 18.0424 4.10183 17.0507L2.74463 12.0935C2.30596 10.4931 2.46562 8.7895 3.19418 7.29642C3.91472 5.81978 5.14544 4.63465 6.65963 3.95933L6.33113 2.76143C6.25033 2.46574 6.29059 2.15627 6.44451 1.89004C6.60258 1.61665 6.86052 1.42143 7.17083 1.34033L8.31743 1.03973C8.4183 1.01337 8.52187 1 8.62525 1C9.16135 1 9.63248 1.35386 9.77093 1.86053L10.0994 3.05843C10.3265 3.0371 10.5547 3.02666 10.7766 3.02666C13.9906 3.02666 16.8172 5.14963 17.6504 8.18933L19.0103 13.1456C20.2704 13.5796 21.067 14.375 21.3773 15.509C21.752 16.875 21.2698 18.1493 19.9441 19.2965C18.6962 20.3763 16.7633 21.2967 14.1989 22.0322L13.5086 22.2212L13.1513 22.313C11.3238 22.7689 9.69054 23.0001 8.29707 23.0001ZM16.3006 14.8463V14.8474C15.0184 14.8474 13.4202 15.0886 11.6789 15.545C8.4846 16.3815 6.17093 17.5852 5.48988 18.7649C5.29863 19.0962 5.24313 19.4154 5.32493 19.7138C5.53739 20.4888 6.60735 20.9157 8.33772 20.9157C9.62008 20.9157 11.2182 20.6747 12.9596 20.2187C16.1545 19.3815 18.4683 18.1776 19.1489 16.9984C19.34 16.6673 19.3954 16.3482 19.3136 16.0499C19.1012 15.2745 18.0313 14.8474 16.301 14.8474L16.3006 14.8463ZM9.55595 19.6952C8.5309 19.6953 7.56386 19.1675 7.03223 18.3179C8.26677 17.5523 9.8912 16.886 11.8607 16.3361L12.4628 16.175C12.8133 17.6887 11.8763 19.1906 10.3307 19.595C10.0769 19.6615 9.8162 19.6952 9.55595 19.6952Z" fill="#F6F7F8"/>
</svg>
