<svg width="48" height="48" viewBox="0 0 48 48" fill="none" xmlns="http://www.w3.org/2000/svg">
<circle cx="24" cy="24" r="24" fill="#0093B9"/>
<mask id="mask0" mask-type="alpha" maskUnits="userSpaceOnUse" x="0" y="0" width="48" height="48">
<circle cx="24" cy="24" r="24" fill="black"/>
</mask>
<g mask="url(#mask0)">
<rect opacity="0.12" x="-5" y="20" width="30" height="33" rx="2" fill="black"/>
<circle opacity="0.12" cx="34" cy="8" r="12" stroke="black" stroke-width="6"/>
<rect x="8" y="15" width="39" height="28" rx="3" fill="url(#paint0_linear)"/>
<rect x="11" y="12" width="39" height="28" rx="3" fill="url(#paint1_linear)"/>
<g filter="url(#filter0_d)">
<rect x="15" y="8" width="38" height="28" rx="3" fill="url(#paint2_linear)"/>
</g>
<path d="M47 10C48.1046 10 49 10.8954 49 12V32C49 33.1046 48.1046 34 47 34H24C24 30.134 20.866 27 17 27V17C20.866 17 24 13.866 24 10H47Z" fill="url(#paint3_linear)"/>
<g opacity="0.8" filter="url(#filter1_d)">
<circle cx="35" cy="22" r="9" fill="#0BB8E4"/>
</g>
<path fill-rule="evenodd" clip-rule="evenodd" d="M34.5002 26.5V25.5792C33.0467 25.4509 32.1146 24.7357 32 23.6263H33.4364C33.5779 24.0444 33.9352 24.3381 34.5002 24.4462V22.4932L34.2113 22.4293C32.8289 22.1179 32.1872 21.5257 32.1872 20.4943C32.1872 19.3978 33.1293 18.5903 34.5002 18.4294V17.5H35.5001V18.4228C36.8604 18.5546 37.734 19.2512 37.8599 20.3476H36.4829C36.3785 19.9491 36.0359 19.6634 35.5001 19.5584V21.4284L35.969 21.532C37.3523 21.838 38.0003 22.4041 38.0003 23.4229C38.0003 24.5955 36.97 25.4186 35.5001 25.5735V26.5H34.5002ZM35.5001 24.4521C36.1337 24.3407 36.5504 24.0051 36.5504 23.5561C36.5504 23.1466 36.2151 22.8804 35.5001 22.7145V24.4521ZM33.6038 20.4178C33.6038 20.7834 33.8902 21.0297 34.5002 21.2006V19.5686C33.966 19.6888 33.6038 20.0002 33.6038 20.4178Z" fill="#E8F2FF"/>
</g>
<defs>
<filter id="filter0_d" x="3" y="4" width="54" height="44" filterUnits="userSpaceOnUse" color-interpolation-filters="sRGB">
<feFlood flood-opacity="0" result="BackgroundImageFix"/>
<feColorMatrix in="SourceAlpha" type="matrix" values="0 0 0 0 0 0 0 0 0 0 0 0 0 0 0 0 0 0 127 0"/>
<feOffset dx="-4" dy="4"/>
<feGaussianBlur stdDeviation="4"/>
<feColorMatrix type="matrix" values="0 0 0 0 0 0 0 0 0 0.321569 0 0 0 0 0.403922 0 0 0 0.321569 0"/>
<feBlend mode="normal" in2="BackgroundImageFix" result="effect1_dropShadow"/>
<feBlend mode="normal" in="SourceGraphic" in2="effect1_dropShadow" result="shape"/>
</filter>
<filter id="filter1_d" x="18" y="9" width="34" height="34" filterUnits="userSpaceOnUse" color-interpolation-filters="sRGB">
<feFlood flood-opacity="0" result="BackgroundImageFix"/>
<feColorMatrix in="SourceAlpha" type="matrix" values="0 0 0 0 0 0 0 0 0 0 0 0 0 0 0 0 0 0 127 0"/>
<feOffset dy="4"/>
<feGaussianBlur stdDeviation="4"/>
<feColorMatrix type="matrix" values="0 0 0 0 0 0 0 0 0 0.321569 0 0 0 0 0.403922 0 0 0 0.321569 0"/>
<feBlend mode="normal" in2="BackgroundImageFix" result="effect1_dropShadow"/>
<feBlend mode="normal" in="SourceGraphic" in2="effect1_dropShadow" result="shape"/>
</filter>
<linearGradient id="paint0_linear" x1="8.09971" y1="15" x2="8.09971" y2="42.8568" gradientUnits="userSpaceOnUse">
<stop stop-color="#6BB5C5"/>
<stop offset="1" stop-color="#409DB5"/>
</linearGradient>
<linearGradient id="paint1_linear" x1="11.0997" y1="12" x2="11.0997" y2="39.8568" gradientUnits="userSpaceOnUse">
<stop stop-color="#B6ECF8"/>
<stop offset="1" stop-color="#6CB4C7"/>
</linearGradient>
<linearGradient id="paint2_linear" x1="15" y1="8" x2="15" y2="36" gradientUnits="userSpaceOnUse">
<stop stop-color="#DDF5FA"/>
<stop offset="1" stop-color="#A1D5E2"/>
</linearGradient>
<linearGradient id="paint3_linear" x1="49" y1="10" x2="17" y2="10" gradientUnits="userSpaceOnUse">
<stop offset="0.00996708" stop-color="white"/>
<stop offset="1" stop-color="white"/>
</linearGradient>
</defs>
</svg>
