<svg width="23" height="25" viewBox="0 0 23 25" fill="none" xmlns="http://www.w3.org/2000/svg">
<path d="M1 10.5417C1 9.64399 1.40206 8.79341 2.09578 8.22357L9.59578 2.06286C10.7025 1.15377 12.2975 1.15377 13.4042 2.06286L20.9042 8.22357C21.5979 8.79341 22 9.64399 22 10.5417V21.4987C22 22.6033 21.1046 23.4987 20 23.4987H15.8409C15.2886 23.4987 14.8409 23.051 14.8409 22.4987V18.7903C14.8409 17.6858 13.9455 16.7903 12.8409 16.7903H10.1591C9.05452 16.7903 8.15909 17.6858 8.15909 18.7903V22.4987C8.15909 23.051 7.71137 23.4987 7.15909 23.4987H3C1.89543 23.4987 1 22.6033 1 21.4987V10.9987L1 10.5417Z" fill="#B0B9C1" stroke="#B0B9C1" stroke-width="1.8" stroke-linejoin="round"/>
</svg>
