<svg width="124" height="124" viewBox="0 0 124 124" fill="none" xmlns="http://www.w3.org/2000/svg">
<g clip-path="url(#clip0)">
<g filter="url(#filter0_d)">
<rect width="124" height="124" rx="62" fill="url(#paint0_linear)"/>
</g>
<g clip-path="url(#clip1)">
<g clip-path="url(#clip2)">
<g clip-path="url(#clip3)">
<path fill-rule="evenodd" clip-rule="evenodd" d="M93.9386 57.6869C93.8237 56.1905 93.1329 54.8289 91.9937 53.8527L86.4657 49.1143V35.6498C86.4657 34.6157 85.6274 33.7775 84.5934 33.7775H77.1041C76.0701 33.7775 75.2568 34.6158 75.2568 35.6498V39.4854L65.7812 31.4098C63.6629 29.595 60.5881 29.5952 58.4765 31.4044L32.0081 53.8525C29.6673 55.8582 29.3636 59.3976 31.4007 61.7755C32.9534 63.5811 35.4406 64.1568 37.5609 63.4116V92.0696C37.5609 93.1037 38.3742 93.9419 39.4082 93.9419H84.5933C85.6274 93.9419 86.4656 93.1035 86.4656 92.0696V63.412C88.6543 64.1859 91.089 63.5373 92.6029 61.773C93.579 60.6336 94.0535 59.1824 93.9386 57.6869ZM78.9764 37.522H82.746V45.9046L78.9764 42.6949V37.522ZM69.6398 90.1973H54.3867V75.1938H69.6398V90.1973ZM82.746 90.1973H73.3595V73.3465C73.3595 72.3124 72.5212 71.4742 71.4872 71.4742H52.5143C51.4803 71.4742 50.6671 72.3126 50.6671 73.3465V90.1973H41.2805V60.7186L62.1193 43.0417L82.7461 60.7012V90.1973H82.746ZM89.7601 59.3354C89.0963 60.1091 87.9162 60.2226 87.119 59.539L63.344 39.1595C62.6456 38.5607 61.6158 38.5582 60.9144 39.1533C60.4077 39.5829 36.9827 59.4539 36.8835 59.538C36.0994 60.209 34.9135 60.1175 34.2421 59.3364C33.5699 58.5519 33.6608 57.3674 34.438 56.7014L60.9065 34.2532C61.613 33.6481 62.6383 33.6479 63.3443 34.253L89.557 56.696C90.3407 57.3676 90.4314 58.5522 89.7601 59.3355L89.7601 59.3354Z" fill="white"/>
</g>
</g>
<path fill-rule="evenodd" clip-rule="evenodd" d="M67.7417 52.501H56.2582C55.2241 52.501 54.4109 53.3393 54.4109 54.3732V65.607C54.4109 66.6411 55.2243 67.4793 56.2582 67.4793H67.7417C68.7757 67.4793 69.6139 66.641 69.6139 65.607V54.3732C69.6141 53.3392 68.7757 52.501 67.7417 52.501ZM65.8944 63.7349H58.1305V56.2456H65.8944V63.7349Z" fill="white"/>
<circle cx="63.9973" cy="80.8354" r="1.87226" fill="white"/>
</g>
</g>
<defs>
<filter id="filter0_d" x="-24" y="-16" width="172" height="172" filterUnits="userSpaceOnUse" color-interpolation-filters="sRGB">
<feFlood flood-opacity="0" result="BackgroundImageFix"/>
<feColorMatrix in="SourceAlpha" type="matrix" values="0 0 0 0 0 0 0 0 0 0 0 0 0 0 0 0 0 0 127 0"/>
<feOffset dy="8"/>
<feGaussianBlur stdDeviation="12"/>
<feColorMatrix type="matrix" values="0 0 0 0 0 0 0 0 0 0 0 0 0 0 0 0 0 0 0.160784 0"/>
<feBlend mode="normal" in2="BackgroundImageFix" result="effect1_dropShadow"/>
<feBlend mode="normal" in="SourceGraphic" in2="effect1_dropShadow" result="shape"/>
</filter>
<linearGradient id="paint0_linear" x1="0" y1="0" x2="0" y2="124" gradientUnits="userSpaceOnUse">
<stop stop-color="#8AB7F4"/>
<stop offset="1" stop-color="#2E78DC"/>
</linearGradient>
<clipPath id="clip0">
<rect width="124" height="124" fill="white"/>
</clipPath>
<clipPath id="clip1">
<rect width="63.9106" height="63.8938" fill="white" transform="translate(30.0449 30.0481)"/>
</clipPath>
<clipPath id="clip2">
<rect width="63.9106" height="63.8938" fill="white" transform="translate(30.0449 30.0481)"/>
</clipPath>
<clipPath id="clip3">
<rect width="63.9106" height="63.8938" fill="white" transform="translate(30.0449 30.0481)"/>
</clipPath>
</defs>
</svg>
