<svg width="48" height="48" viewBox="0 0 48 48" fill="none" xmlns="http://www.w3.org/2000/svg">
<circle cx="24" cy="24" r="24" fill="url(#paint0_linear)"/>
<mask id="mask0" mask-type="alpha" maskUnits="userSpaceOnUse" x="0" y="0" width="48" height="48">
<circle cx="24" cy="24" r="24" fill="black"/>
</mask>
<g mask="url(#mask0)">
<rect opacity="0.12" x="5" y="16" width="30" height="33" rx="2" fill="black"/>
<circle opacity="0.12" cx="38" cy="8" r="12" stroke="black" stroke-width="6"/>
<rect x="9" y="12" width="30" height="36" rx="2" fill="url(#paint1_linear)"/>
<rect x="9" y="12" width="28" height="36" rx="2" fill="url(#paint2_linear)"/>
<path opacity="0.48" d="M17 18H29" stroke="#2F7FD0" stroke-width="3" stroke-linecap="round" stroke-linejoin="round"/>
<circle cx="23" cy="33" r="8" stroke="#2F7FD0" stroke-width="1.37143" stroke-linecap="round" stroke-linejoin="round"/>
<ellipse cx="23" cy="33" rx="4" ry="8" stroke="#2F7FD0" stroke-width="1.37143" stroke-linecap="round" stroke-linejoin="round"/>
<path d="M16 29.5C16 29.5 19.25 30.5 23 30.5C26.75 30.5 30 29.5 30 29.5" stroke="#2F7FD0" stroke-width="1.37143" stroke-linecap="round" stroke-linejoin="round"/>
<path d="M16 36.5C16 36.5 19.25 35.5 23 35.5C26.75 35.5 30 36.5 30 36.5" stroke="#2F7FD0" stroke-width="1.37143" stroke-linecap="round" stroke-linejoin="round"/>
</g>
<defs>
<linearGradient id="paint0_linear" x1="-24" y1="24" x2="24" y2="72" gradientUnits="userSpaceOnUse">
<stop stop-color="#56CCF2"/>
<stop offset="1" stop-color="#2F80ED"/>
</linearGradient>
<linearGradient id="paint1_linear" x1="9" y1="12" x2="9" y2="48" gradientUnits="userSpaceOnUse">
<stop stop-color="#A5CEFF"/>
<stop offset="1" stop-color="#7493BD"/>
</linearGradient>
<linearGradient id="paint2_linear" x1="9.8016" y1="12.7937" x2="9.8016" y2="46.7325" gradientUnits="userSpaceOnUse">
<stop stop-color="#FBFDFF"/>
<stop offset="1" stop-color="#CADCF4"/>
</linearGradient>
</defs>
</svg>
