<svg width="40" height="40" viewBox="0 0 40 40" fill="none" xmlns="http://www.w3.org/2000/svg">
<g clip-path="url(#clip0)">
<circle cx="20" cy="20" r="20.5" fill="#1761C5" stroke="white"/>
<mask id="mask0" mask-type="alpha" maskUnits="userSpaceOnUse" x="0" y="0" width="40" height="40">
<circle cx="20" cy="20" r="20" fill="black"/>
</mask>
<g mask="url(#mask0)">
<rect x="21.4814" width="18.5185" height="20" fill="#2E70CB"/>
<circle cx="5.92584" cy="32.5926" r="12.5926" fill="#2E70CB"/>
<path d="M4.58301 20.3287C4.58301 19.3949 5.2043 18.5752 6.10331 18.3228L25.6866 12.8258C27.0154 12.4528 28.333 13.4515 28.333 14.8316V43.1816C28.333 44.3896 27.3089 45.3444 26.1038 45.2598L6.52051 43.8856C5.4292 43.809 4.58302 42.9013 4.58302 41.8073L4.58301 20.3287Z" fill="url(#paint0_linear)"/>
<rect x="4.58325" y="18.75" width="30.8333" height="25" rx="2.5" fill="url(#paint1_linear)"/>
<path d="M9.58301 27.292H18.333" stroke="#1761C5" stroke-width="1.5" stroke-linecap="round" stroke-linejoin="round"/>
<path d="M9.58301 30.625H15.833" stroke="#1761C5" stroke-width="1.5" stroke-linecap="round" stroke-linejoin="round"/>
<rect x="23.75" y="25" width="10" height="7.91667" rx="2" fill="white"/>
<circle cx="27.7083" cy="28.9583" r="1.45833" stroke="#0BB8E4" stroke-width="1.5" stroke-linecap="round" stroke-linejoin="round"/>
</g>
</g>
<defs>
<linearGradient id="paint0_linear" x1="4.64373" y1="12.747" x2="4.64373" y2="45.0988" gradientUnits="userSpaceOnUse">
<stop stop-color="#B6D7F8"/>
<stop offset="1" stop-color="#6C93C7"/>
</linearGradient>
<linearGradient id="paint1_linear" x1="4.58325" y1="18.75" x2="4.58325" y2="43.75" gradientUnits="userSpaceOnUse">
<stop stop-color="#DDE9FA"/>
<stop offset="1" stop-color="#A1BFE2"/>
</linearGradient>
<clipPath id="clip0">
<rect width="40" height="40" fill="white"/>
</clipPath>
</defs>
</svg>
