<svg width="41" height="41" viewBox="0 0 41 41" fill="none" xmlns="http://www.w3.org/2000/svg">
<g clip-path="url(#clip0)">
<circle cx="20.0054" cy="20.0054" r="20.5054" fill="#1761C5" stroke="white"/>
<mask id="mask0" mask-type="alpha" maskUnits="userSpaceOnUse" x="0" y="0" width="41" height="41">
<circle cx="20.0054" cy="20.0054" r="20.0054" fill="black"/>
</mask>
<g mask="url(#mask0)">
<rect opacity="0.48" x="21.6724" y="20.0054" width="18.3383" height="20.0054" fill="#4882D1"/>
<circle opacity="0.48" cx="5.8349" cy="7.50201" r="12.5034" fill="#4882D1"/>
<g filter="url(#filter0_d)">
<rect x="5" y="9.01099" width="30" height="23" rx="8" fill="white"/>
<rect x="4.5" y="8.51099" width="31" height="24" rx="8.5" stroke="#CCD5E2"/>
</g>
<rect x="5" y="9.01099" width="30" height="23" rx="8" fill="#DFE5F0"/>
<path d="M5 17.011C5 12.5927 8.58172 9.01099 13 9.01099H27C31.4183 9.01099 35 12.5927 35 17.011V21.011C35 23.2201 33.2091 25.011 31 25.011H9C6.79086 25.011 5 23.2201 5 21.011V17.011Z" fill="white"/>
<rect x="7.99976" y="13.0105" width="7" height="8" rx="2" fill="#D8D8D8"/>
<mask id="mask1" mask-type="alpha" maskUnits="userSpaceOnUse" x="8" y="13" width="8" height="9">
<rect x="8.00024" y="13.0105" width="7" height="8" rx="2" fill="black"/>
</mask>
<g mask="url(#mask1)">
<rect x="7" y="13.0105" width="9" height="8" fill="#1761C5"/>
<mask id="mask2" mask-type="alpha" maskUnits="userSpaceOnUse" x="6" y="13" width="10" height="9">
<rect x="6.99951" y="13.0105" width="9" height="8" fill="black"/>
</mask>
<g mask="url(#mask2)">
<circle opacity="0.21" cx="8.5035" cy="13.4634" r="2.71053" stroke="white" stroke-width="3.75"/>
<circle opacity="0.21" cx="15.4306" cy="20.8283" r="3.55928" stroke="white" stroke-width="3.75"/>
<path d="M10.605 17.2604H12.3175L12.6385 21.0661H10.2839L10.605 17.2604Z" fill="white"/>
<mask id="mask3" mask-type="alpha" maskUnits="userSpaceOnUse" x="10" y="17" width="3" height="5">
<path d="M10.605 17.2604H12.3175L12.6385 21.0661H10.2839L10.605 17.2604Z" fill="black"/>
</mask>
<g mask="url(#mask3)">
<path opacity="0.6" d="M10.5363 17.6228C10.5363 17.6228 10.727 18.1706 11.4469 18.2926C12.1669 18.4146 12.5794 18.2926 12.5794 18.2926L12.4286 17.3424L10.467 17.3515L10.5363 17.6228Z" fill="#1761C5"/>
</g>
<path d="M7.69687 20.1766C7.82578 19.6947 8.17361 19.3014 8.6361 19.1146L10.5202 18.3535C10.5202 18.3535 11.0265 19.6408 11.4609 19.6408C11.8953 19.6408 12.4055 18.3535 12.4055 18.3535L14.2863 19.1144C14.7484 19.3014 15.0959 19.6945 15.2247 20.1761L15.5677 21.4582H7.354L7.69687 20.1766Z" fill="url(#paint0_linear)"/>
<mask id="mask4" mask-type="alpha" maskUnits="userSpaceOnUse" x="7" y="18" width="9" height="4">
<path d="M7.69687 20.1766C7.82578 19.6947 8.17361 19.3014 8.6361 19.1146L10.5202 18.3535C10.5202 18.3535 11.0265 19.6408 11.4609 19.6408C11.8953 19.6408 12.4055 18.3535 12.4055 18.3535L14.2863 19.1144C14.7484 19.3014 15.0959 19.6945 15.2247 20.1761L15.5677 21.4582H7.354L7.69687 20.1766Z" fill="black"/>
</mask>
<g mask="url(#mask4)">
<rect x="11.406" y="19.4322" width="0.109516" height="2.05343" fill="#BECAE4"/>
<path d="M9.16574 21.4581L9.26881 20.7855L8.98901 21.4581H9.16574Z" fill="#BECAE4"/>
<path d="M13.993 21.4581L13.8899 20.7855L14.1697 21.4581H13.993Z" fill="#BECAE4"/>
</g>
<path d="M9.9289 18.6473C9.91807 18.6074 9.93863 18.5656 9.9769 18.5498L10.5121 18.3295C10.8291 19.1663 11.1378 19.5791 11.3794 19.6309C11.3794 19.6309 11.1765 20.4593 11.0069 20.5194C10.9287 20.5471 10.4507 20.237 10.1755 19.5563L9.9289 18.6473Z" fill="#002F70"/>
<path d="M12.9905 18.6473C13.0013 18.6074 12.9808 18.5656 12.9425 18.5498L12.4073 18.3295C12.0903 19.1663 11.7816 19.5791 11.54 19.6309C11.54 19.6309 11.7429 20.4593 11.9125 20.5194C11.9907 20.5471 12.4687 20.237 12.7439 19.5563L12.9905 18.6473Z" fill="#002F70"/>
<path d="M10.1471 14.2305H12.9398C12.9398 14.2305 12.9345 16.0899 12.885 16.7679L12.8654 16.8767C12.7499 17.5162 12.1933 17.9814 11.5434 17.9814V17.9814C10.8936 17.9814 10.3369 17.5162 10.2215 16.8767L10.2018 16.7679C10.1144 15.5703 10.1471 14.2305 10.1471 14.2305H10.1471Z" fill="white"/>
<ellipse cx="10.8038" cy="16.5281" rx="0.246412" ry="0.123206" fill="#FDE0D5"/>
<ellipse cx="12.3096" cy="16.5281" rx="0.246412" ry="0.123206" fill="#FDE0D5"/>
<circle cx="10.9269" cy="15.9687" r="0.123206" fill="#002F70"/>
<circle cx="12.1864" cy="15.9687" r="0.123206" fill="#002F70"/>
<path opacity="0.34" d="M10.426 14.4577C10.426 14.4577 10.5639 15.0399 11.1932 14.9588C11.8225 14.8777 12.1866 14.1564 12.7782 14.7807C12.7782 14.7807 12.4053 13.9638 11.5751 14.0616C10.7449 14.1594 10.426 14.4577 10.426 14.4577H10.426Z" fill="#325CD8"/>
<path d="M10.426 14.4575C10.426 14.4575 10.5324 14.7765 11.0856 14.8775" stroke="#002F70" stroke-width="0.5" stroke-linecap="round"/>
<path d="M10.1462 16.0919C10.1462 16.0919 9.28841 14.1874 10.3006 13.899C10.3006 13.899 10.3412 13.1424 10.9954 13.121C11.6497 13.0995 11.7562 13.3135 12.3166 13.3886C12.877 13.4637 13.3042 14.0055 13.3042 14.6417C13.3042 15.2778 12.9388 16.0919 12.9388 16.0919C12.9388 16.0919 12.9976 14.616 12.3802 14.4573C11.7627 14.2986 11.5832 14.6817 11.1819 14.6817C10.7806 14.6817 10.4253 14.4368 10.4253 14.4368C10.4253 14.4368 10.4113 14.7617 10.3525 15.1103C10.2937 15.459 10.1462 16.0919 10.1462 16.0919Z" fill="#002F70"/>
<path d="M10.6179 15.522C10.6179 15.522 10.8663 15.3535 11.1413 15.4618" stroke="#002F70" stroke-width="0.5" stroke-linecap="round"/>
<path d="M12.5104 15.522C12.5104 15.522 12.2621 15.3535 11.9871 15.4618" stroke="#002F70" stroke-width="0.5" stroke-linecap="round"/>
<path d="M12.8939 16.0495C12.8939 16.0495 13.0846 15.5653 13.375 15.8591C13.6654 16.1529 13.3276 16.9694 12.853 16.6949L12.8939 16.0495Z" fill="white"/>
<path d="M13.053 16.412C13.0887 16.18 13.1538 16.0432 13.248 16.0015" stroke="#CCD4E6" stroke-width="0.5" stroke-linecap="round"/>
<path d="M10.1838 16.0495C10.1838 16.0495 9.99309 15.5653 9.70272 15.8591C9.41235 16.1529 9.75014 16.9694 10.2247 16.6949L10.1838 16.0495Z" fill="white"/>
<path d="M10.0251 16.412C9.98938 16.18 9.92435 16.0432 9.83008 16.0015" stroke="#CCD4E6" stroke-width="0.5" stroke-linecap="round"/>
<path d="M11.5403 15.5164C11.5403 15.5164 11.5403 15.6258 11.5403 15.8005C11.5403 15.9753 11.9052 16.5298 11.6686 16.5989C11.432 16.668 11.4331 16.6634 11.4331 16.6634" stroke="#CCD4E6" stroke-width="0.5" stroke-linecap="round"/>
<path d="M11.2041 17.1625C11.2041 17.1625 11.6223 17.3573 11.933 17.1625" stroke="#CCD4E6" stroke-width="0.5" stroke-linecap="round"/>
</g>
</g>
<rect x="25" y="24.011" width="8" height="1" rx="0.5" fill="#CCD5E2"/>
<rect opacity="0.2" x="16.7178" y="14.1301" width="7.59313" height="0.730108" rx="0.365054" fill="#002F70"/>
<rect opacity="0.2" x="25.479" y="14.1301" width="6.42495" height="0.730108" rx="0.365054" fill="#002F70"/>
<rect opacity="0.2" x="16.7178" y="17.0505" width="5.84087" height="0.730108" rx="0.365054" fill="#002F70"/>
<rect opacity="0.2" x="16.7178" y="19.9709" width="2.62839" height="0.730108" rx="0.365054" fill="#002F70"/>
<rect opacity="0.2" x="17" y="24.011" width="1" height="1" rx="0.5" fill="#002F70"/>
<rect opacity="0.2" x="20" y="24.011" width="1" height="1" rx="0.5" fill="#002F70"/>
<rect opacity="0.2" x="21" y="24.011" width="1" height="1" rx="0.5" fill="#002F70"/>
<rect opacity="0.2" x="21.3906" y="19.9709" width="1.75226" height="0.730108" rx="0.365054" fill="#002F70"/>
<path d="M25.7708 23.1836C25.7708 23.1836 27.3556 22.8141 27.2106 22.4451C27.0655 22.076 26.5737 22.4923 27.0328 23.1836L27.976 22.5661L27.7224 23.1836C27.7224 23.1836 28.4845 23.1448 28.8067 22.761C29.1289 22.3773 28.8548 23.1836 29.1 23.1836C29.3452 23.1836 30.2157 22.761 29.904 22.4451C29.5923 22.1291 29.1606 23.1836 29.904 23.1836C30.6474 23.1836 31.6116 22.4451 31.6116 22.4451" stroke="#003D8F" stroke-width="0.5" stroke-linecap="round" stroke-linejoin="round"/>
<path d="M8.30724 27.5645L7.95679 27.9296L8.30724 28.2946" stroke="white" stroke-width="0.7"/>
<path d="M9.17125 27.5645L8.8208 27.9296L9.17125 28.2946" stroke="white" stroke-width="0.7"/>
<path d="M10.0362 27.5645L9.68579 27.9296L10.0362 28.2946" stroke="white" stroke-width="0.7"/>
<path d="M10.9003 27.5645L10.5498 27.9296L10.9003 28.2946" stroke="white" stroke-width="0.7"/>
<path d="M11.7652 27.5645L11.4148 27.9296L11.7652 28.2946" stroke="white" stroke-width="0.7"/>
<path d="M12.6293 27.5645L12.2788 27.9296L12.6293 28.2946" stroke="white" stroke-width="0.7"/>
<path d="M13.4942 27.5645L13.1438 27.9296L13.4942 28.2946" stroke="white" stroke-width="0.7"/>
<path d="M14.3583 27.5645L14.0078 27.9296L14.3583 28.2946" stroke="white" stroke-width="0.7"/>
<path d="M15.2233 27.5645L14.8728 27.9296L15.2233 28.2946" stroke="white" stroke-width="0.7"/>
<path d="M16.0873 27.5645L15.7368 27.9296L16.0873 28.2946" stroke="white" stroke-width="0.7"/>
<path d="M16.9513 27.5645L16.6008 27.9296L16.9513 28.2946" stroke="white" stroke-width="0.7"/>
<path d="M17.8163 27.5645L17.4658 27.9296L17.8163 28.2946" stroke="white" stroke-width="0.7"/>
<path d="M18.6803 27.5645L18.3298 27.9296L18.6803 28.2946" stroke="white" stroke-width="0.7"/>
<path d="M19.5453 27.5645L19.1948 27.9296L19.5453 28.2946" stroke="white" stroke-width="0.7"/>
<path d="M20.4093 27.5645L20.0588 27.9296L20.4093 28.2946" stroke="white" stroke-width="0.7"/>
<path d="M21.2743 27.5645L20.9238 27.9296L21.2743 28.2946" stroke="white" stroke-width="0.7"/>
<path d="M22.1383 27.5645L21.7878 27.9296L22.1383 28.2946" stroke="white" stroke-width="0.7"/>
<path d="M23.0033 27.5645L22.6528 27.9296L23.0033 28.2946" stroke="white" stroke-width="0.7"/>
<path d="M23.8673 27.5645L23.5168 27.9296L23.8673 28.2946" stroke="white" stroke-width="0.7"/>
<path d="M24.7323 27.5645L24.3818 27.9296L24.7323 28.2946" stroke="white" stroke-width="0.7"/>
<path d="M25.5963 27.5645L25.2458 27.9296L25.5963 28.2946" stroke="white" stroke-width="0.7"/>
<path d="M26.4603 27.5645L26.1099 27.9296L26.4603 28.2946" stroke="white" stroke-width="0.7"/>
<path d="M27.3253 27.5645L26.9749 27.9296L27.3253 28.2946" stroke="white" stroke-width="0.7"/>
<path d="M28.1893 27.5645L27.8389 27.9296L28.1893 28.2946" stroke="white" stroke-width="0.7"/>
<path d="M29.0543 27.5645L28.7039 27.9296L29.0543 28.2946" stroke="white" stroke-width="0.7"/>
<path d="M29.9183 27.5645L29.5679 27.9296L29.9183 28.2946" stroke="white" stroke-width="0.7"/>
<path d="M30.7833 27.5645L30.4329 27.9296L30.7833 28.2946" stroke="white" stroke-width="0.7"/>
<path d="M31.6473 27.5645L31.2969 27.9296L31.6473 28.2946" stroke="white" stroke-width="0.7"/>
<path d="M32.5123 27.5645L32.1619 27.9296L32.5123 28.2946" stroke="white" stroke-width="0.7"/>
<path d="M8.30724 29.0245L7.95679 29.3895L8.30724 29.7546" stroke="white" stroke-width="0.7"/>
<path d="M9.17125 29.0245L8.8208 29.3895L9.17125 29.7546" stroke="white" stroke-width="0.7"/>
<path d="M10.0362 29.0245L9.68579 29.3895L10.0362 29.7546" stroke="white" stroke-width="0.7"/>
<path d="M10.9003 29.0245L10.5498 29.3895L10.9003 29.7546" stroke="white" stroke-width="0.7"/>
<path d="M11.7652 29.0245L11.4148 29.3895L11.7652 29.7546" stroke="white" stroke-width="0.7"/>
<path d="M12.6293 29.0245L12.2788 29.3895L12.6293 29.7546" stroke="white" stroke-width="0.7"/>
<path d="M13.4942 29.0245L13.1438 29.3895L13.4942 29.7546" stroke="white" stroke-width="0.7"/>
<path d="M14.3583 29.0245L14.0078 29.3895L14.3583 29.7546" stroke="white" stroke-width="0.7"/>
<path d="M15.2233 29.0245L14.8728 29.3895L15.2233 29.7546" stroke="white" stroke-width="0.7"/>
<path d="M16.0873 29.0245L15.7368 29.3895L16.0873 29.7546" stroke="white" stroke-width="0.7"/>
<path d="M16.9513 29.0245L16.6008 29.3895L16.9513 29.7546" stroke="white" stroke-width="0.7"/>
<path d="M17.8163 29.0245L17.4658 29.3895L17.8163 29.7546" stroke="white" stroke-width="0.7"/>
<path d="M18.6803 29.0245L18.3298 29.3895L18.6803 29.7546" stroke="white" stroke-width="0.7"/>
<path d="M19.5453 29.0245L19.1948 29.3895L19.5453 29.7546" stroke="white" stroke-width="0.7"/>
<path d="M20.4093 29.0245L20.0588 29.3895L20.4093 29.7546" stroke="white" stroke-width="0.7"/>
<path d="M21.2743 29.0245L20.9238 29.3895L21.2743 29.7546" stroke="white" stroke-width="0.7"/>
<path d="M22.1383 29.0245L21.7878 29.3895L22.1383 29.7546" stroke="white" stroke-width="0.7"/>
<path d="M23.0033 29.0245L22.6528 29.3895L23.0033 29.7546" stroke="white" stroke-width="0.7"/>
<path d="M23.8673 29.0245L23.5168 29.3895L23.8673 29.7546" stroke="white" stroke-width="0.7"/>
<path d="M24.7323 29.0245L24.3818 29.3895L24.7323 29.7546" stroke="white" stroke-width="0.7"/>
<path d="M25.5963 29.0245L25.2458 29.3895L25.5963 29.7546" stroke="white" stroke-width="0.7"/>
<path d="M26.4603 29.0245L26.1099 29.3895L26.4603 29.7546" stroke="white" stroke-width="0.7"/>
<path d="M27.3253 29.0245L26.9749 29.3895L27.3253 29.7546" stroke="white" stroke-width="0.7"/>
<path d="M28.1893 29.0245L27.8389 29.3895L28.1893 29.7546" stroke="white" stroke-width="0.7"/>
<path d="M29.0543 29.0245L28.7039 29.3895L29.0543 29.7546" stroke="white" stroke-width="0.7"/>
<path d="M29.9183 29.0245L29.5679 29.3895L29.9183 29.7546" stroke="white" stroke-width="0.7"/>
<path d="M30.7833 29.0245L30.4329 29.3895L30.7833 29.7546" stroke="white" stroke-width="0.7"/>
<path d="M31.6473 29.0245L31.2969 29.3895L31.6473 29.7546" stroke="white" stroke-width="0.7"/>
<path d="M32.5123 29.0245L32.1619 29.3895L32.5123 29.7546" stroke="white" stroke-width="0.7"/>
<g opacity="0.64">
<path fill-rule="evenodd" clip-rule="evenodd" d="M29.4481 23.4023C29.2977 23.4023 29.1739 23.3079 29.0646 23.2246C28.9947 23.1715 28.9224 23.1166 28.8622 23.1029C28.8462 23.0992 28.8282 23.0974 28.8073 23.0974C28.7506 23.0974 28.6831 23.111 28.6178 23.1242C28.5423 23.1392 28.4642 23.1548 28.3857 23.1548C28.3165 23.1548 28.2574 23.1424 28.2051 23.1171C28.0725 23.0526 28.0021 22.915 27.94 22.7937L27.9392 22.7922C27.8986 22.7127 27.8565 22.6305 27.8072 22.5906C27.7564 22.5499 27.663 22.5259 27.5806 22.5047C27.4492 22.4704 27.3002 22.4316 27.2089 22.3167C27.118 22.2016 27.1135 22.0473 27.1096 21.9112C27.1069 21.8207 27.1042 21.7272 27.0762 21.6686C27.0486 21.6113 26.9789 21.5524 26.9114 21.4954C26.807 21.4069 26.6886 21.3067 26.6554 21.1602C26.6236 21.0191 26.6856 20.8796 26.7403 20.7565L26.7418 20.7531C26.7783 20.6706 26.816 20.5853 26.816 20.5184C26.816 20.4515 26.7783 20.3662 26.7418 20.2837L26.7403 20.2803C26.6856 20.1572 26.6236 20.0177 26.6554 19.8765C26.6887 19.73 26.807 19.6298 26.9114 19.5414C26.9791 19.484 27.049 19.4247 27.0759 19.3682C27.1042 19.3095 27.1069 19.2164 27.1096 19.1263L27.1096 19.1242C27.1136 18.9886 27.118 18.8348 27.2089 18.7203C27.3007 18.6046 27.4494 18.5662 27.5806 18.5324L27.5834 18.5317C27.6689 18.5093 27.7572 18.4862 27.8069 18.4462C27.8565 18.4063 27.8986 18.3241 27.9392 18.2446L27.94 18.2431C28.0021 18.1217 28.0725 17.9841 28.2051 17.9197C28.2575 17.8943 28.3167 17.8819 28.3859 17.8819C28.465 17.8819 28.5462 17.8982 28.6178 17.9126C28.6834 17.9257 28.7513 17.9391 28.8082 17.9391C28.8288 17.9391 28.8465 17.9374 28.8622 17.9339C28.9226 17.9201 28.9946 17.8651 29.0643 17.8119C29.1741 17.7288 29.2984 17.6345 29.4481 17.6345C29.5983 17.6345 29.7222 17.7286 29.8315 17.8117L29.8338 17.8134C29.903 17.866 29.9746 17.9204 30.0339 17.9339C30.0495 17.9374 30.0678 17.9392 30.0883 17.9392C30.1471 17.9392 30.2199 17.9244 30.2784 17.9126C30.3503 17.8982 30.4317 17.8818 30.5104 17.8818C30.5796 17.8818 30.6387 17.8942 30.691 17.9197C30.8236 17.9839 30.894 18.1215 30.9562 18.2429C30.9971 18.3231 31.0394 18.4061 31.0892 18.4459C31.1389 18.4859 31.2273 18.509 31.3128 18.5314L31.3155 18.5321C31.4468 18.566 31.5955 18.6043 31.6872 18.72C31.7784 18.8349 31.7829 18.9892 31.7868 19.1253C31.7892 19.2155 31.7916 19.3087 31.8202 19.3682C31.8476 19.4251 31.9173 19.4842 31.9847 19.5414C32.0893 19.63 32.2079 19.7304 32.2407 19.8765C32.2726 20.0176 32.2107 20.1571 32.1561 20.2803C32.1206 20.3597 32.0804 20.4498 32.0804 20.5184C32.0804 20.5865 32.1189 20.6729 32.1561 20.7565C32.2107 20.8794 32.2726 21.0187 32.241 21.16C32.2079 21.3062 32.0893 21.4065 31.9847 21.4951C31.9172 21.5526 31.8474 21.612 31.8202 21.6686C31.7922 21.7267 31.7895 21.8187 31.7869 21.9077L31.7868 21.9112C31.7829 22.0473 31.7784 22.2016 31.6875 22.3165C31.5959 22.432 31.4471 22.4705 31.3158 22.5044L31.3143 22.5048C31.2283 22.5272 31.1394 22.5504 31.0895 22.5906C31.039 22.6312 30.9955 22.7169 30.957 22.7925C30.8946 22.9144 30.8239 23.0526 30.6913 23.1168C30.6389 23.1423 30.5797 23.1547 30.5105 23.1547C30.4317 23.1547 30.3503 23.1383 30.2784 23.1239C30.213 23.1109 30.1453 23.0974 30.089 23.0974C30.068 23.0974 30.0501 23.0992 30.0342 23.1029C29.9741 23.1165 29.9019 23.1714 29.8321 23.2244C29.7227 23.3078 29.5987 23.4023 29.4481 23.4023H29.4481ZM28.8073 22.864C28.846 22.864 28.8808 22.8677 28.9137 22.8753C29.0216 22.8998 29.1135 22.9696 29.2024 23.0372L29.2041 23.0385C29.2884 23.1024 29.3755 23.1686 29.4481 23.1686C29.5204 23.1686 29.6073 23.1028 29.6914 23.0391C29.7812 22.9707 29.8741 22.9 29.9827 22.8753C30.016 22.8676 30.0508 22.8638 30.0892 22.8638C30.1675 22.8638 30.2468 22.8798 30.3235 22.8952L30.3267 22.8958C30.3904 22.9084 30.4563 22.9214 30.5109 22.9214C30.5442 22.9214 30.5703 22.9166 30.5906 22.9068C30.6537 22.8759 30.7032 22.7792 30.7509 22.6858C30.8027 22.5844 30.8562 22.4796 30.9447 22.4082C31.0336 22.3366 31.1473 22.3071 31.2573 22.2785C31.3584 22.2524 31.4629 22.2254 31.5061 22.1709C31.5491 22.1168 31.5521 22.0089 31.555 21.9046C31.5581 21.7902 31.5614 21.6719 31.6115 21.5668C31.6605 21.4651 31.7496 21.3896 31.8357 21.3166L31.837 21.3155C31.9168 21.2478 31.9993 21.1777 32.015 21.1082C32.0297 21.0433 31.9863 20.946 31.9443 20.8518C31.8973 20.7459 31.8486 20.6363 31.8486 20.5184C31.8486 20.4008 31.8971 20.2912 31.9441 20.1852C31.9862 20.091 32.0297 19.9935 32.015 19.9283C31.9991 19.8584 31.9159 19.788 31.8354 19.7199C31.7492 19.6468 31.66 19.5712 31.6112 19.4697C31.5614 19.3653 31.5581 19.2468 31.555 19.1322C31.5521 19.0277 31.5491 18.9197 31.5061 18.8657C31.4629 18.8111 31.3587 18.7842 31.258 18.7582C31.1477 18.7295 31.0336 18.6999 30.9444 18.6283C30.8559 18.5572 30.8024 18.4524 30.7507 18.351C30.703 18.2574 30.6536 18.1605 30.5904 18.13C30.57 18.1201 30.5438 18.1153 30.5103 18.1153C30.4546 18.1153 30.388 18.1287 30.3236 18.1415L30.3217 18.1419C30.2453 18.1571 30.1662 18.1728 30.0884 18.1728C30.0503 18.1728 30.0157 18.1691 29.9827 18.1615C29.875 18.137 29.783 18.0674 29.694 18.0001L29.692 17.9986C29.612 17.9373 29.5214 17.8679 29.4481 17.8679C29.3748 17.8679 29.2841 17.9373 29.2042 17.9986L29.2021 18.0001C29.1132 18.0674 29.0212 18.137 28.9135 18.1615C28.8803 18.1691 28.8457 18.1728 28.8075 18.1728C28.7296 18.1728 28.6507 18.1571 28.5744 18.1419L28.5726 18.1416C28.5082 18.1287 28.4415 18.1153 28.3859 18.1153C28.3524 18.1153 28.3262 18.1201 28.3058 18.13C28.2429 18.1604 28.1936 18.2568 28.146 18.35C28.094 18.4519 28.0402 18.5572 27.9515 18.6286C27.862 18.7006 27.7482 18.7299 27.6382 18.7582C27.5375 18.7845 27.4333 18.8116 27.39 18.8659C27.3473 18.92 27.3443 19.0279 27.3414 19.1322C27.338 19.2472 27.3345 19.3661 27.2846 19.4697C27.2359 19.5717 27.1468 19.6472 27.0607 19.7202C26.9803 19.7882 26.8973 19.8585 26.8814 19.9283C26.8668 19.9933 26.9098 20.0901 26.9514 20.1837L26.9528 20.1868C26.9995 20.2923 27.0478 20.4014 27.0478 20.5184C27.0478 20.6357 26.9992 20.7452 26.9521 20.8511L26.951 20.8536C26.9096 20.9471 26.8668 21.0437 26.8814 21.1085C26.8973 21.1783 26.9803 21.2486 27.0607 21.3166C27.1467 21.3893 27.2355 21.4644 27.2849 21.5671C27.3344 21.6701 27.3379 21.7879 27.3413 21.9019L27.3414 21.9046C27.3443 22.0089 27.3473 22.1168 27.39 22.1709C27.4332 22.2251 27.5369 22.2521 27.6372 22.2783C27.748 22.3069 27.8626 22.3364 27.9517 22.4082C28.0411 22.4803 28.0965 22.5895 28.1454 22.6858C28.1932 22.7793 28.2427 22.8759 28.306 22.9068C28.3264 22.9167 28.3525 22.9215 28.3859 22.9215C28.4415 22.9215 28.5081 22.9081 28.5725 22.8953C28.6492 22.8799 28.7284 22.864 28.8073 22.864L28.8073 22.864Z" fill="#FF7C00"/>
<path fill-rule="evenodd" clip-rule="evenodd" d="M29.3655 22.5782C29.2377 22.5782 29.1474 22.4855 29.0677 22.4037L29.066 22.402C29.0279 22.3634 28.9758 22.3106 28.9486 22.3046C28.9453 22.3039 28.9413 22.3035 28.9369 22.3035C28.902 22.3035 28.8414 22.3254 28.7927 22.343L28.7898 22.344C28.7198 22.3696 28.6404 22.3985 28.5631 22.3985C28.5221 22.3985 28.4855 22.3907 28.4513 22.3745C28.3383 22.3213 28.2981 22.2003 28.2626 22.0935C28.2473 22.0471 28.2218 21.9692 28.1977 21.9506C28.1743 21.9323 28.0987 21.9253 28.0434 21.9202L28.0397 21.9198C27.9257 21.9096 27.7965 21.898 27.7188 21.8028C27.6414 21.7078 27.6583 21.5825 27.6733 21.4719C27.6805 21.4197 27.6913 21.3408 27.6778 21.3132C27.6647 21.287 27.596 21.2471 27.5506 21.2207C27.4517 21.1626 27.3397 21.0967 27.3116 20.9767C27.2845 20.86 27.3549 20.7553 27.417 20.6629C27.4506 20.6128 27.4925 20.5504 27.4925 20.5184C27.4925 20.4864 27.4508 20.4241 27.4172 20.3741C27.355 20.2816 27.2845 20.1767 27.3116 20.0602C27.3397 19.94 27.4516 19.8742 27.5503 19.8162C27.5959 19.7897 27.6647 19.7497 27.6775 19.7235C27.6913 19.6959 27.6805 19.617 27.6733 19.5648C27.6583 19.4542 27.6414 19.3289 27.7188 19.2339C27.7962 19.1388 27.9253 19.1272 28.0391 19.1169C28.0926 19.1122 28.1733 19.1051 28.1977 19.0862C28.2208 19.0682 28.2446 18.9972 28.262 18.9453L28.2626 18.9434C28.298 18.8366 28.3382 18.7154 28.4513 18.6622C28.4856 18.646 28.5222 18.6382 28.5632 18.6382C28.6404 18.6382 28.7198 18.6671 28.7898 18.6927C28.8345 18.7088 28.9021 18.7332 28.9373 18.7332C28.9416 18.7332 28.9454 18.7328 28.9486 18.7321C28.9762 18.7261 29.0291 18.6721 29.0677 18.6328C29.1475 18.5511 29.238 18.4585 29.3655 18.4585C29.4929 18.4585 29.5834 18.5511 29.6633 18.6328C29.7018 18.6721 29.7547 18.7261 29.7823 18.7321C29.7854 18.7327 29.7891 18.7331 29.7932 18.7331C29.8292 18.7331 29.8965 18.7088 29.9411 18.6927C30.0113 18.6671 30.0909 18.6381 30.1678 18.6381C30.2087 18.6381 30.2453 18.646 30.2796 18.6622C30.3925 18.7153 30.4327 18.8364 30.4681 18.9432C30.4857 18.9957 30.5098 19.0677 30.5333 19.0861C30.5567 19.1044 30.6323 19.1114 30.6875 19.1165L30.6912 19.1169C30.8052 19.1271 30.9344 19.1387 31.0122 19.2338C31.0896 19.3289 31.0726 19.4542 31.0576 19.5648C31.0505 19.617 31.0396 19.6959 31.0532 19.7235C31.066 19.7489 31.1317 19.7874 31.1797 19.8156C31.2788 19.8739 31.3912 19.9399 31.4193 20.0599C31.4464 20.1767 31.376 20.2814 31.3139 20.3738C31.2803 20.4239 31.2385 20.4863 31.2385 20.5183C31.2385 20.5506 31.2821 20.6154 31.3139 20.6626C31.376 20.7552 31.4463 20.8602 31.4193 20.9765C31.3911 21.0971 31.2792 21.1626 31.1804 21.2204L31.177 21.2224C31.13 21.2501 31.0657 21.288 31.0534 21.3132C31.0397 21.3412 31.0505 21.4199 31.0576 21.4719C31.0726 21.5825 31.0896 21.7078 31.0122 21.8026C30.9347 21.8979 30.8057 21.9095 30.6918 21.9198C30.6383 21.9245 30.5576 21.9316 30.5333 21.9505C30.51 21.9686 30.4861 22.0403 30.4686 22.0927L30.4679 22.0948C30.4323 22.2011 30.392 22.3216 30.2796 22.3745C30.2454 22.3906 30.2088 22.3985 30.1679 22.3985C30.0906 22.3985 30.0112 22.3695 29.9411 22.344C29.8935 22.3268 29.8283 22.3033 29.7933 22.3033C29.7891 22.3033 29.7854 22.3036 29.7823 22.3043C29.7547 22.3106 29.702 22.3644 29.6636 22.4036C29.5836 22.4855 29.4929 22.5782 29.3655 22.5782L29.3655 22.5782ZM28.9381 22.0754C28.9595 22.0754 28.9805 22.0777 29.0004 22.0822C29.0968 22.1037 29.1675 22.176 29.2359 22.246L29.2377 22.2478C29.2754 22.286 29.3385 22.3501 29.3655 22.3501C29.3924 22.3501 29.4555 22.286 29.4933 22.2478L29.495 22.246C29.5634 22.176 29.6341 22.1037 29.7305 22.082C29.7502 22.0776 29.7711 22.0754 29.7927 22.0754C29.8722 22.0754 29.9521 22.1046 30.0226 22.1303L30.0251 22.1313C30.0633 22.1451 30.1345 22.1708 30.1668 22.1708C30.1717 22.1708 30.1757 22.1702 30.1784 22.169C30.2014 22.1582 30.2307 22.0701 30.2465 22.0228C30.2775 21.9297 30.3095 21.8334 30.3879 21.7721C30.4665 21.7106 30.5747 21.7011 30.6702 21.6927L30.6737 21.6924C30.7264 21.6874 30.8146 21.6791 30.83 21.6604C30.8459 21.641 30.8327 21.5471 30.8263 21.5019C30.8137 21.4087 30.7994 21.3031 30.8434 21.2141C30.8861 21.1272 30.974 21.0755 31.0591 21.0255C31.1003 21.0015 31.1858 20.9516 31.1919 20.926C31.1965 20.9029 31.1442 20.8253 31.1191 20.788C31.0684 20.713 31.0053 20.6195 31.0053 20.5184C31.0053 20.4176 31.0656 20.3279 31.1189 20.2487C31.144 20.2114 31.1962 20.1338 31.1917 20.1104C31.1857 20.0847 31.0978 20.0337 31.0602 20.0119C30.9746 19.9615 30.8861 19.9095 30.8431 19.8226C30.7994 19.7336 30.8137 19.628 30.8263 19.5348C30.8329 19.4859 30.8451 19.3948 30.83 19.3763C30.8142 19.3568 30.7203 19.3485 30.6699 19.344C30.5743 19.3353 30.4658 19.3255 30.3876 19.2644C30.3094 19.2033 30.2774 19.107 30.2465 19.0139C30.2307 18.9666 30.2014 18.8786 30.1782 18.8677C30.1755 18.8664 30.1717 18.8658 30.1667 18.8658C30.1341 18.8658 30.0588 18.8932 30.0226 18.9064C29.9517 18.932 29.8715 18.9611 29.793 18.9611C29.7713 18.9611 29.7503 18.9589 29.7305 18.9545C29.6341 18.933 29.5634 18.8607 29.495 18.7907L29.4933 18.7889C29.4555 18.7507 29.3924 18.6866 29.3655 18.6866C29.3385 18.6866 29.2754 18.7507 29.2377 18.7889L29.2359 18.7907C29.1673 18.8608 29.0965 18.9333 29.0001 18.9547C28.9807 18.959 28.9599 18.9612 28.9385 18.9612C28.8598 18.9612 28.7796 18.9322 28.7088 18.9065L28.7071 18.9059C28.6684 18.8919 28.5964 18.8659 28.564 18.8659C28.5591 18.8659 28.5552 18.8665 28.5525 18.8677C28.5299 18.8782 28.502 18.9611 28.4853 19.0106L28.4842 19.0141C28.4531 19.1073 28.421 19.2037 28.343 19.2643C28.2647 19.3261 28.1563 19.3356 28.0607 19.344L28.0572 19.3443C28.0045 19.3493 27.9163 19.3576 27.9009 19.3763C27.8852 19.3959 27.8988 19.4932 27.9046 19.5348C27.9172 19.628 27.9315 19.7336 27.8875 19.8226C27.8449 19.9095 27.7569 19.9612 27.6718 20.0112C27.6307 20.0352 27.5451 20.0851 27.539 20.1107C27.5345 20.1338 27.5867 20.2114 27.6118 20.2487C27.6625 20.3237 27.7256 20.4172 27.7256 20.5183C27.7256 20.6195 27.6625 20.713 27.6118 20.788C27.5867 20.8253 27.5344 20.9029 27.539 20.9263C27.5451 20.9516 27.6299 21.0011 27.6707 21.0248C27.7563 21.0752 27.8449 21.1272 27.8878 21.2141C27.9315 21.3031 27.9172 21.4087 27.9046 21.5019C27.898 21.5508 27.8857 21.6417 27.9009 21.6604C27.9161 21.6791 28.0033 21.6873 28.0554 21.6922L28.061 21.6927C28.1567 21.7014 28.2651 21.7112 28.3433 21.7721C28.4215 21.8333 28.4535 21.9297 28.4844 22.0228C28.5002 22.0702 28.5296 22.1583 28.5525 22.169C28.5553 22.1703 28.5592 22.1709 28.5643 22.1709C28.5982 22.1709 28.6756 22.1425 28.7086 22.1303C28.7794 22.1046 28.8596 22.0754 28.9381 22.0754Z" fill="#FF7C00"/>
<mask id="mask5" mask-type="alpha" maskUnits="userSpaceOnUse" x="26" y="17" width="7" height="8">
<path d="M26.6467 24.8854H32.2496V17.7995H26.6467V24.8854Z" fill="black"/>
</mask>
<g mask="url(#mask5)">
<path d="M28.1296 20.2713H30.6015V20.1065H28.1296V20.2713Z" fill="#FF7C00"/>
<path d="M28.1296 20.6013H30.6015V20.4365H28.1296V20.6013Z" fill="#FF7C00"/>
<path d="M28.1296 21.0953H30.6015V20.9305H28.1296V21.0953Z" fill="#FF7C00"/>
<path fill-rule="evenodd" clip-rule="evenodd" d="M29.3657 21.5896C28.7752 21.5896 28.2947 21.1092 28.2947 20.5186C28.2947 19.928 28.7752 19.4475 29.3657 19.4475C29.9563 19.4475 30.4368 19.928 30.4368 20.5186C30.4368 21.1092 29.9563 21.5896 29.3657 21.5896ZM29.3657 19.6851C28.9062 19.6851 28.5323 20.059 28.5323 20.5186C28.5323 20.9781 28.9062 21.352 29.3657 21.352C29.8253 21.352 30.1992 20.9781 30.1992 20.5186C30.1992 20.059 29.8253 19.6851 29.3657 19.6851Z" fill="#FF7C00"/>
<path d="M27.8008 24.8853H30.9318V24.7205H27.8008V24.8853Z" fill="#FF7C00"/>
<path d="M27.3057 24.0613H31.4254V23.8965H27.3057V24.0613Z" fill="#FF7C00"/>
</g>
</g>
</g>
</g>
<defs>
<filter id="filter0_d" x="-16" y="0.0109863" width="72" height="65" filterUnits="userSpaceOnUse" color-interpolation-filters="sRGB">
<feFlood flood-opacity="0" result="BackgroundImageFix"/>
<feColorMatrix in="SourceAlpha" type="matrix" values="0 0 0 0 0 0 0 0 0 0 0 0 0 0 0 0 0 0 127 0"/>
<feOffset dy="12"/>
<feGaussianBlur stdDeviation="10"/>
<feColorMatrix type="matrix" values="0 0 0 0 0 0 0 0 0 0.184314 0 0 0 0 0.439216 0 0 0 0.160784 0"/>
<feBlend mode="normal" in2="BackgroundImageFix" result="effect1_dropShadow"/>
<feBlend mode="normal" in="SourceGraphic" in2="effect1_dropShadow" result="shape"/>
</filter>
<linearGradient id="paint0_linear" x1="7.354" y1="18.3535" x2="7.354" y2="21.4582" gradientUnits="userSpaceOnUse">
<stop stop-color="#F4F5F7"/>
<stop offset="1" stop-color="#E5E8ED"/>
</linearGradient>
<clipPath id="clip0">
<rect width="40.0107" height="40.0107" fill="white"/>
</clipPath>
</defs>
</svg>
