<svg width="36" height="36" viewBox="0 0 36 36" fill="none" xmlns="http://www.w3.org/2000/svg">
<rect width="36" height="36" rx="18" fill="url(#paint0_linear)"/>
<g clip-path="url(#clip0)">
<g clip-path="url(#clip1)">
<g clip-path="url(#clip2)">
<path fill-rule="evenodd" clip-rule="evenodd" d="M29.3082 16.454C29.2674 15.9234 29.0225 15.4406 28.6186 15.0945L26.6585 13.4144V8.64021C26.6585 8.27356 26.3612 7.97635 25.9946 7.97635H23.3391C22.9725 7.97635 22.6841 8.2736 22.6841 8.64021V10.0002L19.3243 7.13682C18.5732 6.49332 17.4829 6.49341 16.7342 7.13492L7.34917 15.0944C6.51916 15.8056 6.41148 17.0606 7.1338 17.9038C7.68435 18.544 8.56623 18.7481 9.31803 18.4839V28.6453C9.31803 29.0119 9.60643 29.3091 9.97304 29.3091H25.9946C26.3612 29.3091 26.6584 29.0119 26.6584 28.6453V18.484C27.4345 18.7584 28.2978 18.5284 28.8346 17.9029C29.1807 17.4988 29.3489 16.9843 29.3082 16.454L29.3082 16.454ZM24.003 9.30406H25.3396V12.2763L24.003 11.1382V9.30406ZM20.6925 27.9814H15.2841V22.6615H20.6925V27.9814ZM25.3396 27.9814H22.0114V22.0065C22.0114 21.6399 21.7141 21.3427 21.3475 21.3427H14.6202C14.2535 21.3427 13.9652 21.6399 13.9652 22.0065V27.9814H10.637V17.529L18.0259 11.2612L25.3396 17.5228V27.9814L25.3396 27.9814ZM27.8266 17.0386C27.5912 17.3129 27.1728 17.3531 26.8901 17.1108L18.4601 9.88467C18.2125 9.67235 17.8473 9.67147 17.5986 9.88246C17.419 10.0348 9.11304 17.0806 9.07789 17.1104C8.79985 17.3483 8.37938 17.3159 8.1413 17.0389C7.90296 16.7607 7.93518 16.3408 8.21074 16.1046L17.5958 8.14503C17.8463 7.93046 18.2099 7.93041 18.4602 8.14494L27.7546 16.1027C28.0324 16.3408 28.0646 16.7608 27.8266 17.0386H27.8266Z" fill="white"/>
</g>
</g>
<path fill-rule="evenodd" clip-rule="evenodd" d="M20.0197 14.615H15.948C15.5813 14.615 15.293 14.9123 15.293 15.2788V19.2621C15.293 19.6287 15.5814 19.9259 15.948 19.9259H20.0197C20.3864 19.9259 20.6836 19.6287 20.6836 19.2621V15.2788C20.6836 14.9122 20.3864 14.615 20.0197 14.615ZM19.3647 18.5983H16.6118V15.9428H19.3647V18.5983Z" fill="white"/>
<circle cx="18.6919" cy="24.6618" r="0.663857" fill="white"/>
</g>
<defs>
<linearGradient id="paint0_linear" x1="0" y1="0" x2="0" y2="36" gradientUnits="userSpaceOnUse">
<stop stop-color="#8AB7F4"/>
<stop offset="1" stop-color="#2E78DC"/>
</linearGradient>
<clipPath id="clip0">
<rect width="22.6611" height="22.6551" fill="white" transform="translate(6.65308 6.65399)"/>
</clipPath>
<clipPath id="clip1">
<rect width="22.6611" height="22.6551" fill="white" transform="translate(6.65308 6.65399)"/>
</clipPath>
<clipPath id="clip2">
<rect width="22.6611" height="22.6551" fill="white" transform="translate(6.65308 6.65399)"/>
</clipPath>
</defs>
</svg>
