<svg width="64" height="64" viewBox="0 0 64 64" fill="none" xmlns="http://www.w3.org/2000/svg">
<circle cx="32" cy="32" r="32" fill="#0093B9"/>
<mask id="mask0" mask-type="alpha" maskUnits="userSpaceOnUse" x="0" y="0" width="64" height="64">
<circle cx="32" cy="32" r="32" fill="black"/>
</mask>
<g mask="url(#mask0)">
<rect x="4" y="-2" width="28" height="35" rx="2" fill="url(#paint0_linear)"/>
<path d="M9 22.75H26.5" stroke="#62A7B8" stroke-width="1.5" stroke-linecap="round" stroke-linejoin="round"/>
<path d="M9 17.25H26.5" stroke="#62A7B8" stroke-width="1.5" stroke-linecap="round" stroke-linejoin="round"/>
<path d="M9 11.75H26.5" stroke="#62A7B8" stroke-width="1.5" stroke-linecap="round" stroke-linejoin="round"/>
<path d="M9 6.25H26.5" stroke="#62A7B8" stroke-width="1.5" stroke-linecap="round" stroke-linejoin="round"/>
<path d="M9 28.25H23.5" stroke="#62A7B8" stroke-width="1.5" stroke-linecap="round" stroke-linejoin="round"/>
<path d="M18.0937 18.3546C18.0937 18.3546 24.2523 15.4045 27.6728 15C31.0932 14.5954 38.0002 16 38.0002 16V34C38.0002 36.7614 35.7616 39 33.0002 39H16.0002C16.0002 39 13.5775 32.1559 13.9827 28.1598C14.3879 24.1637 18.0937 18.3546 18.0937 18.3546Z" fill="url(#paint1_linear)"/>
<path d="M14 30.25H25.5" stroke="#62A7B8" stroke-width="2.4" stroke-linecap="round" stroke-linejoin="round"/>
<path d="M17 22.25H31.5" stroke="#62A7B8" stroke-width="2.4" stroke-linecap="round" stroke-linejoin="round"/>
<circle opacity="0.48" cx="61.6666" cy="33" r="20" fill="#005267"/>
<circle cx="30.1611" cy="30.6611" r="16" transform="rotate(-45 30.1611 30.6611)" fill="white" fill-opacity="0.239216"/>
<path fill-rule="evenodd" clip-rule="evenodd" d="M47.8391 51.1671L41.398 44.726C38.2184 47.2764 34.2964 48.6615 30.1613 48.661C25.3533 48.6616 20.833 46.7887 17.4334 43.3891C14.0337 39.9894 12.1608 35.4691 12.1615 30.6611C12.1608 25.8532 14.0337 21.3328 17.4334 17.9332C20.833 14.5336 25.3533 12.6607 30.1613 12.6613C34.9693 12.6607 39.4896 14.5336 42.8892 17.9332C46.2888 21.3328 48.1618 25.8532 48.1611 30.6611C48.1617 34.7962 46.7766 38.7182 44.2261 41.8978L50.6672 48.3389L47.8391 51.1671ZM20.2615 40.5609C25.7205 46.0199 34.6021 46.0199 40.0611 40.5609C45.5201 35.1019 45.5201 26.2204 40.0611 20.7614C34.6021 15.3023 25.7205 15.3023 20.2615 20.7614C14.8025 26.2204 14.8025 35.1019 20.2615 40.5609Z" fill="url(#paint2_linear)"/>
<rect x="44.3032" y="51.874" width="10" height="18" rx="4" transform="rotate(-45 44.3032 51.874)" fill="url(#paint3_linear)"/>
</g>
<defs>
<linearGradient id="paint0_linear" x1="4" y1="-2" x2="4" y2="33" gradientUnits="userSpaceOnUse">
<stop stop-color="#DDF5FA"/>
<stop offset="1" stop-color="#A1D5E2"/>
</linearGradient>
<linearGradient id="paint1_linear" x1="13.937" y1="14.9268" x2="13.937" y2="39" gradientUnits="userSpaceOnUse">
<stop stop-color="#DDF5FA"/>
<stop offset="1" stop-color="#A1D5E2"/>
</linearGradient>
<linearGradient id="paint2_linear" x1="4.70544" y1="30.6611" x2="36.5252" y2="62.4809" gradientUnits="userSpaceOnUse">
<stop stop-color="#FCFEFF"/>
<stop offset="1" stop-color="#CAF4FF"/>
</linearGradient>
<linearGradient id="paint3_linear" x1="44.3032" y1="51.874" x2="44.3032" y2="69.874" gradientUnits="userSpaceOnUse">
<stop stop-color="#3FD7EE"/>
<stop offset="1" stop-color="#259AB8"/>
</linearGradient>
</defs>
</svg>
