<svg width="41" height="41" viewBox="0 0 41 41" fill="none" xmlns="http://www.w3.org/2000/svg">
<mask id="mask0" mask-type="alpha" maskUnits="userSpaceOnUse" x="0" y="0" width="41" height="41">
<circle cx="20.0641" cy="20.0641" r="20.0641" fill="black"/>
</mask>
<g mask="url(#mask0)">
<rect width="40.1282" height="40.1282" rx="16" fill="#1761C5"/>
<mask id="mask1" mask-type="alpha" maskUnits="userSpaceOnUse" x="0" y="0" width="41" height="41">
<rect width="40.1282" height="40.1282" rx="16" fill="black"/>
</mask>
<g mask="url(#mask1)">
<circle opacity="0.21" cx="6.29447" cy="3.36209" r="12.6221" stroke="white" stroke-width="9"/>
<circle opacity="0.21" cx="38.551" cy="37.6585" r="16.5745" stroke="white" stroke-width="9"/>
<path d="M16.0772 21.042H24.0515L25.5467 38.7639H14.582L16.0772 21.042Z" fill="white"/>
<mask id="mask2" mask-type="alpha" maskUnits="userSpaceOnUse" x="14" y="21" width="12" height="18">
<path d="M16.0772 21.042H24.0515L25.5467 38.7639H14.582L16.0772 21.042Z" fill="black"/>
</mask>
<g mask="url(#mask2)">
<path opacity="0.6" d="M15.7584 22.7299C15.7584 22.7299 16.6463 25.2808 19.999 25.8489C23.3517 26.417 25.2725 25.8489 25.2725 25.8489L24.5703 21.424L15.436 21.4666L15.7584 22.7299Z" fill="#1761C5"/>
</g>
<path d="M2.53654 34.6228C3.13682 32.3789 4.75655 30.5475 6.91025 29.6774L15.6841 26.133C15.6841 26.133 18.0415 32.1277 20.0644 32.1277C22.0872 32.1277 24.4632 26.133 24.4632 26.133L33.2214 29.6765C35.3734 30.5472 36.9916 32.3779 37.5915 34.6205L39.1887 40.591H0.939941L2.53654 34.6228Z" fill="url(#paint0_linear)"/>
<mask id="mask3" mask-type="alpha" maskUnits="userSpaceOnUse" x="0" y="26" width="40" height="15">
<path d="M2.53654 34.6228C3.13682 32.3789 4.75655 30.5475 6.91025 29.6774L15.6841 26.133C15.6841 26.133 18.0415 32.1277 20.0644 32.1277C22.0872 32.1277 24.4632 26.133 24.4632 26.133L33.2214 29.6765C35.3734 30.5472 36.9916 32.3779 37.5915 34.6205L39.1887 40.591H0.939941L2.53654 34.6228Z" fill="black"/>
</mask>
<g mask="url(#mask3)">
<rect x="19.8093" y="31.1563" width="0.509984" height="9.5622" fill="#BECAE4"/>
<path d="M9.37891 40.5911L9.85886 37.459L8.55591 40.5911H9.37891Z" fill="#BECAE4"/>
<path d="M31.8569 40.5911L31.377 37.459L32.6799 40.5911H31.8569Z" fill="#BECAE4"/>
</g>
<path d="M12.9284 27.5001C12.878 27.3141 12.9738 27.1196 13.152 27.0463L15.6441 26.02C17.1203 29.9169 18.558 31.8394 19.6827 32.0806C19.6827 32.0806 18.7382 35.938 17.9485 36.2178C17.5843 36.3468 15.3582 34.9029 14.0766 31.7328L12.9284 27.5001Z" fill="#002F70"/>
<path d="M27.1881 27.5001C27.2386 27.3141 27.1428 27.1196 26.9646 27.0463L24.4724 26.02C22.9962 29.9169 21.5586 31.8394 20.4338 32.0806C20.4338 32.0806 21.3784 35.938 22.1681 36.2178C22.5322 36.3468 24.7584 34.9029 26.0399 31.7328L27.1881 27.5001Z" fill="#002F70"/>
<path d="M13.9448 6.93201H26.9494C26.9494 6.93201 26.9248 15.591 26.6944 18.7479L26.6029 19.2547C26.0654 22.2328 23.4732 24.399 20.4471 24.399V24.399C17.421 24.399 14.8288 22.2328 14.2913 19.2547L14.1998 18.7479C13.7927 13.1713 13.9448 6.93201 13.9448 6.93201H13.9448Z" fill="white"/>
<ellipse cx="17.0044" cy="17.6332" rx="1.14746" ry="0.573732" fill="#FDE0D5"/>
<ellipse cx="24.0166" cy="17.6332" rx="1.14746" ry="0.573732" fill="#FDE0D5"/>
<circle cx="17.5781" cy="15.0282" r="0.573732" fill="#002F70"/>
<circle cx="23.4429" cy="15.0282" r="0.573732" fill="#002F70"/>
<path opacity="0.34" d="M15.2449 7.99039C15.2449 7.99039 15.887 10.7015 18.8174 10.3239C21.7478 9.94641 23.4434 6.58748 26.1983 9.49473C26.1983 9.49473 24.4619 5.69042 20.5958 6.14589C16.7297 6.60136 15.2449 7.99039 15.2449 7.99039Z" fill="#325CD8"/>
<path d="M15.2449 7.98999C15.2449 7.98999 15.7404 9.4756 18.3161 9.94601" stroke="#002F70" stroke-width="0.675" stroke-linecap="round"/>
<path d="M13.945 15.6019C13.945 15.6019 9.95059 6.7331 14.6639 5.39021C14.6639 5.39021 14.8531 1.86701 17.8998 1.76702C20.9465 1.66703 21.4425 2.66378 24.052 3.01351C26.6616 3.36323 28.651 5.88628 28.651 8.8485C28.651 11.8107 26.9496 15.6019 26.9496 15.6019C26.9496 15.6019 27.2234 8.72903 24.3481 7.99005C21.4727 7.25108 20.6369 9.03503 18.7681 9.03503C16.8993 9.03503 15.245 7.89469 15.245 7.89469C15.245 7.89469 15.1798 9.40729 14.906 11.0309C14.6321 12.6546 13.945 15.6019 13.945 15.6019L13.945 15.6019Z" fill="#002F70"/>
<path d="M16.1409 12.9463C16.1409 12.9463 17.2973 12.1618 18.5779 12.6661" stroke="#002F70" stroke-width="0.9" stroke-linecap="round"/>
<path d="M24.9529 12.9463C24.9529 12.9463 23.7965 12.1618 22.5159 12.6661" stroke="#002F70" stroke-width="0.9" stroke-linecap="round"/>
<path d="M26.7361 15.4054C26.7361 15.4054 27.6244 13.1504 28.9765 14.5186C30.3287 15.8868 28.7557 19.6891 26.5459 18.4107L26.7361 15.4054Z" fill="white"/>
<path d="M27.4768 17.0939C27.6434 16.0135 27.9462 15.3762 28.3852 15.182" stroke="#CCD4E6" stroke-width="0.675" stroke-linecap="round"/>
<path d="M14.1162 15.4054C14.1162 15.4054 13.228 13.1504 11.8758 14.5186C10.5236 15.8868 12.0966 19.6891 14.3064 18.4107L14.1162 15.4054Z" fill="white"/>
<path d="M13.3754 17.0939C13.2089 16.0135 12.9061 15.3762 12.467 15.182" stroke="#CCD4E6" stroke-width="0.675" stroke-linecap="round"/>
<path d="M20.4343 12.923C20.4343 12.923 20.4343 13.4326 20.4343 14.2461C20.4343 15.0597 22.1333 17.6422 21.0316 17.964C19.9299 18.2858 19.9351 18.2644 19.9351 18.2644" stroke="#CCD4E6" stroke-width="0.9" stroke-linecap="round"/>
<path d="M18.866 20.588C18.866 20.588 20.8136 21.4952 22.2604 20.588" stroke="#CCD4E6" stroke-width="0.675" stroke-linecap="round"/>
</g>
</g>
<defs>
<linearGradient id="paint0_linear" x1="0.939941" y1="26.133" x2="0.939941" y2="40.591" gradientUnits="userSpaceOnUse">
<stop stop-color="#F4F5F7"/>
<stop offset="1" stop-color="#E5E8ED"/>
</linearGradient>
</defs>
</svg>
