<svg width="36" height="36" viewBox="0 0 36 36" fill="none" xmlns="http://www.w3.org/2000/svg">
<rect width="36" height="36" rx="18" fill="url(#paint0_linear)"/>
<g clip-path="url(#clip0)">
<path fill-rule="evenodd" clip-rule="evenodd" d="M25.5272 20.4392L22.2006 13.8482V11.4872L23.4831 7.08606H19.9031C19.1466 7.08606 18.4664 7.41808 18.0003 7.94415C17.5342 7.41807 16.8539 7.08606 16.0975 7.08606H12.5175L13.7999 11.4873V13.8483L10.4733 20.4392C9.5523 22.2639 9.642 24.3925 10.7132 26.1332C11.7844 27.874 13.6442 28.9132 15.688 28.9132H20.3124C22.3563 28.9132 24.216 27.874 25.2873 26.1332C26.3585 24.3925 26.4482 22.2639 25.5272 20.4392H25.5272ZM16.0975 8.36502C16.7941 8.36502 17.3609 8.93181 17.3609 9.62846H18.6397C18.6397 8.93181 19.2065 8.36502 19.9031 8.36502H21.7783L21.0815 10.7564L14.9191 10.7565L14.2223 8.36503L16.0975 8.36502ZM20.9218 12.0354V13.361H15.0788V12.0355L20.9218 12.0354ZM24.1981 25.4629C23.3614 26.8226 21.9089 27.6343 20.3125 27.6343H15.688C14.0916 27.6343 12.6391 26.8226 11.8024 25.4629C10.9657 24.1033 10.8956 22.4407 11.615 21.0155L14.8329 14.6399H21.1677L24.3856 21.0155C25.1049 22.4407 25.0348 24.1033 24.1981 25.4629H24.1981Z" fill="white"/>
<path d="M18.9746 19.9678H17.4424C17.0974 19.9678 16.8168 19.6871 16.8168 19.3422C16.8168 18.9973 17.0974 18.7166 17.4424 18.7166H20.0294V17.288H18.7351V16.3241H17.3065V17.293C16.2369 17.3632 15.3882 18.2552 15.3882 19.3422C15.3882 20.4748 16.3097 21.3964 17.4424 21.3964H18.9746C19.3495 21.3964 19.6544 21.7013 19.6544 22.0762C19.6544 22.451 19.3495 22.7559 18.9746 22.7559H15.6729V24.1846H17.3066V25.1484H18.7352V24.1846H18.9746C20.1372 24.1846 21.0831 23.2388 21.0831 22.0762C21.0831 20.9136 20.1372 19.9678 18.9746 19.9678L18.9746 19.9678Z" fill="white"/>
</g>
<defs>
<linearGradient id="paint0_linear" x1="0" y1="0" x2="0" y2="36" gradientUnits="userSpaceOnUse">
<stop stop-color="#8AB7F4"/>
<stop offset="1" stop-color="#2E78DC"/>
</linearGradient>
<clipPath id="clip0">
<rect width="16.3184" height="21.8272" fill="white" transform="translate(9.84106 7.08606)"/>
</clipPath>
</defs>
</svg>
