<svg width="36" height="36" viewBox="0 0 36 36" fill="none" xmlns="http://www.w3.org/2000/svg">
<rect width="36" height="36" rx="18" fill="url(#paint0_linear)"/>
<g clip-path="url(#clip0)">
<g clip-path="url(#clip1)">
<path fill-rule="evenodd" clip-rule="evenodd" d="M25.5422 19.84C24.3133 18.6111 22.8369 17.72 21.2256 17.2119C21.5077 17.018 21.7745 16.7977 22.0226 16.5514C23.1088 15.4733 23.707 14.0367 23.707 12.5063V7.55015C23.707 6.32039 22.7065 5.31989 21.4768 5.31989H14.5382C13.3084 5.31989 12.3079 6.32038 12.3079 7.55015V12.4441C12.3079 14.4166 13.3005 16.1665 14.8072 17.2062C13.189 17.7134 11.7062 18.6065 10.4728 19.8399C8.46021 21.8525 7.35181 24.5284 7.35181 27.3747V30.6953H28.6632V27.3747C28.6632 24.5284 27.5548 21.8525 25.5422 19.8399L25.5422 19.84ZM13.7948 7.55015C13.7948 7.14023 14.1283 6.80673 14.5382 6.80673H18.0075H21.4768C21.8867 6.80673 22.2202 7.14023 22.2202 7.55015V8.29357H20.1099C19.803 7.42833 18.9767 6.80673 18.0075 6.80673C17.0383 6.80673 16.212 7.42833 15.9051 8.29357H13.7948V7.55015ZM18.7509 9.03699C18.7509 9.44691 18.4174 9.78041 18.0075 9.78041C17.5976 9.78041 17.2641 9.44691 17.2641 9.03699C17.2641 8.62707 17.5976 8.29357 18.0075 8.29357C18.4174 8.29357 18.7509 8.62707 18.7509 9.03699ZM13.7948 12.4441V9.78041H15.9051C16.212 10.6456 17.0383 11.2672 18.0075 11.2672C18.9767 11.2672 19.803 10.6456 20.1099 9.78041H22.2202V12.5063C22.2202 13.6374 21.7781 14.6993 20.9752 15.4962C20.1724 16.293 19.1062 16.725 17.9754 16.7188C15.6702 16.7018 13.7948 14.7841 13.7948 12.4441H13.7948ZM17.2641 29.2084H8.83865V27.3747C8.83865 23.7191 10.9893 20.5568 14.0915 19.0853L17.2641 22.2579V29.2084ZM15.6284 18.5195C16.3874 18.3154 17.1849 18.2058 18.0075 18.2058C18.8288 18.2058 19.6251 18.315 20.3831 18.5186L18.0053 20.8964L15.6284 18.5195ZM27.1763 29.2084H18.7509V22.2534L21.9203 19.0839C25.0242 20.5547 27.1763 23.7179 27.1763 27.3746V29.2084Z" fill="white"/>
</g>
</g>
<defs>
<linearGradient id="paint0_linear" x1="0" y1="0" x2="0" y2="36" gradientUnits="userSpaceOnUse">
<stop stop-color="#8AB7F4"/>
<stop offset="1" stop-color="#2E78DC"/>
</linearGradient>
<clipPath id="clip0">
<rect width="21.3113" height="25.3754" fill="white" transform="translate(7.35181 5.31989)"/>
</clipPath>
<clipPath id="clip1">
<rect width="21.3113" height="25.3754" fill="white" transform="translate(7.35181 5.31989)"/>
</clipPath>
</defs>
</svg>
