<svg width="28" height="28" viewBox="0 0 28 28" fill="none" xmlns="http://www.w3.org/2000/svg">
<mask id="mask0" mask-type="alpha" maskUnits="userSpaceOnUse" x="0" y="0" width="28" height="28">
<rect width="28" height="28" fill="black"/>
</mask>
<g mask="url(#mask0)">
<path d="M6.36638 16.86L5.41185 20.4233L1.92308 20.4971C0.880453 18.5632 0.289062 16.3506 0.289062 13.9994C0.289062 11.7258 0.842002 9.58175 1.82213 7.69385H1.82288L4.92886 8.26328L6.28947 11.3506C6.0047 12.1808 5.84948 13.0721 5.84948 13.9994C5.84959 15.006 6.0319 15.9702 6.36638 16.86Z" fill="#FBBB00"/>
<path d="M27.4711 11.439C27.6286 12.2684 27.7107 13.125 27.7107 14.0004C27.7107 14.9819 27.6075 15.9395 27.4109 16.8631C26.7434 20.0062 24.9994 22.7506 22.5834 24.6928L22.5826 24.692L18.6705 24.4924L18.1168 21.036C19.72 20.0958 20.9728 18.6245 21.6327 16.8631H14.301V11.439H21.7397L27.4711 11.439Z" fill="#518EF8"/>
<path d="M22.5831 24.691L22.5839 24.6918C20.2342 26.5804 17.2493 27.7104 14.0001 27.7104C8.77864 27.7104 4.23893 24.792 1.9231 20.497L6.3664 16.8599C7.52429 19.9501 10.5053 22.15 14.0001 22.15C15.5022 22.15 16.9096 21.7439 18.1172 21.035L22.5831 24.691Z" fill="#28B446"/>
<path d="M22.7518 3.44561L18.31 7.08204C17.0602 6.30083 15.5829 5.84955 14 5.84955C10.4261 5.84955 7.38931 8.15027 6.28943 11.3513L1.82277 7.69454H1.82202C4.10395 3.29496 8.7009 0.289062 14 0.289062C17.3268 0.289062 20.3771 1.4741 22.7518 3.44561Z" fill="#F14336"/>
</g>
</svg>
