<svg width="36" height="36" viewBox="0 0 36 36" fill="none" xmlns="http://www.w3.org/2000/svg">
<rect width="36" height="36" rx="18" fill="url(#paint0_linear)"/>
<path fill-rule="evenodd" clip-rule="evenodd" d="M31.2338 20.7056C31.2102 20.6529 31.1766 20.6052 31.1349 20.5654L31.1375 20.5626L29.0738 18.499C28.0618 17.4857 26.8754 16.6636 25.5714 16.0718L22.6776 14.7565L20.9651 13.0439C20.8824 12.961 20.7701 12.9142 20.6528 12.9139H17.7781C17.1673 12.9139 16.6724 13.4089 16.6724 14.0196C16.6724 14.6304 17.1673 15.1253 17.7781 15.1253H19.326V16.1788L17.8949 16.8944H9.03386C8.36764 16.8953 7.82754 17.4352 7.82689 18.1014V18.2968C7.82603 18.6057 7.93357 18.9052 8.13117 19.1425L7.16348 20.4326H6.05779C5.32506 20.4326 4.73096 21.0267 4.73096 21.7594C4.73096 22.4922 5.32505 23.0863 6.05779 23.0863H28.1403C28.8443 23.0882 29.5198 22.8086 30.0163 22.3093L31.1379 21.1876C31.2645 21.0611 31.3023 20.8708 31.2338 20.7056L31.2338 20.7056ZM23.1247 19.2116C24.3882 18.8659 25.7258 18.903 26.968 19.3181L27.9631 19.6498C28.5084 19.8329 29.023 20.0966 29.4899 20.4326H19.5981C20.7461 19.95 21.9241 19.5422 23.1246 19.2116L23.1247 19.2116ZM28.0281 18.7391L27.2481 18.4791C25.9908 18.0597 24.6448 17.9813 23.3471 18.2517L22.2451 17.4252C22.0496 17.2786 21.7723 17.3181 21.6259 17.5136C21.4793 17.709 21.5188 17.9863 21.7142 18.1329L22.2654 18.5458C21.6505 18.7285 21.0411 18.9285 20.4384 19.1505L18.7457 17.4578L22.4312 15.6153L25.2056 16.8763C26.2368 17.3484 27.1887 17.9768 28.0281 18.7391L28.0281 18.7391ZM17.7781 14.2408C17.6558 14.2408 17.5569 14.1418 17.5569 14.0196C17.5569 13.8976 17.6558 13.7985 17.7781 13.7985H19.326V14.2408H17.7781ZM20.2106 13.7985H20.4697L21.6754 15.0042L20.2106 15.7365L20.2106 13.7985ZM8.71142 18.1014C8.71164 17.9234 8.85589 17.7792 9.03384 17.779H17.816L19.5383 19.5012C18.8328 19.7878 18.1354 20.0933 17.4547 20.4326H15.4034L8.9401 18.7078L8.84098 18.6087C8.75827 18.526 8.71162 18.4139 8.71141 18.2968L8.71142 18.1014ZM8.88828 19.61L11.9706 20.4326H8.26914L8.88828 19.61ZM29.3932 21.6838C29.0615 22.0171 28.6101 22.2036 28.1402 22.2017H6.05772C5.81348 22.2017 5.61544 22.0037 5.61544 21.7594C5.61544 21.5152 5.81347 21.3171 6.05772 21.3171H29.7575L29.3932 21.6838Z" fill="white"/>
<defs>
<linearGradient id="paint0_linear" x1="0" y1="0" x2="0" y2="36" gradientUnits="userSpaceOnUse">
<stop stop-color="#8AB7F4"/>
<stop offset="1" stop-color="#2E78DC"/>
</linearGradient>
</defs>
</svg>
