<svg width="54" height="50" viewBox="0 0 54 50" fill="none" xmlns="http://www.w3.org/2000/svg">
<circle cx="30" cy="26" r="24" fill="#0093B9"/>
<mask id="mask0" mask-type="alpha" maskUnits="userSpaceOnUse" x="6" y="2" width="48" height="48">
<circle cx="30" cy="26" r="24" fill="black"/>
</mask>
<g mask="url(#mask0)">
<rect opacity="0.12" x="33" y="25" width="30" height="33" rx="2" fill="black"/>
<circle opacity="0.12" cx="13" cy="11" r="12" stroke="black" stroke-width="6"/>
<rect x="16" y="12.5" width="40" height="31" rx="3" fill="#62A7B8"/>
<rect x="16" y="12.5" width="40" height="27" rx="3" fill="url(#paint0_linear)"/>
<rect x="21" y="18.5" width="12" height="14" rx="1" fill="white"/>
<path d="M38 20.5H44" stroke="#62A7B8" stroke-width="1.5" stroke-linecap="round" stroke-linejoin="round"/>
<path d="M48 20.5H55" stroke="#62A7B8" stroke-width="1.5" stroke-linecap="round" stroke-linejoin="round"/>
<path opacity="0.48" d="M38 25.5H55" stroke="#62A7B8" stroke-width="1.5" stroke-linecap="round" stroke-linejoin="round"/>
<path opacity="0.48" d="M38 29.5H50" stroke="#62A7B8" stroke-width="1.5" stroke-linecap="round" stroke-linejoin="round"/>
</g>
<g opacity="0.8" filter="url(#filter0_d)">
<circle cx="17" cy="13" r="9" fill="#00B167"/>
</g>
<path d="M13 13.1833L15.5454 15.75L21 10.25" stroke="#E8F2FF" stroke-width="1.5" stroke-linecap="round" stroke-linejoin="round"/>
<defs>
<filter id="filter0_d" x="0" y="0" width="34" height="34" filterUnits="userSpaceOnUse" color-interpolation-filters="sRGB">
<feFlood flood-opacity="0" result="BackgroundImageFix"/>
<feColorMatrix in="SourceAlpha" type="matrix" values="0 0 0 0 0 0 0 0 0 0 0 0 0 0 0 0 0 0 127 0"/>
<feOffset dy="4"/>
<feGaussianBlur stdDeviation="4"/>
<feColorMatrix type="matrix" values="0 0 0 0 0 0 0 0 0 0.207843 0 0 0 0 0.403922 0 0 0 0.501961 0"/>
<feBlend mode="normal" in2="BackgroundImageFix" result="effect1_dropShadow"/>
<feBlend mode="normal" in="SourceGraphic" in2="effect1_dropShadow" result="shape"/>
</filter>
<linearGradient id="paint0_linear" x1="16" y1="12.5" x2="16" y2="39.5" gradientUnits="userSpaceOnUse">
<stop stop-color="#DDF5FA"/>
<stop offset="1" stop-color="#A1D5E2"/>
</linearGradient>
</defs>
</svg>
