<svg width="39" height="40" viewBox="0 0 39 40" fill="none" xmlns="http://www.w3.org/2000/svg">
<circle cx="19.0652" cy="20.5662" r="18.5652" fill="#1761C5" stroke="white"/>
<mask id="mask0" mask-type="alpha" maskUnits="userSpaceOnUse" x="1" y="2" width="37" height="37">
<circle cx="19.0652" cy="20.5662" r="18.0652" fill="black"/>
</mask>
<g mask="url(#mask0)">
<circle opacity="0.21" cx="28.0064" cy="35.5742" r="14.4522" stroke="white" stroke-width="24"/>
<circle opacity="0.21" cx="8.96832" cy="6.53089" r="7.36505" fill="white"/>
<path d="M-1.445 5.737C5.53408 9.84231 9.24511 15.7078 9.67779 23.3208L9.6899 23.5521C9.95589 29.1036 11.6672 33.0478 15.0011 36.1058C15.3433 36.4197 15.7015 36.7246 16.0779 37.022L16.3059 37.1995C16.5362 37.3761 16.7732 37.5502 17.0175 37.722L17.2642 37.8931L17.5158 38.0627C17.77 38.2316 18.0317 38.3985 18.3015 38.5637L18.574 38.7283C18.6199 38.7557 18.666 38.783 18.7124 38.8102L18.9932 38.9733C19.0405 39.0004 19.088 39.0274 19.1357 39.0545L19.4251 39.2161C19.4738 39.243 19.5228 39.2698 19.572 39.2966L19.8702 39.457L20.1744 39.6167C20.2256 39.6432 20.2771 39.6698 20.3288 39.6963L20.6422 39.855L20.9619 40.0131C21.0158 40.0395 21.0698 40.0658 21.1242 40.092L21.4536 40.2495L21.7895 40.4066L22.1322 40.5635C22.1898 40.5896 22.2478 40.6157 22.306 40.6418L22.6589 40.7983L23.0187 40.9547L23.3856 41.1111C23.4474 41.1372 23.5094 41.1632 23.5718 41.1893L23.9495 41.3458L24.3347 41.5024L24.7272 41.6592L25.1274 41.8164L25.5353 41.9739C25.6039 42.0002 25.6729 42.0265 25.7422 42.0528L26.1618 42.211L26.5894 42.3698L27.0251 42.5292L27.469 42.6893C27.5437 42.716 27.6187 42.7428 27.6941 42.7696L28.1505 42.9309L28.6154 43.0931L28.8511 43.1745L28.7606 43.4373L28.289 43.2738L27.8261 43.1113L27.3716 42.9496L26.9254 42.7886L26.4874 42.6284L26.0575 42.4688L25.6356 42.3097L25.2216 42.151L24.8154 41.9928L24.4168 41.8349C24.351 41.8086 24.2855 41.7823 24.2204 41.756L23.833 41.5984L23.4531 41.4409L23.0804 41.2836C23.0188 41.2573 22.9576 41.2311 22.8967 41.2048L22.5346 41.0474C22.4749 41.0211 22.4154 40.9949 22.3562 40.9686L22.0046 40.8109L21.6598 40.653C21.6029 40.6266 21.5462 40.6002 21.4899 40.5739L21.155 40.4154C21.0445 40.3625 20.9351 40.3096 20.8267 40.2565L20.5048 40.0971C20.3985 40.0439 20.2933 39.9906 20.1892 39.9372L19.8797 39.7766C19.8286 39.7497 19.7778 39.7229 19.7273 39.696L19.4269 39.5342L19.1323 39.3716C19.0837 39.3444 19.0354 39.3172 18.9873 39.29L18.7014 39.1259C18.607 39.0711 18.5136 39.0161 18.4211 38.9609L18.1463 38.7948C17.9196 38.6558 17.6985 38.5156 17.4827 38.3741L17.2263 38.2034C17.184 38.1749 17.1419 38.1463 17.0999 38.1176L16.851 37.9448L16.6068 37.7705C16.4053 37.6245 16.2087 37.4768 16.0167 37.3272L15.7885 37.1468C15.7508 37.1166 15.7133 37.0863 15.676 37.056L15.4542 36.8727C15.2345 36.6884 15.021 36.5012 14.8132 36.3106C11.4635 33.238 9.72333 29.2828 9.42251 23.7654L9.41226 23.5653C9.05033 16.0114 5.45707 10.1939 -1.37783 6.10004L-1.58594 5.97651L-1.445 5.737Z" fill="#4882D1"/>
<path d="M-3.39007 7.68201C3.58901 11.7873 7.30004 17.6529 7.73272 25.2658L7.74483 25.4971C8.01082 31.0486 9.72217 34.9928 13.056 38.0508C13.3983 38.3647 13.7564 38.6696 14.1328 38.967L14.3609 39.1445C14.5912 39.3212 14.8282 39.4952 15.0724 39.667L15.3191 39.8381L15.5708 40.0077C15.8249 40.1766 16.0866 40.3435 16.3564 40.5087L16.629 40.6733C16.6749 40.7007 16.721 40.728 16.7673 40.7552L17.0481 40.9183C17.0954 40.9454 17.1429 40.9724 17.1907 40.9995L17.4801 41.1611C17.5288 41.188 17.5777 41.2148 17.6269 41.2416L17.9251 41.402L18.2293 41.5617C18.2805 41.5882 18.332 41.6148 18.3837 41.6413L18.6971 41.8L19.0169 41.9582C19.0707 41.9845 19.1248 42.0108 19.1791 42.0371L19.5085 42.1945L19.8444 42.3516L20.1871 42.5085C20.2448 42.5346 20.3027 42.5607 20.3609 42.5868L20.7138 42.7433L21.0737 42.8997L21.4406 43.0561C21.5023 43.0822 21.5644 43.1082 21.6267 43.1343L22.0045 43.2908L22.3896 43.4474L22.7822 43.6042L23.1824 43.7614L23.5902 43.9189C23.6589 43.9452 23.7278 43.9715 23.7971 43.9978L24.2167 44.156L24.6443 44.3148L25.08 44.4742L25.5239 44.6343C25.5986 44.661 25.6736 44.6878 25.749 44.7146L26.2054 44.8759L26.6704 45.0381L26.906 45.1195L26.8155 45.3823L26.344 45.2188L25.881 45.0563L25.4265 44.8946L24.9803 44.7336L24.5423 44.5734L24.1125 44.4138L23.6906 44.2547L23.2766 44.096L22.8703 43.9378L22.4717 43.7799C22.4059 43.7536 22.3405 43.7273 22.2753 43.701L21.888 43.5434L21.508 43.386L21.1353 43.2286C21.0738 43.2023 21.0125 43.1761 20.9516 43.1499L20.5896 42.9924C20.5298 42.9661 20.4704 42.9399 20.4112 42.9136L20.0595 42.7559L19.7147 42.598C19.6578 42.5716 19.6012 42.5453 19.5448 42.5189L19.21 42.3604C19.0995 42.3075 18.99 42.2546 18.8816 42.2015L18.5597 42.0422C18.4535 41.9889 18.3483 41.9356 18.2441 41.8822L17.9346 41.7216C17.8836 41.6947 17.8328 41.6679 17.7822 41.641L17.4818 41.4792L17.1873 41.3166C17.1387 41.2894 17.0903 41.2622 17.0422 41.235L16.7563 41.071C16.662 41.0161 16.5685 40.9611 16.476 40.9059L16.2013 40.7398C15.9746 40.6008 15.7534 40.4607 15.5376 40.3191L15.2812 40.1485C15.2389 40.1199 15.1968 40.0913 15.1549 40.0626L14.9059 39.8898L14.6617 39.7155C14.4602 39.5695 14.2636 39.4218 14.0716 39.2723L13.8434 39.0919C13.8057 39.0616 13.7682 39.0313 13.7309 39.001L13.5091 38.8177C13.2894 38.6334 13.0759 38.4462 12.8681 38.2556C9.51839 35.183 7.77826 31.2278 7.47744 25.7104L7.46719 25.5103C7.10526 17.9564 3.512 12.1389 -3.3229 8.04505L-3.53101 7.92152L-3.39007 7.68201Z" fill="#4882D1"/>
<path d="M-5.61394 8.23798C1.36514 12.3433 5.07617 18.2088 5.50885 25.8218L5.52096 26.053C5.78695 31.6046 7.4983 35.5488 10.8322 38.6068C11.1744 38.9207 11.5325 39.2256 11.9089 39.5229L12.137 39.7005C12.3673 39.8771 12.6043 40.0512 12.8485 40.223L13.0952 40.394L13.3469 40.5637C13.601 40.7326 13.8627 40.8995 14.1326 41.0647L14.4051 41.2293C14.451 41.2566 14.4971 41.2839 14.5434 41.3112L14.8243 41.4743C14.8715 41.5013 14.919 41.5284 14.9668 41.5554L15.2562 41.7171C15.3049 41.7439 15.3538 41.7708 15.4031 41.7976L15.7012 41.958L16.0054 42.1177C16.0567 42.1442 16.1081 42.1707 16.1598 42.1973L16.4733 42.356L16.793 42.5141C16.8468 42.5404 16.9009 42.5667 16.9552 42.593L17.2846 42.7505L17.6206 42.9076L17.9632 43.0644C18.0209 43.0906 18.0788 43.1167 18.1371 43.1428L18.4899 43.2993L18.8498 43.4557L19.2167 43.6121C19.2784 43.6381 19.3405 43.6642 19.4028 43.6903L19.7806 43.8467L20.1657 44.0034L20.5583 44.1602L20.9585 44.3173L21.3663 44.4749C21.435 44.5011 21.5039 44.5275 21.5732 44.5538L21.9928 44.712L22.4204 44.8707L22.8562 45.0301L23.3001 45.1902C23.3747 45.217 23.4498 45.2438 23.5251 45.2706L23.9816 45.4319L24.4465 45.594L24.6821 45.6755L24.5916 45.9383L24.1201 45.7748L23.6571 45.6123L23.2026 45.4505L22.7564 45.2896L22.3184 45.1294L21.8886 44.9697L21.4667 44.8106L21.0527 44.652L20.6465 44.4938L20.2479 44.3358C20.1821 44.3096 20.1166 44.2833 20.0514 44.257L19.6641 44.0994L19.2841 43.9419L18.9114 43.7845C18.8499 43.7583 18.7887 43.7321 18.7277 43.7058L18.3657 43.5484C18.3059 43.5221 18.2465 43.4958 18.1873 43.4696L17.8357 43.3119L17.4908 43.1539C17.4339 43.1276 17.3773 43.1012 17.3209 43.0748L16.9861 42.9164C16.8756 42.8635 16.7661 42.8106 16.6578 42.7575L16.3358 42.5981C16.2296 42.5449 16.1244 42.4916 16.0202 42.4382L15.7108 42.2775C15.6597 42.2507 15.6089 42.2238 15.5583 42.1969L15.2579 42.0352L14.9634 41.8726C14.9148 41.8454 14.8664 41.8182 14.8183 41.7909L14.5324 41.6269C14.4381 41.5721 14.3447 41.5171 14.2522 41.4619L13.9774 41.2957C13.7507 41.1568 13.5296 41.0166 13.3138 40.875L13.0573 40.7044C13.015 40.6759 12.9729 40.6473 12.931 40.6186L12.682 40.4458L12.4378 40.2714C12.2363 40.1255 12.0397 39.9778 11.8477 39.8282L11.6195 39.6478C11.5819 39.6176 11.5444 39.5873 11.5071 39.5569L11.2853 39.3737C11.0656 39.1894 10.8521 39.0021 10.6443 38.8115C7.29452 35.739 5.55439 31.7838 5.25357 26.2664L5.24332 26.0663C4.88139 18.5123 1.28813 12.6949 -5.54677 8.60102L-5.75488 8.47749L-5.61394 8.23798Z" fill="#4882D1"/>
<path d="M-7.83709 8.23798C-0.858007 12.3433 2.85302 18.2088 3.2857 25.8218L3.29781 26.053C3.5638 31.6046 5.27515 35.5488 8.60901 38.6068C8.95125 38.9207 9.3094 39.2256 9.6858 39.5229L9.91385 39.7005C10.1441 39.8771 10.3811 40.0512 10.6254 40.223L10.8721 40.394L11.1237 40.5637C11.3779 40.7326 11.6396 40.8995 11.9094 41.0647L12.182 41.2293C12.2278 41.2566 12.2739 41.2839 12.3203 41.3112L12.6011 41.4743C12.6484 41.5013 12.6959 41.5284 12.7437 41.5554L13.033 41.7171C13.0818 41.7439 13.1307 41.7708 13.1799 41.7976L13.4781 41.958L13.7823 42.1177C13.8335 42.1442 13.885 42.1707 13.9367 42.1973L14.2501 42.356L14.5699 42.5141C14.6237 42.5404 14.6778 42.5667 14.7321 42.593L15.0615 42.7505L15.3974 42.9076L15.7401 43.0644C15.7977 43.0906 15.8557 43.1167 15.9139 43.1428L16.2668 43.2993L16.6266 43.4557L16.9936 43.6121C17.0553 43.6381 17.1174 43.6642 17.1797 43.6903L17.5575 43.8467L17.9426 44.0034L18.3352 44.1602L18.7353 44.3173L19.1432 44.4749C19.2118 44.5011 19.2808 44.5275 19.3501 44.5538L19.7697 44.712L20.1973 44.8707L20.633 45.0301L21.0769 45.1902C21.1516 45.217 21.2266 45.2438 21.302 45.2706L21.7584 45.4319L22.2233 45.594L22.459 45.6755L22.3685 45.9383L21.897 45.7748L21.434 45.6123L20.9795 45.4505L20.5333 45.2896L20.0953 45.1294L19.6654 44.9697L19.2436 44.8106L18.8296 44.652L18.4233 44.4938L18.0247 44.3358C17.9589 44.3096 17.8934 44.2833 17.8283 44.257L17.4409 44.0994L17.061 43.9419L16.6883 43.7845C16.6267 43.7583 16.5655 43.7321 16.5046 43.7058L16.1426 43.5484C16.0828 43.5221 16.0233 43.4958 15.9642 43.4696L15.6125 43.3119L15.2677 43.1539C15.2108 43.1276 15.1542 43.1012 15.0978 43.0748L14.763 42.9164C14.6524 42.8635 14.543 42.8106 14.4346 42.7575L14.1127 42.5981C14.0065 42.5449 13.9012 42.4916 13.7971 42.4382L13.4876 42.2775C13.4365 42.2507 13.3857 42.2238 13.3352 42.1969L13.0348 42.0352L12.7403 41.8726C12.6917 41.8454 12.6433 41.8182 12.5952 41.7909L12.3093 41.6269C12.2149 41.5721 12.1215 41.5171 12.029 41.4619L11.7543 41.2957C11.5275 41.1568 11.3064 41.0166 11.0906 40.875L10.8342 40.7044C10.7919 40.6759 10.7498 40.6473 10.7079 40.6186L10.4589 40.4458L10.2147 40.2714C10.0132 40.1255 9.81659 39.9778 9.62459 39.8282L9.39639 39.6478C9.35872 39.6176 9.32122 39.5873 9.28391 39.5569L9.06212 39.3737C8.84242 39.1894 8.62892 39.0021 8.42112 38.8115C5.07137 35.739 3.33124 31.7838 3.03042 26.2664L3.02017 26.0663C2.65824 18.5123 -0.935017 12.6949 -7.76992 8.60102L-7.97803 8.47749L-7.83709 8.23798Z" fill="#4882D1"/>
</g>
<path d="M18.9819 32.4995C16.0326 29.768 14.967 22.8596 14.967 22.8596L21.8691 12.119C21.8691 12.119 24.2325 14.5832 25.2468 16.4345C26.8569 19.3703 28.2717 23.612 28.4292 25.8197C28.7353 30.0884 29.1197 32.8039 30.0649 34.8981C28.0664 36.4341 25.7361 37.5622 23.2018 38.1561C22.2647 36.509 20.745 34.1329 18.9819 32.4995Z" fill="white"/>
<rect x="11.6086" y="0.833801" width="13.8963" height="26.1251" rx="6.2439" fill="#E8ECF0"/>
<rect x="12.1646" y="1.38965" width="12.7846" height="25.0134" rx="6.2439" fill="#002F70"/>
<rect opacity="0.2" x="13.832" y="12.5067" width="9.4495" height="2.50134" rx="1.25067" fill="white"/>
<circle opacity="0.2" cx="18.5568" cy="8.05987" r="2.50134" fill="white"/>
<path d="M23.4736 22.7633C21.5524 19.3477 20.1381 18.897 20.1381 18.897C20.1381 18.897 18.9301 19.5585 19.5966 21.4409C20.2631 23.3233 21.9706 24.8717 21.9706 27.6775C21.9706 30.4833 20.7334 31.613 23.4736 33.9044C26.2138 36.1957 26.9437 26.2976 26.9437 26.2976C26.9437 26.2976 25.3948 26.179 23.4736 22.7633Z" fill="#002F70"/>
<path d="M25.3557 22.6634C25.3557 22.6634 25.7197 25.8541 23.7985 22.4384C21.8774 19.0227 20.463 18.572 20.463 18.572C20.463 18.572 19.255 19.2335 19.9215 21.1159C20.5881 22.9983 22.2956 24.5468 22.2956 27.3526C22.2956 30.1584 20.869 31.7273 23.6092 34.0186C26.3494 36.3099 27.2687 25.9726 27.2687 25.9726L25.3557 22.6634Z" fill="white"/>
<path d="M20.4629 18.571C20.4629 18.571 20.2486 19.0822 20.8822 19.7801C21.5158 20.478 22.2273 20.0494 22.2273 20.0494C22.2273 20.0494 21.655 19.3707 21.2543 19.0351C20.8537 18.6994 20.4629 18.571 20.4629 18.571V18.571Z" fill="#74A0DC"/>
<path d="M24.6625 24.607L23.811 24.8424" stroke="#002F70" stroke-width="0.780488" stroke-linecap="round"/>
<path d="M25.1292 24.725L24.9221 25.2515" stroke="#002F70" stroke-width="0.780488" stroke-linecap="round"/>
<path d="M19.113 1.11171C19.113 0.49773 19.6108 0 20.2247 0H30.2301C30.8441 0 31.3418 0.49773 31.3418 1.11171V10.485C31.3418 10.9565 30.7918 11.2139 30.4298 10.9118L28.2846 9.12153H20.2248C19.6108 9.12153 19.113 8.6238 19.113 8.00982L19.113 1.11171Z" fill="#44C8E9"/>
<circle cx="28.2233" cy="4.44685" r="1.11171" fill="white"/>
<circle cx="25.1661" cy="4.44685" r="1.11171" fill="white"/>
<circle cx="22.1088" cy="4.44685" r="1.11171" fill="white"/>
</svg>
