<svg width="28" height="28" viewBox="0 0 28 28" fill="none" xmlns="http://www.w3.org/2000/svg">
<g clip-path="url(#clip0)">
<path d="M28.0003 14.086C28.0003 6.30554 21.7318 -0.00146484 14.0003 -0.00146484C6.26533 0.000285156 -0.00317383 6.30554 -0.00317383 14.0878C-0.00317383 21.1175 5.11733 26.945 11.8093 28.002V18.1583H8.25683V14.0878H11.8128V10.9815C11.8128 7.45179 13.9041 5.50229 17.1013 5.50229C18.6343 5.50229 20.2356 5.77704 20.2356 5.77704V9.24204H18.4698C16.7321 9.24204 16.1896 10.3288 16.1896 11.4435V14.086H20.0711L19.4516 18.1565H16.1878V28.0003C22.8798 26.9433 28.0003 21.1158 28.0003 14.086Z" fill="#1877F2"/>
</g>
<defs>
<clipPath id="clip0">
<rect width="28" height="28" fill="white"/>
</clipPath>
</defs>
</svg>
