<svg width="144" height="144" viewBox="0 0 144 144" fill="none" xmlns="http://www.w3.org/2000/svg">
<circle opacity="0.3" cx="71.9998" cy="81" r="63" fill="#002F70"/>
<circle cx="71.8291" cy="75" r="65.5" fill="white" stroke="white"/>
<circle cx="71.8291" cy="75" r="65" fill="#1761C5"/>
<mask id="mask0" mask-type="alpha" maskUnits="userSpaceOnUse" x="6" y="10" width="131" height="131">
<circle cx="71.8291" cy="75.0005" r="65" fill="black"/>
</mask>
<g mask="url(#mask0)">
<circle opacity="0.21" cx="104" cy="129" r="52" stroke="white" stroke-width="24"/>
<circle opacity="0.21" cx="35.4998" cy="24.5005" r="26.5" fill="white"/>
<path d="M-1.96779 21.6431C23.1434 36.4143 36.496 57.5189 38.0528 84.9109L38.0964 85.7429C39.0534 105.718 45.211 119.909 57.2065 130.912C58.4379 132.042 59.7265 133.139 61.0808 134.209L61.9014 134.847C62.7299 135.483 63.5827 136.109 64.4616 136.727L65.3492 137.343L66.2546 137.953C67.1691 138.561 68.1108 139.162 69.0816 139.756L70.0622 140.348C70.2273 140.447 70.3932 140.545 70.5599 140.643L71.5704 141.23C71.7405 141.327 71.9114 141.424 72.0832 141.522L73.1244 142.103C73.2997 142.2 73.4759 142.296 73.6529 142.393L74.7258 142.97L75.8204 143.545C76.0046 143.64 76.1898 143.736 76.3759 143.831L77.5036 144.402L78.654 144.971C78.8477 145.066 79.0423 145.16 79.2378 145.255L80.4229 145.822L81.6317 146.387L82.8645 146.951C83.072 147.045 83.2806 147.139 83.4901 147.233L84.7598 147.796L86.0545 148.359L87.3747 148.922C87.5969 149.015 87.8201 149.109 88.0445 149.203L89.4037 149.766L90.7893 150.329L92.2019 150.894L93.6418 151.459L95.1093 152.026C95.3562 152.12 95.6043 152.215 95.8536 152.31L97.3635 152.879L98.9021 153.45L100.47 154.024L102.067 154.6C102.336 154.696 102.606 154.793 102.877 154.889L104.519 155.469L106.192 156.053L107.04 156.346L106.714 157.291L105.018 156.703L103.352 156.118L101.716 155.537L100.111 154.958L98.5351 154.381L96.9884 153.807L95.4704 153.234L93.9808 152.663L92.5191 152.094L91.0849 151.526C90.8482 151.431 90.6126 151.337 90.3781 151.242L88.9844 150.675L87.6173 150.108L86.2763 149.542C86.0549 149.448 85.8346 149.353 85.6154 149.259L84.3127 148.692C84.0977 148.598 83.8838 148.503 83.6708 148.409L82.4057 147.842L81.1649 147.273C80.9602 147.178 80.7564 147.084 80.5536 146.989L79.3488 146.419C78.9512 146.228 78.5574 146.038 78.1675 145.847L77.0092 145.273C76.6269 145.082 76.2484 144.89 75.8735 144.698L74.7601 144.12C74.5763 144.023 74.3935 143.927 74.2116 143.83L73.1307 143.248L72.071 142.663C71.8962 142.565 71.7222 142.467 71.549 142.369L70.5204 141.779C70.1809 141.582 69.8448 141.384 69.512 141.185L68.5233 140.587C67.7076 140.088 66.912 139.583 66.1355 139.074L65.2129 138.46C65.0606 138.357 64.9091 138.254 64.7583 138.151L63.8624 137.529L62.9839 136.902C62.2588 136.377 61.5515 135.845 60.8606 135.307L60.0395 134.658C59.904 134.549 59.7691 134.44 59.6348 134.331L58.8368 133.672C58.0463 133.009 57.2781 132.335 56.5305 131.649C44.4778 120.594 38.2167 106.363 37.1344 86.5108L37.0975 85.7908C35.7952 58.6111 22.8664 37.6794 -1.72605 22.9495L-2.47485 22.505L-1.96779 21.6431Z" fill="#4882D1"/>
<path d="M-8.96779 28.6431C16.1434 43.4143 29.496 64.5189 31.0528 91.9109L31.0964 92.7429C32.0534 112.718 38.211 126.909 50.2065 137.912C51.4379 139.042 52.7265 140.139 54.0808 141.209L54.9014 141.847C55.7299 142.483 56.5827 143.109 57.4616 143.727L58.3492 144.343L59.2546 144.953C60.1691 145.561 61.1108 146.162 62.0816 146.756L63.0622 147.348C63.2273 147.447 63.3932 147.545 63.5599 147.643L64.5704 148.23C64.7405 148.327 64.9114 148.424 65.0832 148.522L66.1244 149.103C66.2997 149.2 66.4759 149.296 66.6529 149.393L67.7258 149.97L68.8204 150.545C69.0046 150.64 69.1898 150.736 69.3759 150.831L70.5036 151.402L71.654 151.971C71.8477 152.066 72.0423 152.16 72.2378 152.255L73.4229 152.822L74.6317 153.387L75.8645 153.951C76.072 154.045 76.2806 154.139 76.4901 154.233L77.7598 154.796L79.0545 155.359L80.3747 155.922C80.5969 156.015 80.8201 156.109 81.0445 156.203L82.4037 156.766L83.7893 157.329L85.2019 157.894L86.6418 158.459L88.1093 159.026C88.3562 159.12 88.6043 159.215 88.8536 159.31L90.3635 159.879L91.9021 160.45L93.4698 161.024L95.067 161.6C95.3357 161.696 95.6056 161.793 95.8768 161.889L97.519 162.469L99.1918 163.053L100.04 163.346L99.7141 164.291L98.0175 163.703L96.3517 163.118L94.7164 162.537L93.1109 161.958L91.5351 161.381L89.9884 160.807L88.4704 160.234L86.9808 159.663L85.5191 159.094L84.0849 158.526C83.8482 158.431 83.6126 158.337 83.3781 158.242L81.9844 157.675L80.6173 157.108L79.2763 156.542C79.0549 156.448 78.8346 156.353 78.6154 156.259L77.3127 155.692C77.0977 155.598 76.8838 155.503 76.6708 155.409L75.4057 154.842L74.1649 154.273C73.9602 154.178 73.7564 154.084 73.5536 153.989L72.3488 153.419C71.9512 153.228 71.5574 153.038 71.1675 152.847L70.0092 152.273C69.6269 152.082 69.2484 151.89 68.8735 151.698L67.7601 151.12C67.5763 151.023 67.3935 150.927 67.2116 150.83L66.1307 150.248L65.071 149.663C64.8962 149.565 64.7222 149.467 64.549 149.369L63.5204 148.779C63.1809 148.582 62.8448 148.384 62.512 148.185L61.5233 147.587C60.7076 147.088 59.912 146.583 59.1355 146.074L58.2129 145.46C58.0606 145.357 57.9091 145.254 57.7583 145.151L56.8624 144.529L55.9839 143.902C55.2588 143.377 54.5515 142.845 53.8606 142.307L53.0395 141.658C52.904 141.549 52.7691 141.44 52.6348 141.331L51.8368 140.672C51.0463 140.009 50.2781 139.335 49.5305 138.649C37.4778 127.594 31.2167 113.363 30.1344 93.5108L30.0975 92.7908C28.7952 65.6111 15.8664 44.6794 -8.72605 29.9495L-9.47485 29.505L-8.96779 28.6431Z" fill="#4882D1"/>
<path d="M-16.9678 30.6431C8.14344 45.4143 21.496 66.5189 23.0528 93.9109L23.0964 94.7429C24.0534 114.718 30.211 128.909 42.2065 139.912C43.4379 141.042 44.7265 142.139 46.0808 143.209L46.9014 143.847C47.7299 144.483 48.5827 145.109 49.4616 145.727L50.3492 146.343L51.2546 146.953C52.1691 147.561 53.1108 148.162 54.0816 148.756L55.0622 149.348C55.2273 149.447 55.3932 149.545 55.5599 149.643L56.5704 150.23C56.7405 150.327 56.9114 150.424 57.0832 150.522L58.1244 151.103C58.2997 151.2 58.4759 151.296 58.6529 151.393L59.7258 151.97L60.8204 152.545C61.0046 152.64 61.1898 152.736 61.3759 152.831L62.5036 153.402L63.654 153.971C63.8477 154.066 64.0423 154.16 64.2378 154.255L65.4229 154.822L66.6317 155.387L67.8645 155.951C68.072 156.045 68.2806 156.139 68.4901 156.233L69.7598 156.796L71.0545 157.359L72.3747 157.922C72.5969 158.015 72.8201 158.109 73.0445 158.203L74.4037 158.766L75.7893 159.329L77.2019 159.894L78.6418 160.459L80.1093 161.026C80.3562 161.12 80.6043 161.215 80.8536 161.31L82.3635 161.879L83.9021 162.45L85.4698 163.024L87.067 163.6C87.3357 163.696 87.6056 163.793 87.8768 163.889L89.519 164.469L91.1918 165.053L92.0398 165.346L91.7141 166.291L90.0175 165.703L88.3517 165.118L86.7164 164.537L85.1109 163.958L83.5351 163.381L81.9884 162.807L80.4704 162.234L78.9808 161.663L77.5191 161.094L76.0849 160.526C75.8482 160.431 75.6126 160.337 75.3781 160.242L73.9844 159.675L72.6173 159.108L71.2763 158.542C71.0549 158.448 70.8346 158.353 70.6154 158.259L69.3127 157.692C69.0977 157.598 68.8838 157.503 68.6708 157.409L67.4057 156.842L66.1649 156.273C65.9602 156.178 65.7564 156.084 65.5536 155.989L64.3488 155.419C63.9512 155.228 63.5574 155.038 63.1675 154.847L62.0092 154.273C61.6269 154.082 61.2484 153.89 60.8735 153.698L59.7601 153.12C59.5763 153.023 59.3935 152.927 59.2116 152.83L58.1307 152.248L57.071 151.663C56.8962 151.565 56.7222 151.467 56.549 151.369L55.5204 150.779C55.1809 150.582 54.8448 150.384 54.512 150.185L53.5233 149.587C52.7076 149.088 51.912 148.583 51.1355 148.074L50.2129 147.46C50.0606 147.357 49.9091 147.254 49.7583 147.151L48.8624 146.529L47.9839 145.902C47.2588 145.377 46.5515 144.845 45.8606 144.307L45.0395 143.658C44.904 143.549 44.7691 143.44 44.6348 143.331L43.8368 142.672C43.0463 142.009 42.2781 141.335 41.5305 140.649C29.4778 129.594 23.2167 115.363 22.1344 95.5108L22.0975 94.7908C20.7952 67.6111 7.86644 46.6794 -16.7261 31.9495L-17.4749 31.505L-16.9678 30.6431Z" fill="#4882D1"/>
<path d="M-24.9678 30.6431C0.143436 45.4143 13.496 66.5189 15.0528 93.9109L15.0964 94.7429C16.0534 114.718 22.211 128.909 34.2065 139.912C35.4379 141.042 36.7265 142.139 38.0808 143.209L38.9014 143.847C39.7299 144.483 40.5827 145.109 41.4616 145.727L42.3492 146.343L43.2546 146.953C44.1691 147.561 45.1108 148.162 46.0816 148.756L47.0622 149.348C47.2273 149.447 47.3932 149.545 47.5599 149.643L48.5704 150.23C48.7405 150.327 48.9114 150.424 49.0832 150.522L50.1244 151.103C50.2997 151.2 50.4759 151.296 50.6529 151.393L51.7258 151.97L52.8204 152.545C53.0046 152.64 53.1898 152.736 53.3759 152.831L54.5036 153.402L55.654 153.971C55.8477 154.066 56.0423 154.16 56.2378 154.255L57.4229 154.822L58.6317 155.387L59.8645 155.951C60.072 156.045 60.2806 156.139 60.4901 156.233L61.7598 156.796L63.0545 157.359L64.3747 157.922C64.5969 158.015 64.8201 158.109 65.0445 158.203L66.4037 158.766L67.7893 159.329L69.2019 159.894L70.6418 160.459L72.1093 161.026C72.3562 161.12 72.6043 161.215 72.8536 161.31L74.3635 161.879L75.9021 162.45L77.4698 163.024L79.067 163.6C79.3357 163.696 79.6056 163.793 79.8768 163.889L81.519 164.469L83.1918 165.053L84.0398 165.346L83.7141 166.291L82.0175 165.703L80.3517 165.118L78.7164 164.537L77.1109 163.958L75.5351 163.381L73.9884 162.807L72.4704 162.234L70.9808 161.663L69.5191 161.094L68.0849 160.526C67.8482 160.431 67.6126 160.337 67.3781 160.242L65.9844 159.675L64.6173 159.108L63.2763 158.542C63.0549 158.448 62.8346 158.353 62.6154 158.259L61.3127 157.692C61.0977 157.598 60.8838 157.503 60.6708 157.409L59.4057 156.842L58.1649 156.273C57.9602 156.178 57.7564 156.084 57.5536 155.989L56.3488 155.419C55.9512 155.228 55.5574 155.038 55.1675 154.847L54.0092 154.273C53.6269 154.082 53.2484 153.89 52.8735 153.698L51.7601 153.12C51.5763 153.023 51.3935 152.927 51.2116 152.83L50.1307 152.248L49.071 151.663C48.8962 151.565 48.7222 151.467 48.549 151.369L47.5204 150.779C47.1809 150.582 46.8448 150.384 46.512 150.185L45.5233 149.587C44.7076 149.088 43.912 148.583 43.1355 148.074L42.2129 147.46C42.0606 147.357 41.9091 147.254 41.7583 147.151L40.8624 146.529L39.9839 145.902C39.2588 145.377 38.5515 144.845 37.8606 144.307L37.0395 143.658C36.904 143.549 36.7691 143.44 36.6348 143.331L35.8368 142.672C35.0463 142.009 34.2781 141.335 33.5305 140.649C21.4778 129.594 15.2167 115.363 14.1344 95.5108L14.0975 94.7908C12.7952 67.6111 -0.133564 46.6794 -24.7261 31.9495L-25.4749 31.505L-24.9678 30.6431Z" fill="#4882D1"/>
</g>
<path d="M71.5302 117.937C60.9183 108.108 57.0852 83.251 57.0852 83.251L81.9189 44.605C81.9189 44.605 90.4221 53.4727 94.0734 60.1318C99.8649 70.6942 104.956 85.9591 105.525 93.9007C106.624 109.261 108.008 119.03 111.408 126.565C104.215 132.095 95.8368 136.151 86.7138 138.288C83.3417 132.362 77.8739 123.813 71.5302 117.937H71.5302Z" fill="white"/>
<rect x="44.9998" y="4" width="50" height="94" rx="6.2439" fill="#E8ECF0"/>
<rect x="46.9998" y="6" width="46" height="90" rx="6.2439" fill="#002F70"/>
<rect opacity="0.2" x="52.9998" y="46" width="34" height="9" rx="2" fill="white"/>
<circle opacity="0.2" cx="69.9998" cy="30" r="9" fill="white"/>
<path d="M87.6895 82.9034C80.777 70.6136 75.6882 68.9919 75.6882 68.9919C75.6882 68.9919 71.3416 71.3721 73.7399 78.1451C76.1381 84.918 82.2818 90.4896 82.2818 100.585C82.2818 110.68 77.8301 114.745 87.6895 122.99C97.549 131.234 100.175 95.6199 100.175 95.6199C100.175 95.6199 94.6021 95.1933 87.6895 82.9034Z" fill="#002F70"/>
<path d="M94.4636 82.5431C94.4636 82.5431 95.7732 94.0234 88.8607 81.7335C81.9481 69.4436 76.8593 67.822 76.8593 67.822C76.8593 67.822 72.5127 70.2022 74.911 76.9752C77.3093 83.7481 83.4529 89.3197 83.4529 99.4151C83.4529 109.511 78.32 115.156 88.1795 123.4C98.039 131.644 101.347 94.45 101.347 94.45L94.4636 82.5431Z" fill="white"/>
<path d="M76.8586 67.822C76.8586 67.822 76.0877 69.6614 78.3674 72.1725C80.6471 74.6836 83.2071 73.1414 83.2071 73.1414C83.2071 73.1414 81.1479 70.6996 79.7065 69.4918C78.2651 68.284 76.8586 67.822 76.8586 67.822H76.8586Z" fill="#74A0DC"/>
<path d="M91.9667 89.5381L88.9031 90.385" stroke="#002F70" stroke-width="0.780488" stroke-linecap="round"/>
<path d="M93.6472 89.9619L92.9021 91.8564" stroke="#002F70" stroke-width="0.780488" stroke-linecap="round"/>
<circle cx="99.9998" cy="25" r="24" fill="#44C8E9"/>
<rect x="89" y="19.4348" width="20.8696" height="20.8696" rx="9.73913" fill="white"/>
<circle cx="99.4347" cy="27.7826" r="2.78261" fill="#0BB8E4"/>
<rect x="98.3218" y="29.1738" width="2.22609" height="5.56522" rx="1.11304" fill="#0BB8E4"/>
<path d="M92.478 28.4783V15.9565C92.478 12.1145 95.5926 9 99.4345 9C102.56 9 105.203 11.0606 106.081 13.8973" stroke="white" stroke-width="2.22609" stroke-linecap="round"/>
<path d="M109.333 16.3694L111.991 14.948" stroke="white" stroke-width="1.94783" stroke-linecap="round"/>
<path d="M110.206 20.387L113.185 20.8772" stroke="white" stroke-width="1.94783" stroke-linecap="round"/>
</svg>
