<svg width="200" height="200" viewBox="0 0 200 200" fill="none" xmlns="http://www.w3.org/2000/svg">
<path d="M58.1538 108.164C57.3531 108.562 56.3822 108.219 56.0081 107.408L44.8327 83.1554C43.4756 80.8122 51.2907 81.3325 57.6219 85.3508C63.9532 89.3691 74.6871 99.4468 71.2399 101.666L58.1538 108.164Z" fill="#165762"/>
<path d="M146.302 194.282H142.412L142.988 190.276L142.995 190.201C143.014 189.791 142.722 189.437 142.315 189.379L142.239 189.372C142.226 189.371 142.213 189.371 142.2 189.371C141.81 189.371 141.474 189.663 141.418 190.051L140.818 194.232C136.807 193.781 133.783 190.393 133.783 186.352V172.079H155.986L154.176 187.29C153.806 190.394 151.639 192.999 148.655 193.926L148.81 190.196V190.12C148.787 189.71 148.46 189.389 148.05 189.372C148.039 189.371 148.027 189.371 148.016 189.371C147.591 189.371 147.243 189.705 147.225 190.13L147.055 194.247C146.802 194.27 146.549 194.282 146.302 194.282Z" fill="url(#paint0_linear)"/>
<path d="M82.4246 194.282H78.9992L79.6373 190.289L79.6454 190.213C79.6719 189.803 79.3856 189.445 78.9794 189.381C78.9375 189.374 78.895 189.371 78.853 189.371C78.462 189.371 78.1333 189.652 78.0713 190.039L77.3952 194.27C73.1954 194.04 69.9065 190.561 69.9065 186.352V172.079H92.1095L90.2987 187.29C89.9512 190.206 88.035 192.679 85.2978 193.744L85.4612 190.2V190.124C85.4411 189.714 85.1165 189.391 84.7061 189.372C84.6934 189.371 84.6807 189.371 84.668 189.371C84.2438 189.371 83.8964 189.703 83.8772 190.127L83.6903 194.181C83.2721 194.248 82.8465 194.282 82.4246 194.282Z" fill="url(#paint1_linear)"/>
<path d="M131.759 196.925H131.758H127.44C127.362 196.925 127.283 196.924 127.205 196.921L127.658 193.437L127.664 193.361C127.678 192.951 127.381 192.602 126.974 192.549L126.899 192.543C126.889 192.542 126.88 192.542 126.87 192.542C126.474 192.542 126.137 192.839 126.086 193.232L125.632 196.718C123.917 196.318 122.364 195.338 121.256 193.959C120.13 192.558 119.51 190.795 119.51 188.995V187.409H77.836C77.6848 187.409 77.5336 187.408 77.3833 187.407L77.0827 189.933C76.8882 191.565 76.2056 193.073 75.1087 194.293C74.0277 195.496 72.6288 196.33 71.0631 196.706L71.1886 193.364L71.1877 193.288C71.1639 192.878 70.8366 192.558 70.4263 192.543C70.4158 192.542 70.4053 192.542 70.3948 192.542C69.967 192.542 69.6195 192.877 69.6037 193.305L69.4679 196.921C69.3811 196.923 69.2939 196.925 69.2086 196.925H64.9134L65.3674 193.437L65.3737 193.361C65.3883 192.951 65.0916 192.602 64.6834 192.549L64.6078 192.543C64.5984 192.542 64.5889 192.542 64.5795 192.542C64.1834 192.542 63.8462 192.839 63.7951 193.232L63.3275 196.82C61.4928 196.519 59.8133 195.572 58.5973 194.153C57.3677 192.719 56.6905 190.887 56.6905 188.995V182.464C53.4999 180.878 50.4807 178.926 47.717 176.664C44.9684 174.414 42.468 171.852 40.2853 169.051C34.6956 162.27 12.5079 135.867 12.2854 135.602L23.9152 110.229L37.1398 115.173C41.3083 108.309 47.1902 102.564 54.1483 98.5619C57.677 96.5321 61.4537 94.9649 65.3737 93.9038C69.4156 92.8097 73.6085 92.2549 77.836 92.2549H122.153C128.576 92.2549 134.807 93.5128 140.672 95.9937C146.338 98.39 151.426 101.821 155.795 106.19C160.165 110.559 163.595 115.647 165.992 121.313C168.473 127.178 169.73 133.409 169.73 139.832C169.73 149.371 166.918 158.573 161.597 166.444C159.032 170.238 155.937 173.641 152.4 176.558C148.837 179.495 144.883 181.892 140.646 183.681L139.902 189.933C139.696 191.659 138.952 193.234 137.749 194.486C136.575 195.708 135.013 196.535 133.35 196.815L133.479 193.364L133.479 193.288C133.455 192.878 133.127 192.558 132.717 192.543C132.707 192.542 132.696 192.542 132.686 192.542C132.258 192.542 131.91 192.877 131.895 193.305L131.759 196.924L131.759 196.925Z" fill="url(#paint2_linear)"/>
<path d="M68.7258 103.406C67.9252 103.804 66.9543 103.461 66.5801 102.65L55.4047 78.3974C54.0476 76.0541 61.8627 76.5744 68.194 80.5927C74.5252 84.611 85.2591 94.6887 81.812 96.9079L68.7258 103.406Z" fill="url(#paint3_linear)"/>
<ellipse cx="47.724" cy="117.811" rx="2.11454" ry="5.81498" transform="rotate(25 47.724 117.811)" fill="#165762"/>
<path d="M12.2855 135.604C15.1823 137.199 21.2219 132.42 24.5355 125.916C27.8491 119.413 27.2661 111.012 23.9155 110.229C20.5648 109.447 16.8787 113.867 13.5651 120.371C10.2514 126.874 9.38871 134.008 12.2855 135.604Z" fill="url(#paint4_linear)"/>
<ellipse cx="17.0808" cy="122.221" rx="1.05727" ry="4.75771" transform="rotate(25 17.0808 122.221)" fill="#165762"/>
<ellipse cx="20.2517" cy="123.807" rx="1.05727" ry="4.75771" transform="rotate(25 20.2517 123.807)" fill="#165762"/>
<path d="M161.321 122.387C161.321 122.387 176.115 109.711 184.847 117.119C193.579 124.527 181.034 132.094 177.243 123.319C173.452 114.544 178.01 102.956 192.252 104.073" stroke="#419FB1" stroke-width="2.11454" stroke-linecap="round"/>
<path d="M36.2686 141.194C36.2686 141.194 45.3585 142.25 50.0666 137.317" stroke="#165762" stroke-width="2.11454" stroke-linecap="round"/>
<path d="M55.3885 108.075C55.3885 108.075 59.1016 110.592 59.1016 114.292" stroke="#165762" stroke-width="2.11454" stroke-linecap="round"/>
<rect x="87.9999" y="101" width="54" height="9" rx="4.5" fill="#187D8F"/>
<g opacity="0.9" filter="url(#filter0_d)">
<circle cx="115" cy="84" r="27" fill="#FEA200"/>
</g>
<path fill-rule="evenodd" clip-rule="evenodd" d="M113.5 97.5V94.7375C109.139 94.3523 106.344 92.2074 106 88.8798H110.309C110.733 90.134 111.805 91.0151 113.5 91.3396V85.4797L112.635 85.2888C108.486 84.3537 106.561 82.5771 106.561 79.4829C106.561 76.194 109.387 73.7716 113.5 73.2883V70.5H116.5V73.2683C120.581 73.6636 123.202 75.7542 123.579 79.0437H119.449C119.136 77.8467 118.107 76.9897 116.5 76.675V82.2853L117.906 82.596C122.056 83.5131 124 85.2123 124 88.2687C124 91.7866 120.909 94.2558 116.5 94.7206V97.5L113.5 97.5ZM116.5 91.357C118.401 91.0223 119.65 90.0145 119.65 88.6692C119.65 87.4389 118.646 86.6402 116.5 86.1424V91.357ZM110.81 79.2543C110.81 80.3502 111.67 81.0889 113.5 81.6018V76.7059C111.897 77.0669 110.81 78.001 110.81 79.2543V79.2543Z" fill="#E8F2FF"/>
<path d="M142 105.746C142 108.648 139.156 111 135.647 111H94.3528C90.8442 111 87.9999 108.648 87.9999 105.746C87.9999 105.117 88.1335 104.514 88.3786 103.955C89.2641 105.98 91.6047 107.424 94.3528 107.424H135.647C138.395 107.424 140.736 105.98 141.621 103.961C141.866 104.514 142 105.117 142 105.746Z" fill="url(#paint5_linear)"/>
<path d="M56.5597 26.277C56.5597 26.277 72.3028 39.1969 87.3046 42.6653L81.5085 56.1672C81.5085 56.1672 60.3556 52.9307 49.2499 40.5002L56.5597 26.277Z" fill="#98ECB6"/>
<path d="M56.9944 28.427C56.9944 28.427 71.7645 40.7337 85.7559 43.4412L80.2671 54.7739C80.2671 54.7739 60.6497 50.8332 50.9999 39.9164L56.9944 28.427Z" fill="#98ECB6"/>
<mask id="mask0" mask-type="alpha" maskUnits="userSpaceOnUse" x="50" y="28" width="36" height="27">
<path d="M56.9944 28.427C56.9944 28.427 71.7645 40.7337 85.7559 43.4412L80.2671 54.7739C80.2671 54.7739 60.6497 50.8332 50.9999 39.9164L56.9944 28.427Z" fill="black"/>
</mask>
<g mask="url(#mask0)">
<path d="M80.5536 42.0037C82.1602 40.7988 84.4084 40.9585 85.8284 42.3786C87.1347 43.6848 86.9811 45.8451 85.5033 46.9535L85.4465 46.9961C83.8398 48.2011 81.5917 48.0413 80.1716 46.6213C78.8654 45.315 79.0189 43.1547 80.4967 42.0464L80.5536 42.0037Z" fill="#6DC0A6"/>
<path d="M55.5536 28.0039C57.1602 26.7989 59.4084 26.9587 60.8284 28.3787C62.1347 29.6849 61.9811 31.8452 60.5033 32.9536L60.4465 32.9962C58.8398 34.2012 56.5917 34.0414 55.1716 32.6214C53.8654 31.3152 54.0189 29.1549 55.4967 28.0465L55.5536 28.0039Z" fill="#6DC0A6"/>
<path d="M76.5536 51.0037C78.1602 49.7988 80.4084 49.9585 81.8284 51.3786C83.1347 52.6848 82.9811 54.8451 81.5033 55.9535L81.4465 55.9961C79.8398 57.2011 77.5917 57.0413 76.1716 55.6213C74.8654 54.315 75.0189 52.1547 76.4967 51.0464L76.5536 51.0037Z" fill="#6DC0A6"/>
<path d="M49.0497 42.3739C48.2051 40.5519 48.8288 38.386 50.5131 37.2923C52.0624 36.2862 54.1435 36.8855 54.9204 38.5614L54.9503 38.6259C55.7949 40.448 55.1712 42.6138 53.4869 43.7076C51.9377 44.7137 49.8565 44.1144 49.0796 42.4384L49.0497 42.3739Z" fill="#6DC0A6"/>
<path d="M64.5536 41.0037C66.1602 39.7988 68.4084 39.9585 69.8284 41.3786C71.1347 42.6848 70.9811 44.8451 69.5033 45.9535L69.4465 45.9961C67.8398 47.2011 65.5917 47.0413 64.1716 45.6213C62.8654 44.315 63.0189 42.1547 64.4967 41.0464L64.5536 41.0037Z" fill="#6DC0A6"/>
</g>
<path d="M146.44 2.27698C146.44 2.27698 130.697 15.1969 115.695 18.6653L121.491 32.1672C121.491 32.1672 142.644 28.9307 153.75 16.5002L146.44 2.27698Z" fill="#98ECB6"/>
<path d="M146.005 4.427C146.005 4.427 131.235 16.7337 117.244 19.4412L122.733 30.7739C122.733 30.7739 142.35 26.8332 152 15.9164L146.005 4.427Z" fill="#98ECB6"/>
<mask id="mask1" mask-type="alpha" maskUnits="userSpaceOnUse" x="117" y="4" width="35" height="27">
<path d="M146.005 4.427C146.005 4.427 131.235 16.7337 117.244 19.4412L122.733 30.7739C122.733 30.7739 142.35 26.8332 152 15.9164L146.005 4.427Z" fill="black"/>
</mask>
<g mask="url(#mask1)">
<path d="M122.447 18.0038C120.84 16.7988 118.592 16.9586 117.172 18.3787C115.865 19.6849 116.019 21.8452 117.497 22.9535L117.554 22.9962C119.16 24.2011 121.408 24.0414 122.828 22.6213C124.135 21.3151 123.981 19.1548 122.503 18.0464L122.447 18.0038Z" fill="#6DC0A6"/>
<path d="M147.447 4.00379C145.84 2.79881 143.592 2.95859 142.172 4.37866C140.865 5.68488 141.019 7.84517 142.497 8.95353L142.554 8.99617C144.16 10.2011 146.408 10.0414 147.828 8.6213C149.135 7.31508 148.981 5.15479 147.503 4.04643L147.447 4.00379Z" fill="#6DC0A6"/>
<path d="M126.447 27.0039C124.84 25.7989 122.592 25.9587 121.172 27.3788C119.865 28.685 120.019 30.8453 121.497 31.9537L121.554 31.9963C123.16 33.2013 125.408 33.0415 126.828 31.6214C128.135 30.3152 127.981 28.1549 126.503 27.0465L126.447 27.0039Z" fill="#6DC0A6"/>
<path d="M153.95 18.374C154.795 16.552 154.171 14.3862 152.487 13.2924C150.938 12.2863 148.856 12.8856 148.08 14.5616L148.05 14.626C147.205 16.4481 147.829 18.6139 149.513 19.7077C151.062 20.7138 153.143 20.1145 153.92 18.4385L153.95 18.374Z" fill="#6DC0A6"/>
<path d="M138.447 17.0038C136.84 15.7988 134.592 15.9586 133.172 17.3787C131.865 18.6849 132.019 20.8452 133.497 21.9535L133.554 21.9962C135.16 23.2011 137.408 23.0414 138.828 21.6213C140.135 20.3151 139.981 18.1548 138.503 17.0464L138.447 17.0038Z" fill="#6DC0A6"/>
</g>
<defs>
<filter id="filter0_d" x="63.9999" y="45" width="102" height="102" filterUnits="userSpaceOnUse" color-interpolation-filters="sRGB">
<feFlood flood-opacity="0" result="BackgroundImageFix"/>
<feColorMatrix in="SourceAlpha" type="matrix" values="0 0 0 0 0 0 0 0 0 0 0 0 0 0 0 0 0 0 127 0"/>
<feOffset dy="12"/>
<feGaussianBlur stdDeviation="12"/>
<feColorMatrix type="matrix" values="0 0 0 0 0 0 0 0 0 0.321569 0 0 0 0 0.403922 0 0 0 0.321569 0"/>
<feBlend mode="normal" in2="BackgroundImageFix" result="effect1_dropShadow"/>
<feBlend mode="normal" in="SourceGraphic" in2="effect1_dropShadow" result="shape"/>
</filter>
<linearGradient id="paint0_linear" x1="133.783" y1="172.079" x2="133.783" y2="194.282" gradientUnits="userSpaceOnUse">
<stop stop-color="#3494A2"/>
<stop offset="1" stop-color="#2D879E"/>
</linearGradient>
<linearGradient id="paint1_linear" x1="69.9065" y1="172.079" x2="69.9065" y2="194.282" gradientUnits="userSpaceOnUse">
<stop stop-color="#3494A2"/>
<stop offset="1" stop-color="#2D879E"/>
</linearGradient>
<linearGradient id="paint2_linear" x1="12.2854" y1="92.2549" x2="12.2854" y2="196.925" gradientUnits="userSpaceOnUse">
<stop stop-color="#79E6F6"/>
<stop offset="1" stop-color="#44C8E9"/>
</linearGradient>
<linearGradient id="paint3_linear" x1="55.2495" y1="77" x2="55.2495" y2="103.572" gradientUnits="userSpaceOnUse">
<stop stop-color="#44C8E9"/>
<stop offset="1" stop-color="#21A3B6"/>
</linearGradient>
<linearGradient id="paint4_linear" x1="19.8298" y1="108.075" x2="7.13885" y2="132.983" gradientUnits="userSpaceOnUse">
<stop stop-color="#44C8E9"/>
<stop offset="1" stop-color="#21A3B6"/>
</linearGradient>
<linearGradient id="paint5_linear" x1="87.9999" y1="103.955" x2="87.9999" y2="111" gradientUnits="userSpaceOnUse">
<stop stop-color="#44C8E9"/>
<stop offset="1" stop-color="#21A3B6"/>
</linearGradient>
</defs>
</svg>
