<svg width="124" height="124" viewBox="0 0 124 124" fill="none" xmlns="http://www.w3.org/2000/svg">
<g clip-path="url(#clip0)">
<g filter="url(#filter0_d)">
<rect width="124" height="124" rx="62" fill="url(#paint0_linear)"/>
</g>
<path fill-rule="evenodd" clip-rule="evenodd" d="M107.427 68.49C107.344 68.3052 107.226 68.1377 107.08 67.9984L107.089 67.9885L99.8495 60.7492C96.2996 57.1947 92.1375 54.3106 87.5633 52.2349L77.4119 47.6206L71.4044 41.613C71.1142 41.3221 70.7203 41.1577 70.3089 41.157H60.2242C58.0818 41.157 56.3455 42.8933 56.3455 45.0357C56.3455 47.1781 58.0818 48.9145 60.2242 48.9145H65.6544V52.6099L60.634 55.1205H29.5496C27.2125 55.1235 25.3178 57.0174 25.3156 59.3545V60.0401C25.3125 61.1234 25.6898 62.1742 26.383 63.0067L22.9883 67.5324H19.1096C16.5391 67.5324 14.4551 69.6165 14.4551 72.1869C14.4551 74.7574 16.5391 76.8414 19.1096 76.8414H96.5747C99.0444 76.8482 101.414 75.8672 103.156 74.1157L107.09 70.1809C107.534 69.737 107.667 69.0695 107.427 68.49L107.427 68.49ZM78.98 63.2492C83.4126 62.0363 88.1049 62.1666 92.4624 63.6227L95.9533 64.7863C97.8662 65.4287 99.6715 66.3537 101.309 67.5325H66.6089C70.6361 65.8393 74.7687 64.409 78.98 63.2492L78.98 63.2492ZM96.1813 61.5916L93.445 60.6795C89.0344 59.2083 84.3125 58.9333 79.7603 59.8818L75.8944 56.9826C75.2088 56.4682 74.2361 56.6068 73.7225 57.2924C73.2081 57.978 73.3467 58.9507 74.0323 59.4651L75.9656 60.9136C73.8088 61.5545 71.671 62.256 69.5566 63.0348L63.6188 57.097L76.5475 50.6334L86.2799 55.0569C89.8973 56.7129 93.2367 58.9174 96.1813 61.5916V61.5916ZM60.2242 45.8115C59.7954 45.8115 59.4485 45.4645 59.4485 45.0357C59.4485 44.6077 59.7954 44.26 60.2242 44.26H65.6545V45.8115H60.2242ZM68.7574 44.26H69.6665L73.896 48.4895L68.7574 51.0584V44.26ZM28.4185 59.3545C28.4193 58.7303 28.9253 58.2242 29.5496 58.2235H60.3574L66.399 64.2651C63.9241 65.2703 61.4779 66.3423 59.09 67.5325H51.8939L29.2207 61.4818L28.873 61.134C28.5828 60.8439 28.4192 60.4507 28.4184 60.0401L28.4185 59.3545ZM29.039 64.6469L39.8517 67.5325H26.867L29.039 64.6469ZM100.97 71.9218C99.8063 73.0907 98.2229 73.7453 96.5745 73.7385H19.1093C18.2525 73.7385 17.5578 73.0438 17.5578 72.187C17.5578 71.3301 18.2525 70.6355 19.1093 70.6355H102.248L100.97 71.9218Z" fill="white"/>
</g>
<defs>
<filter id="filter0_d" x="-24" y="-16" width="172" height="172" filterUnits="userSpaceOnUse" color-interpolation-filters="sRGB">
<feFlood flood-opacity="0" result="BackgroundImageFix"/>
<feColorMatrix in="SourceAlpha" type="matrix" values="0 0 0 0 0 0 0 0 0 0 0 0 0 0 0 0 0 0 127 0"/>
<feOffset dy="8"/>
<feGaussianBlur stdDeviation="12"/>
<feColorMatrix type="matrix" values="0 0 0 0 0 0 0 0 0 0 0 0 0 0 0 0 0 0 0.160784 0"/>
<feBlend mode="normal" in2="BackgroundImageFix" result="effect1_dropShadow"/>
<feBlend mode="normal" in="SourceGraphic" in2="effect1_dropShadow" result="shape"/>
</filter>
<linearGradient id="paint0_linear" x1="0" y1="0" x2="0" y2="124" gradientUnits="userSpaceOnUse">
<stop stop-color="#8AB7F4"/>
<stop offset="1" stop-color="#2E78DC"/>
</linearGradient>
<clipPath id="clip0">
<rect width="124" height="124" fill="white"/>
</clipPath>
</defs>
</svg>
