<svg width="150" height="30" viewBox="0 0 150 30" fill="none" xmlns="http://www.w3.org/2000/svg">
<g clip-path="url(#clip0)">
<path fill-rule="evenodd" clip-rule="evenodd" d="M7.1075 4.10699V8.01095L3.55375 11.4617L0 14.9125L3.65676 18.5177L7.32382 22.123L7.34442 25.9651L7.36502 29.797L14.8125 22.3496L22.2599 14.8919L15.2245 8.05218C11.3514 4.29238 7.94186 0.985833 7.65344 0.707733L7.1075 0.203003V4.10699ZM10.8055 11.4411C12.742 13.2746 14.318 14.8095 14.318 14.8404C14.318 14.8816 12.7214 16.5091 10.7849 18.4456L7.24141 21.989L7.17961 17.3228C7.0766 10.8231 7.0869 8.0419 7.20021 8.08306C7.26201 8.09334 8.87923 9.61791 10.8055 11.4411L10.8055 11.4411Z" fill="white"/>
<path d="M145.043 9.50991L145.527 9.55111V10.7872C145.527 11.5391 145.569 12.013 145.63 12.013C145.692 12.013 145.734 11.5391 145.734 10.7872V9.55111L146.228 9.50991C146.496 9.4893 146.228 9.479 145.63 9.479C145.033 9.479 144.765 9.4893 145.043 9.50991Z" fill="white"/>
<path d="M147.093 10.7462L147.114 12.0647L147.165 10.8801L147.227 9.69552L147.69 10.2826C147.948 10.602 148.185 10.8698 148.226 10.8698C148.267 10.8801 148.494 10.6226 148.741 10.3136L149.184 9.74701L149.215 10.8801C149.256 12.4664 149.442 12.3428 149.442 10.7256C149.442 10.0148 149.4 9.43799 149.349 9.43799C149.298 9.43799 149.06 9.68521 148.813 9.97362C148.576 10.2724 148.339 10.5608 148.298 10.602C148.267 10.6535 148.01 10.4166 147.742 10.087C147.474 9.75732 147.217 9.46891 147.165 9.45861C147.114 9.438 147.083 10.0045 147.093 10.7462L147.093 10.7462Z" fill="white"/>
<path d="M31.7042 9.6745C31.0655 9.84963 30.3651 10.3544 29.8912 10.9827L29.4895 11.508L29.4586 10.6325L29.4277 9.7466H28.923H28.408V14.897V20.0473H28.923H29.438V16.3803V12.7132L29.8089 12.2085C30.0046 11.9304 30.3857 11.5183 30.6432 11.2917C31.766 10.3132 33.5583 10.3647 34.4339 11.4153C35.1652 12.2806 35.3095 13.2386 35.3095 17.1837V20.0473H35.8245H36.3395V16.5142V12.9811L36.6382 12.5072C37.0915 11.7965 37.658 11.2093 38.1834 10.9003C38.5851 10.6634 38.7705 10.6222 39.4297 10.6222C40.7173 10.6325 41.4899 11.2093 41.9225 12.5278C42.1285 13.1459 42.1491 13.4652 42.1903 16.6172L42.2315 20.0474H42.7363H43.241V16.6172C43.241 12.9811 43.1689 12.26 42.726 11.405C42.3963 10.7458 41.8401 10.1896 41.2015 9.88053C40.6864 9.63331 40.4907 9.59211 39.6872 9.59211C38.8838 9.59211 38.6881 9.63331 38.1833 9.88053C37.6374 10.1483 36.9266 10.8076 36.3292 11.6008L36.0614 11.9613L35.8245 11.4978C35.1858 10.2308 34.3 9.6333 32.9506 9.57152C32.5179 9.56121 31.9617 9.6024 31.7042 9.6745Z" fill="white"/>
<path fill-rule="evenodd" clip-rule="evenodd" d="M49.1947 9.70508C48.3191 9.9111 47.598 10.3128 46.8874 11.003C45.816 12.0227 45.301 13.2897 45.301 14.8966C45.301 16.4006 45.8058 17.6778 46.7946 18.6667C47.8247 19.7071 49.0092 20.1809 50.5338 20.1706C51.9553 20.1603 53.0369 19.7586 54.0257 18.8727C55.0352 17.956 55.5709 16.8023 55.6739 15.2881C55.7872 13.6091 55.3237 12.2494 54.2627 11.1472C53.9124 10.7867 53.3665 10.3437 53.0369 10.1686C51.9141 9.57117 50.4514 9.39603 49.1947 9.70508H49.1947ZM52.0171 10.869C52.872 11.1987 53.6549 11.9506 54.1184 12.888C54.4378 13.5369 54.4996 13.7739 54.5408 14.5567C54.685 16.9568 53.2738 18.8109 51.09 19.1199C49.2771 19.3671 47.6084 18.4607 46.8255 16.792C46.4547 15.9988 46.3208 14.6391 46.5268 13.7945C46.7946 12.7335 47.526 11.6931 48.3706 11.1677C49.3801 10.5394 50.8531 10.4261 52.0171 10.869L52.0171 10.869Z" fill="white"/>
<path d="M61.2156 9.68492C60.4946 9.91153 60.1753 10.1278 59.5263 10.8386L58.8979 11.5288V10.6326V9.74673H58.383H57.8679V14.8971V20.0475H58.383H58.8979V16.401V12.7546L59.3512 12.1468C60.0311 11.2095 60.8552 10.715 61.8749 10.612C63.2037 10.4678 64.1307 10.9519 64.687 12.085L65.0269 12.7855L65.0578 16.4113L65.0887 20.0475H65.6037H66.1188L66.0879 16.2053C66.057 12.5073 66.0468 12.3528 65.8201 11.7966C65.5522 11.127 65.0064 10.4472 64.4501 10.097C63.6363 9.59221 62.1324 9.39653 61.2156 9.68494L61.2156 9.68492Z" fill="white"/>
<path fill-rule="evenodd" clip-rule="evenodd" d="M71.6715 9.70575C70.1058 10.1281 68.8801 11.426 68.4268 13.1565C68.2311 13.8981 68.2311 15.6184 68.4268 16.3909C68.9624 18.4202 70.6312 19.9241 72.6089 20.1404C74.0716 20.2949 75.421 20.0168 76.6159 19.306L77.1824 18.9661L77.2134 18.3687C77.234 18.0493 77.2134 17.7815 77.1721 17.7815C77.1309 17.7815 76.9455 17.8948 76.7498 18.039C76.1524 18.5026 74.9472 19.0073 74.2158 19.1103C71.7025 19.4605 69.5187 17.7403 69.3333 15.2578L69.2715 14.4853H73.3609H77.44V14.0424C77.44 13.4964 77.1927 12.5282 76.9146 11.9307C76.6159 11.3127 75.8021 10.4577 75.2047 10.1281C74.154 9.56154 72.815 9.39674 71.6715 9.70575H71.6715ZM74.4218 10.9212C75.0708 11.2509 75.627 11.8792 75.8949 12.6106C76.3068 13.7127 76.6262 13.6097 72.8355 13.6406C69.0242 13.6715 69.2921 13.754 69.8071 12.6724C70.5076 11.1891 71.5685 10.5298 73.124 10.6122C73.7008 10.6431 74.0407 10.7255 74.4218 10.9213L74.4218 10.9212Z" fill="white"/>
<path d="M92.3145 9.72636C91.6656 9.95298 91.0372 10.4371 90.6046 11.0552L90.2646 11.5187L90.2337 10.6328L90.2029 9.74697H89.6467H89.0801V14.8973V20.0477H89.6467H90.2131V16.3807V12.7239L90.5119 12.2913C91.0063 11.5702 91.7686 10.9316 92.366 10.7256C93.53 10.3444 94.7764 10.7359 95.3738 11.6835C95.9507 12.59 95.9816 12.8578 95.9816 16.6176V20.0477H96.548H97.1146V16.4837V12.9299L97.434 12.4458C97.9079 11.7453 98.5465 11.1067 99.0203 10.8492C99.3397 10.6741 99.6177 10.6226 100.215 10.6226C100.905 10.6226 101.05 10.6535 101.503 10.9316C102.09 11.3024 102.605 12.075 102.77 12.8578C102.842 13.1565 102.883 14.7428 102.883 16.7V20.0477H103.46H104.037L103.995 16.3601C103.954 12.9093 103.934 12.6415 103.728 12.0132C103.161 10.3341 101.802 9.41738 100.102 9.57189C99.2058 9.65429 98.5465 9.98391 97.8667 10.7153C97.5371 11.0655 97.1765 11.4775 97.0529 11.6423L96.8469 11.9514L96.5173 11.3642C95.8272 10.1281 95.0236 9.63369 93.6639 9.57189C93.0563 9.54098 92.706 9.58219 92.3145 9.72639L92.3145 9.72636Z" fill="white"/>
<path fill-rule="evenodd" clip-rule="evenodd" d="M109.949 9.70505C108.146 10.1377 106.715 11.5695 106.23 13.403C106.148 13.7429 106.076 14.4125 106.076 14.8966C106.076 16.5242 106.529 17.6366 107.611 18.7079C108.672 19.7586 109.702 20.1603 111.298 20.1706C112.751 20.1706 113.966 19.6865 114.945 18.7182C116.222 17.4306 116.737 15.5456 116.325 13.609C116.109 12.6202 115.738 11.8991 115.027 11.1472C113.76 9.78747 111.844 9.24153 109.949 9.70505H109.949ZM112.473 10.7763C113.626 11.1369 114.584 12.0433 115.048 13.2176C115.388 14.0623 115.388 15.7207 115.058 16.5447C114.564 17.7705 113.493 18.7388 112.328 19.0272C110.155 19.5526 108.085 18.4092 107.415 16.3181C107.219 15.7413 107.188 15.4529 107.23 14.6185C107.261 13.7429 107.312 13.5163 107.601 12.9189C108.507 11.0441 110.505 10.1583 112.473 10.7763V10.7763Z" fill="white"/>
<path fill-rule="evenodd" clip-rule="evenodd" d="M130.179 9.70546C128.634 10.1175 127.377 11.436 126.934 13.1047C126.718 13.8979 126.718 15.5872 126.934 16.3803C127.48 18.4405 129.129 19.9238 131.116 20.1401C132.579 20.2946 133.928 20.0165 135.123 19.3058L135.69 18.9658L135.721 18.3169L135.752 17.6679L135.247 18.0285C134.021 18.9143 132.621 19.3057 131.384 19.11C129.448 18.8113 127.985 17.225 127.841 15.2575L127.779 14.485H131.868H135.947V14.042C135.947 13.0017 135.443 11.7553 134.701 10.9415C133.62 9.75694 131.827 9.26251 130.179 9.70544V9.70546ZM132.929 10.921C133.578 11.2506 134.134 11.8789 134.402 12.6103C134.814 13.7124 135.134 13.6094 131.343 13.6404C127.532 13.6713 127.8 13.7537 128.315 12.6721C129.015 11.1888 130.076 10.5295 131.631 10.6119C132.208 10.6428 132.548 10.7253 132.929 10.921L132.929 10.921Z" fill="white"/>
<path d="M139.646 9.70598C138.925 9.92229 138.204 10.4579 137.854 11.0245C137.607 11.4365 137.545 11.6631 137.514 12.2606C137.483 12.8786 137.514 13.064 137.72 13.4555C138.06 14.0838 138.771 14.5988 140.017 15.1139C141.521 15.7319 142.18 16.0925 142.428 16.4015C143.066 17.2152 142.809 18.3586 141.882 18.8324C140.81 19.3887 139.626 19.2445 137.514 18.3277C137.411 18.2865 137.391 18.3998 137.411 18.8221L137.442 19.3784L138.225 19.7183C140.1 20.5115 142.057 20.2745 143.097 19.1209C143.612 18.544 143.777 18.1217 143.777 17.3388C143.777 15.9791 143.025 15.1551 141.109 14.4237C139.77 13.9087 139.358 13.6924 138.956 13.3216C138.153 12.5593 138.369 11.4262 139.43 10.8596C140.398 10.3343 141.336 10.3961 142.675 11.076L143.468 11.488V10.9318V10.3652L142.953 10.1077C141.872 9.56176 140.604 9.40728 139.646 9.70598H139.646Z" fill="white"/>
<path d="M78.2019 9.92207C78.2431 10.0251 79.201 11.8895 80.3444 14.0732L82.4149 18.0391L80.5916 21.6752L78.7787 25.3114L79.3556 25.2805L79.9324 25.2496L83.7333 17.5755C85.8141 13.3522 87.524 9.87056 87.5344 9.81908C87.5344 9.77787 87.2973 9.74695 87.009 9.74695H86.4836L84.7428 13.311C83.7436 15.3403 82.9505 16.8442 82.899 16.7927C82.8475 16.7412 82.0028 15.1445 81.0243 13.2492L79.2216 9.79845L78.6757 9.76755C78.1916 9.73667 78.1401 9.75725 78.2019 9.92208L78.2019 9.92207Z" fill="white"/>
<path d="M119.044 15.0003L121.372 20.2537H121.692C121.877 20.2537 122.042 20.1919 122.073 20.1198C122.32 19.5018 126.379 9.91178 126.43 9.83968C126.461 9.78815 126.234 9.74695 125.935 9.74695H125.39L123.587 13.9806C122.588 16.3085 121.733 18.2245 121.692 18.2245C121.64 18.2348 121.166 17.2768 120.631 16.0819C120.095 14.887 119.24 12.9814 118.725 11.8277L117.798 9.74696H117.252H116.706L119.044 15.0003Z" fill="white"/>
</g>
<defs>
<clipPath id="clip0">
<rect width="149.442" height="29.594" fill="white" transform="translate(0 0.203003)"/>
</clipPath>
</defs>
</svg>
