<svg width="124" height="124" viewBox="0 0 124 124" fill="none" xmlns="http://www.w3.org/2000/svg">
<g clip-path="url(#clip0)">
<g filter="url(#filter0_d)">
<rect width="124" height="124" rx="62" fill="url(#paint0_linear)"/>
</g>
<g clip-path="url(#clip1)">
<g clip-path="url(#clip2)">
<path fill-rule="evenodd" clip-rule="evenodd" d="M83.2411 67.166C79.7768 63.7016 75.6145 61.1896 71.0721 59.757C71.8672 59.2106 72.6195 58.5895 73.319 57.8951C76.3811 54.8557 78.0676 50.8057 78.0676 46.4913V32.5193C78.0676 29.0525 75.247 26.2319 71.7802 26.2319H52.2194C48.7525 26.2319 45.932 29.0525 45.932 32.5193V46.316C45.932 51.8768 48.7303 56.8099 52.9778 59.7411C48.4158 61.171 44.2356 63.6888 40.7584 67.166C35.0847 72.8397 31.96 80.3833 31.96 88.4073V97.7686H92.0396V88.4073C92.0396 80.3833 88.9149 72.8397 83.2411 67.166V67.166ZM50.1236 32.5193C50.1236 31.3637 51.0637 30.4235 52.2194 30.4235H61.9998H71.7802C72.9358 30.4235 73.8759 31.3637 73.8759 32.5193V34.6151H67.9267C67.0615 32.1759 64.732 30.4235 61.9997 30.4235C59.2675 30.4235 56.938 32.1759 56.0728 34.6151H50.1235L50.1236 32.5193ZM64.0956 36.7109C64.0956 37.8666 63.1554 38.8067 61.9998 38.8067C60.8441 38.8067 59.904 37.8666 59.904 36.7109C59.904 35.5553 60.8441 34.6151 61.9998 34.6151C63.1554 34.6151 64.0956 35.5553 64.0956 36.7109ZM50.1236 46.316V38.8067H56.0728C56.938 41.246 59.2675 42.9983 61.9998 42.9983C64.732 42.9983 67.0615 41.246 67.9267 38.8067H73.876V46.4913C73.876 49.6802 72.6295 52.6737 70.3661 54.9204C68.1029 57.1667 65.0971 58.3846 61.9094 58.3671C55.4106 58.3191 50.1236 52.9129 50.1236 46.316H50.1236ZM59.904 93.577H36.1516V88.4073C36.1516 78.1019 42.2146 69.1869 50.9602 65.0386L59.904 73.9825V93.577ZM55.2928 63.4434C57.4326 62.8679 59.6807 62.5591 61.9998 62.5591C64.3152 62.5591 66.5599 62.8669 68.6968 63.4408L61.9935 70.1441L55.2928 63.4434ZM87.848 93.577H64.0956V73.9698L73.0306 65.0346C81.7809 69.181 87.848 78.0984 87.848 88.4073L87.848 93.577Z" fill="white"/>
</g>
</g>
</g>
<defs>
<filter id="filter0_d" x="-24" y="-16" width="172" height="172" filterUnits="userSpaceOnUse" color-interpolation-filters="sRGB">
<feFlood flood-opacity="0" result="BackgroundImageFix"/>
<feColorMatrix in="SourceAlpha" type="matrix" values="0 0 0 0 0 0 0 0 0 0 0 0 0 0 0 0 0 0 127 0"/>
<feOffset dy="8"/>
<feGaussianBlur stdDeviation="12"/>
<feColorMatrix type="matrix" values="0 0 0 0 0 0 0 0 0 0 0 0 0 0 0 0 0 0 0.160784 0"/>
<feBlend mode="normal" in2="BackgroundImageFix" result="effect1_dropShadow"/>
<feBlend mode="normal" in="SourceGraphic" in2="effect1_dropShadow" result="shape"/>
</filter>
<linearGradient id="paint0_linear" x1="0" y1="0" x2="0" y2="124" gradientUnits="userSpaceOnUse">
<stop stop-color="#8AB7F4"/>
<stop offset="1" stop-color="#2E78DC"/>
</linearGradient>
<clipPath id="clip0">
<rect width="124" height="124" fill="white"/>
</clipPath>
<clipPath id="clip1">
<rect width="60.0796" height="71.5366" fill="white" transform="translate(31.96 26.2319)"/>
</clipPath>
<clipPath id="clip2">
<rect width="60.0796" height="71.5366" fill="white" transform="translate(31.96 26.2319)"/>
</clipPath>
</defs>
</svg>
