<svg width="240" height="160" viewBox="0 0 240 160" fill="none" xmlns="http://www.w3.org/2000/svg">
<circle cx="120" cy="87" r="68" fill="url(#paint0_linear)"/>
<circle cx="120" cy="87" r="60" fill="url(#paint1_linear)"/>
<path d="M120 147C108.141 147 96.6742 143.546 86.8391 137.011C95.0268 140.985 103.828 143 113 143C146.084 143 173 116.084 173 83.0005C173 62.8491 162.965 44.1521 146.156 32.9861C156.149 37.8338 164.598 45.3524 170.591 54.7274C176.747 64.3572 180 75.517 180 87.0001C180 95.1001 178.414 102.958 175.285 110.355C172.263 117.5 167.937 123.916 162.427 129.427C156.916 134.937 150.5 139.263 143.355 142.285C135.958 145.414 128.1 147 120 147Z" fill="url(#paint2_linear)"/>
<path d="M160.676 38.9996L164.583 30.9445C165.754 28.5317 168.2 26.9996 170.882 26.9996H174.482C177.31 26.9996 179.861 25.2977 180.946 22.686L183.507 16.5249" stroke="#707070" stroke-width="4"/>
<circle opacity="0.72" cx="86.0002" cy="13" r="5" fill="url(#paint3_linear)"/>
<rect opacity="0.8" x="62.2559" y="142.919" width="8" height="8" rx="2" transform="rotate(-12 62.2559 142.919)" fill="url(#paint4_linear)"/>
<circle cx="99.5002" cy="22.5" r="2.5" fill="url(#paint5_linear)"/>
<path d="M188 51.4851C188 51.4851 191.535 50.778 193.657 48.6567C195.778 46.5354 196.485 42.9998 196.485 42.9998C196.485 42.9998 197.192 46.5354 199.313 48.6567C201.435 50.778 204.97 51.4851 204.97 51.4851C204.97 51.4851 201.435 52.1922 199.313 54.3135C197.192 56.4349 196.485 59.9704 196.485 59.9704C196.485 59.9704 195.778 56.4349 193.657 54.3135C191.535 52.1922 188 51.4851 188 51.4851Z" fill="url(#paint6_linear)"/>
<path d="M91.0002 152.485C91.0002 152.485 93.3573 152.014 94.7715 150.599C96.1857 149.185 96.6571 146.828 96.6571 146.828C96.6571 146.828 97.1285 149.185 98.5427 150.599C99.9569 152.014 102.314 152.485 102.314 152.485C102.314 152.485 99.9569 152.957 98.5427 154.371C97.1285 155.785 96.6571 158.142 96.6571 158.142C96.6571 158.142 96.1857 155.785 94.7715 154.371C93.3573 152.957 91.0002 152.485 91.0002 152.485Z" fill="url(#paint7_linear)"/>
<circle cx="43.0002" cy="100" r="3" fill="url(#paint8_linear)"/>
<path opacity="0.8" d="M23.8368 46.1172C23.8368 46.1172 35.0111 39.9707 42.5628 47.5919C45.063 50.1151 47.9416 51.5475 51.1986 51.8892" stroke="#707070" stroke-width="4"/>
<path opacity="0.4" d="M231.718 89.7883C231.718 89.7883 222.515 80.9592 213.249 86.3662C210.18 88.1563 207.029 88.7949 203.795 88.2819" stroke="#707070" stroke-width="4"/>
<path d="M175 115.701C175 115.701 185.095 112.791 192.014 122.671" stroke="#707070" stroke-width="4"/>
<path opacity="0.4" d="M9.33921 79.8719C9.33921 79.8719 18.0411 85.7597 27.6744 78.5005" stroke="#707070" stroke-width="4"/>
<path d="M95.0002 92.7826L108.42 106C108.42 106 117.047 95.1519 126.2 86.1364C135.354 77.1208 147 68 147 68" stroke="#FCFEFF" stroke-width="6" stroke-linecap="round" stroke-linejoin="round"/>
<path d="M159.644 20C159.644 20 162.291 9.58013 158.571 4" stroke="#707070" stroke-width="4"/>
<defs>
<linearGradient id="paint0_linear" x1="52" y1="19" x2="52" y2="155" gradientUnits="userSpaceOnUse">
<stop stop-color="#E5F9FE"/>
<stop offset="1" stop-color="#78CBE3"/>
</linearGradient>
<linearGradient id="paint1_linear" x1="60.0002" y1="27" x2="60.0002" y2="147" gradientUnits="userSpaceOnUse">
<stop stop-color="#79E6F6"/>
<stop offset="1" stop-color="#44C8E9"/>
</linearGradient>
<linearGradient id="paint2_linear" x1="86.8391" y1="32.9861" x2="86.8391" y2="147" gradientUnits="userSpaceOnUse">
<stop stop-color="#44C8E9"/>
<stop offset="1" stop-color="#33A4B5"/>
</linearGradient>
<linearGradient id="paint3_linear" x1="81.0002" y1="8" x2="81.0002" y2="18" gradientUnits="userSpaceOnUse">
<stop stop-color="#FFCEB7"/>
<stop offset="1" stop-color="#FFA080"/>
</linearGradient>
<linearGradient id="paint4_linear" x1="62.2559" y1="142.919" x2="62.2559" y2="150.919" gradientUnits="userSpaceOnUse">
<stop stop-color="#FCBBBC"/>
<stop offset="1" stop-color="#F88587"/>
</linearGradient>
<linearGradient id="paint5_linear" x1="97.0002" y1="20" x2="97.0002" y2="25" gradientUnits="userSpaceOnUse">
<stop stop-color="#80D7E6"/>
<stop offset="1" stop-color="#49AEC9"/>
</linearGradient>
<linearGradient id="paint6_linear" x1="188" y1="51.4851" x2="196.485" y2="59.9704" gradientUnits="userSpaceOnUse">
<stop stop-color="#CCC6FF"/>
<stop offset="1" stop-color="#9D94FF"/>
</linearGradient>
<linearGradient id="paint7_linear" x1="91.0002" y1="152.485" x2="96.6571" y2="158.142" gradientUnits="userSpaceOnUse">
<stop stop-color="#FFDB62"/>
<stop offset="1" stop-color="#FEB533"/>
</linearGradient>
<linearGradient id="paint8_linear" x1="40.0002" y1="97" x2="40.0002" y2="103" gradientUnits="userSpaceOnUse">
<stop stop-color="#00C5DD"/>
<stop offset="1" stop-color="#0093B9"/>
</linearGradient>
</defs>
</svg>
