<svg width="36" height="36" viewBox="0 0 36 36" fill="none" xmlns="http://www.w3.org/2000/svg">
<rect width="36" height="36" rx="18" fill="#1C9ABB"/>
<path d="M25.8957 9.87501H12.7308C11.3607 9.87501 10.25 10.9043 10.25 12.1739C10.25 12.1739 11 17.0272 11 19.4538C11 21.8804 10.25 26.7337 10.25 26.7337C10.25 27.1569 10.6202 27.5 11.0769 27.5L14.1779 26.3505L17.2788 27.5L20.3798 26.3505L23.4808 27.5C23.9375 27.5 24.1077 27.1382 24.3077 26.7337C24.3077 26.7337 25.0577 24.4817 25.0577 20.3628L24.4209 11.459C24.3597 10.6031 25.0376 9.875 25.8957 9.875L25.8957 9.87501Z" stroke="white" stroke-width="1.6" stroke-linecap="round" stroke-linejoin="round"/>
<path d="M24.5004 11.3902C24.4058 10.5836 25.0362 9.875 25.8484 9.875C26.7217 9.875 27.4601 10.5216 27.5753 11.3873L28.0728 15.125C28.0728 15.125 27.1353 15.125 26.1978 15.125C25.2603 15.125 24.9381 15.125 24.9381 15.125L24.5004 11.3902Z" fill="white" fill-opacity="0.560784" stroke="white" stroke-width="1.6" stroke-linecap="round" stroke-linejoin="round"/>
<path fill-rule="evenodd" clip-rule="evenodd" d="M17.5631 21.875V21.1844C16.473 21.0881 15.7739 20.5517 15.688 19.7197H16.7653C16.8714 20.0333 17.1394 20.2536 17.5631 20.3347V18.8699L17.3465 18.822C16.3097 18.5884 15.8284 18.1443 15.8284 17.3707C15.8284 16.5484 16.535 15.9427 17.5631 15.822V15.125H18.3131V15.8171C19.3333 15.9159 19.9885 16.4384 20.0829 17.2607H19.0502C18.9719 16.9618 18.7149 16.7475 18.3131 16.6688V18.0713L18.6647 18.149C19.7022 18.3785 20.1882 18.8031 20.1882 19.5672C20.1882 20.4466 19.4155 21.0639 18.3131 21.1801V21.875H17.5631ZM18.3131 20.3391C18.7883 20.2555 19.1008 20.0038 19.1008 19.6671C19.1008 19.3599 18.8494 19.1603 18.3131 19.0358V20.3391ZM16.8908 17.3133C16.8908 17.5875 17.1057 17.7722 17.5631 17.9005V16.6764C17.1625 16.7666 16.8908 17.0001 16.8908 17.3133Z" fill="white"/>
</svg>
