<svg width="54" height="48" viewBox="0 0 54 48" fill="none" xmlns="http://www.w3.org/2000/svg">
<circle cx="24" cy="24" r="24" fill="#0093B9"/>
<mask id="mask0" mask-type="alpha" maskUnits="userSpaceOnUse" x="0" y="0" width="48" height="48">
<circle cx="24" cy="24" r="24" fill="black"/>
</mask>
<g mask="url(#mask0)">
<rect opacity="0.12" x="23" y="24" width="30" height="33" rx="2" fill="black"/>
<circle opacity="0.12" cx="14" cy="8" r="12" stroke="black" stroke-width="6"/>
<path d="M20.3134 17.9321C20.0424 18.0667 19.7138 17.9508 19.5872 17.676L15.8047 9.46759C15.3454 8.67449 17.9905 8.85059 20.1334 10.2106C22.2763 11.5707 25.9093 14.9816 24.7426 15.7327L20.3134 17.9321Z" fill="#3E7583"/>
<path d="M46.7643 47.0809H45.4476L45.642 45.7246L45.6447 45.6994C45.6511 45.5606 45.5524 45.4411 45.4152 45.4213L45.3891 45.4186C45.3849 45.4184 45.3808 45.4183 45.3766 45.4183C45.244 45.4183 45.1298 45.5175 45.111 45.649L44.9081 47.064C43.5502 46.9116 42.5271 45.7647 42.5271 44.3971V39.5659H50.0421L49.4292 44.7139C49.3038 45.7648 48.5703 46.6466 47.5605 46.9604L47.613 45.6976V45.6724C47.6058 45.5354 47.4927 45.4239 47.3556 45.4186L47.344 45.4184C47.2002 45.4184 47.0827 45.5315 47.0766 45.676L47.0186 47.0689C46.9306 47.0772 46.8453 47.0809 46.7643 47.0809Z" fill="#619BAA"/>
<path d="M28.5282 47.0809H27.3684L27.5841 45.7291L27.5877 45.7039C27.596 45.5649 27.4988 45.4437 27.3618 45.4222C27.3476 45.4199 27.3331 45.4188 27.3188 45.4188C27.1868 45.4188 27.0758 45.5137 27.0549 45.6445L26.8254 47.0768C25.4038 46.9988 24.291 45.8214 24.291 44.3971V39.5659H31.806L31.1931 44.7139C31.0753 45.7011 30.4267 46.5383 29.5004 46.8989L29.556 45.6994V45.6733C29.5487 45.5344 29.4388 45.4249 29.3004 45.4186L29.2887 45.4184C29.1448 45.4184 29.0266 45.5307 29.0196 45.6742L28.956 47.0468C28.8132 47.0698 28.6696 47.0809 28.5282 47.0809Z" fill="#619BAA"/>
<path d="M41.8417 47.9746H41.8407H40.3796C40.353 47.9746 40.3265 47.9741 40.3 47.9734L40.4534 46.7947L40.4561 46.7686C40.4606 46.6295 40.36 46.5111 40.2221 46.4932L40.1969 46.4914L40.188 46.4912C40.0534 46.4912 39.9388 46.5919 39.9215 46.7254L39.7681 47.9046C38.5474 47.6202 37.6958 46.545 37.6958 45.2908V44.7535H26.9759C26.9246 44.7535 26.8733 44.7535 26.822 44.7526L26.7203 45.6076C26.5885 46.7182 25.7698 47.6396 24.6832 47.9005L24.7259 46.7695L24.725 46.7434C24.7178 46.6074 24.6047 46.4967 24.4676 46.4914L24.4575 46.4912C24.3125 46.4912 24.1947 46.6047 24.1895 46.7497L24.1433 47.9731L24.0993 47.9743L24.0554 47.9746H22.6017L22.7558 46.7947L22.7576 46.7686C22.7621 46.6295 22.6615 46.5111 22.5236 46.4932L22.4984 46.4914L22.4895 46.4912C22.3549 46.4912 22.2403 46.5919 22.223 46.7254L22.0651 47.9391C20.7626 47.7257 19.8182 46.6116 19.8182 45.2908V43.0795C17.6695 42.0114 15.7516 40.4441 14.2724 38.548C12.3923 36.2662 4.86488 27.3099 4.78906 27.2197L8.72566 18.631L13.2014 20.305C14.6125 17.9813 16.6037 16.037 18.9583 14.6825C21.3861 13.286 24.1586 12.5479 26.9759 12.5479H38.5904C42.8917 12.5479 46.9355 14.2229 49.9769 17.2644C53.0182 20.3058 54.6932 24.3496 54.6932 28.6507C54.6932 35.1411 50.8294 40.9666 44.8499 43.4917L44.5979 45.6076C44.4576 46.783 43.5457 47.741 42.3803 47.9372L42.4244 46.7695L42.4235 46.7434C42.4152 46.6051 42.3045 46.4967 42.1661 46.4914L42.156 46.4912C42.011 46.4912 41.8932 46.6047 41.888 46.7497L41.8417 47.9736L41.8417 47.9746Z" fill="url(#paint0_linear)"/>
<rect x="30.0767" y="15.8462" width="15.2308" height="3.38462" rx="1.69231" fill="#62A7B8"/>
<path d="M23.8923 16.3223C23.6213 16.4568 23.2927 16.3409 23.166 16.0661L19.3836 7.85772C18.9243 7.06462 21.5694 7.24072 23.7123 8.60076C25.8551 9.9608 29.4882 13.3717 28.3214 14.1228L23.8923 16.3223Z" fill="#569CAF"/>
<ellipse cx="16.7837" cy="21.198" rx="0.71569" ry="1.96815" transform="rotate(25 16.7837 21.198)" fill="#3E7583"/>
<path d="M4.78906 27.2192C5.76951 27.7591 7.81368 26.1416 8.93522 23.9404C10.0568 21.7393 9.85942 18.8958 8.72536 18.6309C7.59129 18.3661 6.34368 19.8622 5.22214 22.0634C4.1006 24.2645 3.80861 26.6792 4.78906 27.2192Z" fill="#3E7583"/>
<ellipse cx="6.41184" cy="22.6903" rx="0.357845" ry="1.6103" transform="rotate(25 6.41184 22.6903)" fill="#569CAF"/>
<ellipse cx="7.48484" cy="23.2269" rx="0.357845" ry="1.6103" transform="rotate(25 7.48484 23.2269)" fill="#569CAF"/>
<path d="M12.906 29.1121C12.906 29.1121 15.9826 29.4696 17.5761 27.7998" stroke="#3E7583" stroke-width="0.71569" stroke-linecap="round"/>
<path d="M19.3782 17.9028C19.3782 17.9028 20.6349 18.7549 20.6349 20.007" stroke="#3E7583" stroke-width="0.71569" stroke-linecap="round"/>
</g>
<g opacity="0.9" filter="url(#filter0_d)">
<circle cx="38.0673" cy="10.5673" r="8.56731" fill="#FEA200"/>
</g>
<path fill-rule="evenodd" clip-rule="evenodd" d="M37.5915 14.8513V13.9746C36.2081 13.8524 35.3208 13.1725 35.2119 12.1162H36.579C36.7134 12.5145 37.0542 12.794 37.5915 12.8969V11.0373L37.317 10.9768C36.0003 10.6798 35.3901 10.1164 35.3901 9.13448C35.3901 8.09111 36.2868 7.32232 37.5915 7.16902V6.28418H38.5437V7.1627C39.8388 7.28823 40.6698 7.95184 40.7901 8.99498H39.4797C39.3803 8.61558 39.0536 8.34338 38.5437 8.24333V10.0239L38.9901 10.1227C40.3068 10.4134 40.9233 10.9525 40.9233 11.9227C40.9233 13.0387 39.9422 13.8219 38.5437 13.9693V14.8513H37.5915ZM38.5437 12.9024C39.1471 12.7962 39.5436 12.4766 39.5436 12.0496C39.5436 11.6588 39.2243 11.4051 38.5437 11.2473V12.9024ZM36.7383 9.06158C36.7383 9.40956 37.0112 9.64391 37.5915 9.80676V8.25307C37.0832 8.36768 36.7383 8.6642 36.7383 9.06158Z" fill="#E8F2FF"/>
<path d="M45.3077 17.5388C45.3077 18.4735 44.5054 19.2311 43.5158 19.2311H31.8688C30.8792 19.2311 30.0769 18.4735 30.0769 17.5388C30.0769 17.3362 30.1146 17.142 30.1837 16.9619C30.4335 17.6143 31.0936 18.0791 31.8688 18.0791H43.5158C44.2909 18.0791 44.9511 17.6143 45.2009 16.9637C45.27 17.142 45.3077 17.3362 45.3077 17.5388H45.3077Z" fill="#62A7B8"/>
<defs>
<filter id="filter0_d" x="22.5" y="0" width="31.1346" height="31.1346" filterUnits="userSpaceOnUse" color-interpolation-filters="sRGB">
<feFlood flood-opacity="0" result="BackgroundImageFix"/>
<feColorMatrix in="SourceAlpha" type="matrix" values="0 0 0 0 0 0 0 0 0 0 0 0 0 0 0 0 0 0 127 0"/>
<feOffset dy="5"/>
<feGaussianBlur stdDeviation="3.5"/>
<feColorMatrix type="matrix" values="0 0 0 0 0 0 0 0 0 0.321569 0 0 0 0 0.403922 0 0 0 0.321569 0"/>
<feBlend mode="normal" in2="BackgroundImageFix" result="effect1_dropShadow"/>
<feBlend mode="normal" in="SourceGraphic" in2="effect1_dropShadow" result="shape"/>
</filter>
<linearGradient id="paint0_linear" x1="4.78906" y1="12.5479" x2="4.78906" y2="47.9746" gradientUnits="userSpaceOnUse">
<stop stop-color="#DDF5FA"/>
<stop offset="1" stop-color="#7DBCCC"/>
</linearGradient>
</defs>
</svg>
