<svg width="48" height="48" viewBox="0 0 48 48" fill="none" xmlns="http://www.w3.org/2000/svg">
<circle cx="24" cy="24" r="24" fill="#0093B9"/>
<mask id="mask0" mask-type="alpha" maskUnits="userSpaceOnUse" x="0" y="0" width="48" height="48">
<circle cx="24" cy="24" r="24" fill="black"/>
</mask>
<g mask="url(#mask0)">
<rect opacity="0.12" x="29" y="31" width="30" height="33" rx="2" stroke="black" stroke-width="6"/>
<circle opacity="0.12" cx="9" cy="9" r="12" stroke="black" stroke-width="6"/>
<path fill-rule="evenodd" clip-rule="evenodd" d="M25.3063 37.9999H22.6936C21.81 37.9999 21.0644 37.3367 20.9593 36.4573L20.6812 34.2694C20.1305 34.0915 19.5907 33.8677 19.0774 33.6052L17.335 34.9597C17.0204 35.203 16.6461 35.3316 16.2526 35.3316C15.7827 35.3316 15.3447 35.1474 15.0193 34.813L13.1815 32.9752C12.5518 32.3654 12.4907 31.373 13.0393 30.6667L14.3938 28.9225C14.1314 28.4077 13.908 27.8681 13.7296 27.3196L11.5363 27.0406C10.6605 26.9352 10 26.1896 10 25.3063V22.6936C10 21.8101 10.662 21.0645 11.5399 20.9593L13.7296 20.6812C13.9115 20.121 14.1353 19.5812 14.3938 19.0774L13.0393 17.335C12.4914 16.6279 12.5548 15.6315 13.1869 15.0175L15.0247 13.1815C15.347 12.8497 15.7827 12.6669 16.2517 12.6669C16.6405 12.6669 17.0249 12.7992 17.3341 13.0393L19.0765 14.3938C19.5827 14.134 20.1229 13.9106 20.6812 13.7296L20.9593 11.5363C21.0647 10.6605 21.8103 10 22.6936 10H25.3063C26.1898 10 26.9354 10.662 27.0406 11.5399L27.3196 13.7296C27.8702 13.9084 28.41 14.1321 28.9234 14.3938L30.6649 13.0393C30.9794 12.796 31.3538 12.6674 31.7475 12.6674C32.2182 12.6674 32.6561 12.8519 32.9806 13.1869L34.8184 15.0247C35.4484 15.6348 35.5096 16.6276 34.9606 17.3341L33.6061 19.0774C33.8687 19.5927 34.0922 20.1326 34.2703 20.6812L36.4636 20.9593C37.3398 21.0648 37.9999 21.8104 37.999 22.6936V25.3063C37.999 26.1898 37.337 26.9354 36.4591 27.0406L34.2703 27.3196C34.0905 27.875 33.8668 28.4145 33.6061 28.9225L34.9606 30.6649C35.509 31.3715 35.4455 32.367 34.813 32.9806L32.9752 34.8184C32.6535 35.1506 32.218 35.3337 31.7489 35.3337C31.3603 35.3337 30.976 35.2012 30.6667 34.9606L28.9225 33.6061C28.4077 33.8685 27.8681 34.0919 27.3196 34.2703L27.0406 36.4636C26.9352 37.3394 26.1896 37.9999 25.3063 37.9999ZM24.0004 18.1666C20.7836 18.1666 18.1666 20.7836 18.1666 24.0004C18.1666 27.2167 20.7836 29.8333 24.0004 29.8333C27.2167 29.8333 29.8333 27.2167 29.8333 24.0004C29.8333 20.7836 27.2167 18.1666 24.0004 18.1666Z" fill="url(#paint0_linear)"/>
</g>
<defs>
<linearGradient id="paint0_linear" x1="10" y1="10" x2="10" y2="37.9999" gradientUnits="userSpaceOnUse">
<stop stop-color="#DDF5FA"/>
<stop offset="1" stop-color="#A1D5E2"/>
</linearGradient>
</defs>
</svg>
