<svg width="44" height="13" viewBox="0 0 44 13" fill="none" xmlns="http://www.w3.org/2000/svg">
<path d="M2.97763 10.2528H4.65021V7.40305H7.5V5.73047H4.65021V2.88068H2.97763V5.73047H0.127841V7.40305H2.97763V10.2528ZM15.6669 4.08984H17.5686C17.5313 2.2468 15.9599 0.941761 13.6374 0.941761C11.347 0.941761 9.62644 2.23082 9.63177 4.15909C9.63177 5.72514 10.745 6.62536 12.5401 7.08878L13.7813 7.40838C14.9585 7.70668 15.7362 8.07422 15.7415 8.92116C15.7362 9.85334 14.8519 10.4766 13.5629 10.4766C12.3271 10.4766 11.3683 9.92259 11.2884 8.77734H9.34412C9.42402 10.9453 11.038 12.1651 13.5789 12.1651C16.1943 12.1651 17.7124 10.8601 17.7177 8.93714C17.7124 7.04616 16.1517 6.18324 14.511 5.79439L13.4883 5.53871C12.5934 5.32564 11.624 4.94744 11.6346 4.03658C11.6399 3.21626 12.375 2.61435 13.6108 2.61435C14.788 2.61435 15.5657 3.163 15.6669 4.08984ZM23.2799 3.81818H21.6659V1.85795H19.7376V3.81818H18.5764V5.30966H19.7376V9.85866C19.727 11.3981 20.8456 12.1545 22.2944 12.1119C22.8431 12.0959 23.2213 11.9893 23.429 11.9201L23.1041 10.4126C22.9976 10.4393 22.7792 10.4872 22.5395 10.4872C22.0547 10.4872 21.6659 10.3168 21.6659 9.53906V5.30966H23.2799V3.81818ZM27.0469 12.1651C28.3307 12.1651 29.0977 11.5632 29.4493 10.8761H29.5132V12H31.3669V6.52415C31.3669 4.36151 29.6037 3.71165 28.043 3.71165C26.3225 3.71165 25.0015 4.47869 24.5753 5.97017L26.3758 6.22585C26.5675 5.66655 27.1108 5.18714 28.0537 5.18714C28.9486 5.18714 29.4386 5.64524 29.4386 6.44957V6.48153C29.4386 7.03551 28.858 7.06214 27.4145 7.21662C25.8271 7.38707 24.309 7.86115 24.309 9.70419C24.309 11.3129 25.4862 12.1651 27.0469 12.1651ZM27.5476 10.7482C26.7433 10.7482 26.168 10.3807 26.168 9.67223C26.168 8.93182 26.8126 8.62287 27.6755 8.50035C28.1815 8.43111 29.1936 8.30327 29.4439 8.10085V9.06499C29.4439 9.97585 28.7089 10.7482 27.5476 10.7482ZM33.1058 12H35.0341V7.18999C35.0341 6.15128 35.8171 5.41619 36.8771 5.41619C37.202 5.41619 37.6069 5.47479 37.772 5.52805V3.75426C37.5962 3.7223 37.2926 3.70099 37.0795 3.70099C36.142 3.70099 35.359 4.23366 35.0607 5.18182H34.9755V3.81818H33.1058V12ZM43.3781 3.81818H41.7641V1.85795H39.8358V3.81818H38.6746V5.30966H39.8358V9.85866C39.8252 11.3981 40.9438 12.1545 42.3927 12.1119C42.9413 12.0959 43.3195 11.9893 43.5273 11.9201L43.2023 10.4126C43.0958 10.4393 42.8774 10.4872 42.6377 10.4872C42.153 10.4872 41.7641 10.3168 41.7641 9.53906V5.30966H43.3781V3.81818Z" fill="#0093B9"/>
</svg>
