<svg width="36" height="36" viewBox="0 0 36 36" fill="none" xmlns="http://www.w3.org/2000/svg">
<rect width="36" height="36" rx="18" fill="#544AB5"/>
<path fill-rule="evenodd" clip-rule="evenodd" d="M17.8441 23.636V22.9454C16.754 22.8491 16.0549 22.3127 15.969 21.4807H17.0463C17.1524 21.7943 17.4204 22.0146 17.8441 22.0957V20.6309L17.6275 20.583C16.5907 20.3494 16.1094 19.9053 16.1094 19.1317C16.1094 18.3094 16.816 17.7037 17.8441 17.5831V16.886H18.5941V17.5781C19.6143 17.6769 20.2695 18.1994 20.3639 19.0217H19.3312C19.2529 18.7228 18.9959 18.5085 18.5941 18.4298V19.8323L18.9458 19.91C19.9832 20.1395 20.4692 20.5641 20.4692 21.3282C20.4692 22.2076 19.6965 22.8249 18.5941 22.9411V23.636H17.8441ZM18.5941 22.1001C19.0693 22.0165 19.3818 21.7648 19.3818 21.4281C19.3818 21.1209 19.1304 20.9213 18.5941 20.7968V22.1001ZM17.1718 19.0743C17.1718 19.3486 17.3867 19.5333 17.8441 19.6615V18.4374C17.4435 18.5276 17.1718 18.7611 17.1718 19.0743Z" fill="white"/>
<path opacity="0.56" d="M18.5 27.875C18.5 27.875 21.7754 26.3808 22.8858 23.9885L21.1356 22.6825L25.6265 21.125L26 25.848L24.5576 25.0775C24.5576 25.0775 23.4692 26.3516 22.25 26.9146C21.0308 27.4777 18.5 27.875 18.5 27.875Z" fill="white" stroke="white" stroke-width="1.19483" stroke-linecap="round" stroke-linejoin="round"/>
<path d="M16.6351 12.5398L15.4851 9.49637C15.4851 9.49637 17.4327 8.75304 18.6226 9.49637C19.8126 10.2397 21.3869 10.2397 21.3869 10.2397L19.8126 12.5398C19.8126 12.5398 18.7781 12.8747 18.2195 12.8747C17.6608 12.8747 16.6351 12.5398 16.6351 12.5398V12.5398Z" stroke="white" stroke-width="1.6" stroke-linecap="round" stroke-linejoin="round"/>
<path d="M24.593 18.5664C23.8027 15.8514 21.6626 13.8186 19.813 12.533" stroke="white" stroke-width="1.6" stroke-linecap="round" stroke-linejoin="round"/>
<path d="M16.688 12.533C14.1255 14.5584 11.563 18.3099 11.563 21.4993C11.563 24.5552 13.5937 27.1368 16.3792 27.9683" stroke="white" stroke-width="1.6" stroke-linecap="round" stroke-linejoin="round"/>
</svg>
