<svg width="389" height="382" viewBox="0 0 389 382" fill="none" xmlns="http://www.w3.org/2000/svg">
<g clip-path="url(#clip0)">
<path d="M342.768 328.538C332.75 338.844 323.814 344.915 316.948 349.48C250.115 394.142 173.736 381.247 150.126 376.87C112.03 369.764 79.8603 364.775 52.2526 339.786C-10.5349 283.029 -7.4778 164.622 40.4946 91.2526C46.1855 82.5462 94.1109 11.483 170.632 1.50591C172.513 1.2706 173.924 1.12941 175.147 0.988228C186.999 -0.282439 260.368 -6.87108 320.193 43.2497C328.753 50.4501 342.533 63.3921 355.326 83.1109C402.075 155.351 402.216 267.216 342.768 328.538Z" fill="white"/>
<path d="M94.8632 193.471C91.2888 201.189 94.675 208.907 97.9673 214.084C98.7668 214.084 99.1901 214.319 99.9896 214.507C107.091 216.249 110.431 215.354 117.627 215.872C119.179 215.966 123.788 214.837 125.669 214.225L129.102 213.048C129.102 213.048 135.216 194.271 125.622 189.094C116.027 183.917 119.696 165.234 120.496 155.068C122.659 127.443 92.8408 129.937 92.7938 94.2176C92.7938 84.7112 95.9449 66.5924 87.9495 59.0155C78.8253 50.4032 72.1468 58.8743 66.3149 51.6268C57.1437 40.3319 42.2816 36.3317 33.3926 47.9089C24.6447 59.3449 35.2739 82.1698 61.7058 100.477C79.2016 115.772 79.4838 120.337 78.0728 131.491C77.1322 139.303 69.6541 159.633 80.2363 167.775C90.8655 175.87 98.9549 184.623 94.8632 193.471Z" fill="url(#paint0_linear)"/>
<g opacity="0.5">
<path opacity="0.5" d="M113.911 216.154L114.428 216.107C114.052 212.954 113.582 209.801 113.158 206.695C109.725 183.776 104.269 161.939 96.9795 141.938C90.7713 124.949 83.1522 108.995 74.3102 94.4999C67.2084 82.8286 59.3071 72.0515 50.7473 62.4509C44.7742 55.7211 38.519 49.6031 32.2638 44.3321C31.182 43.3909 30.0062 42.5438 28.8775 41.6967C27.3725 40.5672 25.8204 39.3907 24.4095 38.12L24.0332 38.4965C25.4442 39.8142 26.9962 40.9908 28.5483 42.1202C29.677 42.9674 30.8528 43.8615 31.9345 44.7557C38.1898 50.0266 44.398 56.0976 50.371 62.8274C58.8838 72.3809 66.7851 83.1581 73.8399 94.7823C82.6348 109.23 90.254 125.184 96.4622 142.126C103.752 162.128 109.208 183.87 112.641 206.789C113.064 209.848 113.488 213.001 113.911 216.154Z" fill="#FCFDFE"/>
<path opacity="0.5" d="M83.8575 112.854L84.3278 112.619C74.6393 91.9587 83.152 53.7916 83.2461 53.4151L82.7288 53.2739C82.6347 53.6975 74.0749 92.0057 83.8575 112.854Z" fill="#FCFDFE"/>
<path opacity="0.5" d="M105.868 172.999L106.386 172.811C101.447 157.986 73.7457 146.597 73.4635 146.456L73.2754 146.927C73.5105 147.068 101.024 158.41 105.868 172.999Z" fill="#FCFDFE"/>
<path opacity="0.5" d="M107.938 181.658L108.455 181.564C106.997 171.493 110.383 156.951 118.003 140.62C118.379 139.82 118.379 139.82 118.379 139.679L117.862 139.726L118.144 139.679L117.909 139.632C117.909 139.679 117.767 140.009 117.579 140.338C109.866 156.81 106.48 171.446 107.938 181.658Z" fill="#FCFDFE"/>
<path opacity="0.5" d="M113.111 210.413L113.582 210.178C108.879 200.012 92.6997 195.965 92.5586 195.918L92.4175 196.436C92.6056 196.53 108.502 200.483 113.111 210.413Z" fill="#FCFDFE"/>
<path opacity="0.5" d="M114.71 216.202C116.733 207.354 121.295 198.836 128.773 190.082L128.349 189.753C120.824 198.553 116.215 207.166 114.193 216.107L114.71 216.202Z" fill="#FCFDFE"/>
<path opacity="0.5" d="M55.2624 68.5689L55.7327 68.3336C49.7126 57.1329 45.9501 44.0027 44.7273 39.673C44.4451 38.6377 44.304 38.2612 44.2569 38.12L43.7866 38.3553C43.8337 38.4494 44.0218 39.0612 44.2099 39.8142C45.4798 44.1439 49.1953 57.3212 55.2624 68.5689Z" fill="#FCFDFE"/>
<path opacity="0.5" d="M67.726 85.2758L68.1022 84.8993C59.6365 76.5223 35.7914 76.8047 34.8037 76.8047V77.3224C35.0859 77.3695 59.4013 77.0871 67.726 85.2758Z" fill="#FCFDFE"/>
</g>
<path d="M137.004 260.298L106.057 269.993C106.057 269.993 95.2396 255.922 99.3314 242.321C107.656 214.601 82.7762 209.236 72.7114 205.424C57.5201 199.683 48.2549 189.047 60.4361 176.434C74.2164 162.175 52.0174 142.644 26.1499 136.95C0.846807 131.349 -3.85637 83.111 52.0644 90.1702C85.457 94.4058 90.5835 126.784 97.0739 142.55C103.564 158.316 128.021 152.103 125.998 174.458C124.258 193.565 114.758 210.083 128.585 218.507C142.413 226.884 147.539 239.591 137.004 260.298Z" fill="url(#paint1_linear)"/>
<g opacity="0.5">
<path opacity="0.5" d="M124.54 267.358L123.882 267.452C123.835 267.028 118.473 224.861 100.601 184.67C84.1399 147.633 53.3341 104.759 0.0940636 110.689L0 110.03C23.704 107.395 44.9624 114.031 63.2578 129.796C77.8847 142.362 90.6303 160.763 101.165 184.435C119.132 224.72 124.446 266.934 124.54 267.358Z" fill="#BEB8F2"/>
<path opacity="0.5" d="M70.6418 136.667L69.9834 136.808C65.8916 114.36 48.0665 86.2641 47.8784 85.9817L48.4428 85.6052C48.6309 85.8876 66.55 114.125 70.6418 136.667Z" fill="#BEB8F2"/>
<path opacity="0.5" d="M58.1783 126.502C31.8405 119.725 13.357 132.714 13.1689 132.855L12.7456 132.29C12.9337 132.149 31.6524 118.925 58.2724 125.843L58.1783 126.502Z" fill="#BEB8F2"/>
<path opacity="0.5" d="M110.807 211.589C93.8753 183.07 49.5714 188.623 49.1481 188.718L48.96 188.059C49.3832 187.917 94.2986 182.458 111.418 211.213L110.807 211.589Z" fill="#BEB8F2"/>
<path opacity="0.5" d="M106.95 198.459L106.292 198.506C104.222 177.423 121.389 157.092 121.577 156.857L122.094 157.28C121.859 157.563 104.881 177.658 106.95 198.459Z" fill="#BEB8F2"/>
<path opacity="0.5" d="M122.847 260.816C118.144 249.098 98.0613 245.003 97.8262 244.956L97.9673 244.297C98.8138 244.486 118.614 248.533 123.459 260.581L122.847 260.816Z" fill="#BEB8F2"/>
<path opacity="0.5" d="M121.718 250.839L121.06 250.933C119.743 241.05 130.607 226.131 134.182 221.237C134.699 220.531 135.122 219.966 135.169 219.825L135.781 220.108C135.687 220.296 135.404 220.672 134.699 221.661C131.219 226.508 120.401 241.238 121.718 250.839Z" fill="#BEB8F2"/>
</g>
<path d="M107.703 268.158C107.797 268.205 107.938 268.252 108.032 268.299C114.899 271.452 122.988 273.711 132.489 274.323C134.37 274.323 136.204 274.276 138.086 274.276C139.779 269.899 140.578 265.428 134.982 263.593C126.281 260.675 126.516 245.192 129.103 239.779C132.301 233.097 139.403 217.378 125.999 212.672C114.852 208.766 106.857 208.53 106.48 193.988C106.151 179.446 98.4849 170.128 85.316 170.599C71.4416 171.069 60.6243 152.292 49.1015 158.127C29.0189 168.293 45.9504 200.812 69.7014 210.836C93.4525 220.861 79.39 229.096 78.4023 240.956C77.0384 257.145 99.0493 254.369 104.646 260.91C106.527 263.075 107.421 265.616 107.703 268.158Z" fill="url(#paint2_linear)"/>
<g opacity="0.5">
<path opacity="0.5" d="M121.107 272.628L121.765 272.534C113.582 225.379 82.5878 182.411 40.8706 160.433L40.5884 160.998C82.1175 182.882 112.97 225.661 121.107 272.628Z" fill="#FCFDFE"/>
<path opacity="0.5" d="M114.476 247.309H115.134C115.651 228.532 132.113 214.272 132.301 214.131L131.877 213.613C131.689 213.801 114.993 228.202 114.476 247.309Z" fill="#FCFDFE"/>
<path opacity="0.5" d="M119.367 264.016L119.931 263.734C111.325 246.697 76.8032 243.403 76.4269 243.356L76.3799 244.015C76.7561 244.015 110.948 247.309 119.367 264.016Z" fill="#FCFDFE"/>
<path opacity="0.5" d="M92.3237 205.942L92.9351 205.707C87.2913 191.682 96.9328 170.552 97.0268 170.363L96.4154 170.081C96.3684 170.316 86.5858 191.635 92.3237 205.942Z" fill="#FCFDFE"/>
<path opacity="0.5" d="M72.0999 183.305L72.4762 182.741C58.0374 173.328 35.18 177.705 34.9448 177.752L35.0859 178.411C35.274 178.364 57.8963 174.034 72.0999 183.305Z" fill="#FCFDFE"/>
</g>
<path d="M270.574 30.0254V347.974C270.574 352.728 266.529 353.763 261.92 353.904L104.129 362.093L101.73 362.187C96.8387 362.328 92.7939 358.469 92.7939 353.528V24.4721C92.7939 19.5306 96.7916 15.6715 101.73 15.8127L104.975 15.9068L263.331 28.237C267.94 28.4253 270.574 25.2251 270.574 30.0254Z" fill="#199FFF"/>
<path d="M275.465 30.0254V347.974C275.465 352.728 271.703 356.728 267.094 356.916L106.621 362.187C101.73 362.328 97.6851 358.469 97.6851 353.528V24.4721C97.6851 19.5306 101.683 15.6715 106.621 15.8127L267.141 21.0836C271.703 21.2248 275.465 25.2251 275.465 30.0254Z" fill="url(#paint3_linear)"/>
<path d="M270.292 47.4853V342.045C270.292 346.468 266.765 350.233 262.485 350.375L111.607 355.128C107.045 355.269 103.282 351.645 103.282 347.033V42.8732C103.282 38.3082 107.045 34.6374 111.607 34.7786L262.485 39.2024C266.765 39.2965 270.292 43.0615 270.292 47.4853Z" fill="url(#paint4_linear)"/>
<path d="M191.091 28.3312C191.091 30.0254 189.774 31.3431 188.128 31.2961C186.481 31.249 185.165 29.8372 185.165 28.19C185.165 26.4958 186.481 25.178 188.128 25.2251C189.774 25.2722 191.091 26.684 191.091 28.3312Z" fill="#4BD6FF"/>
<path d="M256.324 182.647L118.05 182.458C113.958 182.458 110.666 179.117 110.666 175.023V49.6501C110.666 45.5558 114.005 42.3085 118.05 42.4026L256.324 46.2617C260.18 46.3558 263.331 49.6972 263.331 53.6974V175.446C263.331 179.446 260.18 182.647 256.324 182.647Z" fill="white"/>
<path d="M213.666 168.199L162.307 168.01C161.648 168.01 161.084 167.446 161.084 166.787V151.68C161.084 151.021 161.648 150.456 162.307 150.456L213.619 150.833C214.277 150.833 214.794 151.398 214.794 152.056V166.975C214.841 167.681 214.324 168.199 213.666 168.199Z" fill="#00C8C9"/>
<path d="M251.103 110.124L127.598 108.242V59.2977L251.103 62.3097V110.124Z" fill="#D8DEE8"/>
<path d="M251.103 136.244L127.598 134.973V117.701L251.103 119.349V136.244Z" fill="#D8DEE8"/>
<path d="M256.324 338.139L118.05 342.139C113.958 342.28 110.666 339.033 110.666 334.938V209.519C110.666 205.424 114.005 202.083 118.05 202.083L256.324 201.754C260.18 201.754 263.331 204.954 263.331 208.954V330.703C263.331 334.703 260.18 337.997 256.324 338.139Z" fill="white"/>
<path d="M237.135 292.442L138.18 294.418C136.863 294.465 135.781 293.383 135.781 292.018V220.061C135.781 218.696 136.863 217.613 138.18 217.613L237.135 217.096C238.405 217.096 239.439 218.131 239.439 219.449V289.994C239.439 291.312 238.405 292.394 237.135 292.442Z" fill="#D8DEE8"/>
<path d="M213.666 323.973L162.354 325.291C161.696 325.291 161.131 324.773 161.131 324.067V308.96C161.131 308.301 161.696 307.689 162.354 307.689L213.666 306.513C214.324 306.513 214.842 307.031 214.842 307.689V322.608C214.842 323.408 214.324 323.926 213.666 323.973Z" fill="#00C8C9"/>
<path d="M188.127 260.816C187.657 260.816 187.14 260.675 186.716 260.345L132.536 219.025C131.313 218.084 130.937 216.107 131.736 214.601C132.536 213.095 134.135 212.672 135.358 213.613L188.127 253.945L243.719 213.048C244.942 212.154 246.494 212.625 247.199 214.131C247.905 215.59 247.528 217.519 246.306 218.413L189.397 260.345C189.021 260.675 188.551 260.816 188.127 260.816Z" fill="white"/>
<path opacity="0.5" d="M275.465 49.5559C270.715 50.1206 263.943 51.2501 256.135 53.6032C244.66 57.0387 215.923 65.604 200.497 89.7937C182.531 117.937 192.595 151.633 195.041 159.727C203.083 186.647 223.307 210.507 234.924 224.202C248.516 240.25 254.395 243.356 255.665 253.568C257.687 269.946 244.565 277.994 243.766 304.019C243.625 309.242 243.437 316.443 246.259 325.102C251.714 341.997 264.413 351.739 270.621 355.881C272.267 253.804 273.866 151.68 275.465 49.5559Z" fill="#D8DEE8"/>
<path d="M294.184 167.728C307.447 161.233 333.362 184.717 345.966 207.26C350.999 216.249 356.878 226.743 355.42 239.262C352.833 261.475 328.235 280.911 294.372 287.406C293.432 284.018 292.444 280.582 291.503 277.194C295.219 273.335 300.722 267.781 307.823 261.381C318.688 251.592 320.945 250.933 321.463 247.827C323.156 237.709 297.1 229.191 287.835 211.354C279.887 196.012 283.978 172.669 294.184 167.728Z" fill="url(#paint5_linear)"/>
<path d="M311.633 346.092C311.633 346.092 309.47 351.457 310.551 353.575C311.68 355.787 314.972 355.128 324.238 355.457C333.738 355.834 335.855 356.587 336.231 355.645C336.983 353.763 329.599 347.692 320.992 346.092C317.183 345.386 313.938 345.668 311.633 346.092Z" fill="url(#paint6_linear)"/>
<path d="M313.608 338.044L318.782 346.092C318.782 346.092 316.383 348.445 312.385 347.551L306.647 339.927L313.608 338.044Z" fill="url(#paint7_linear)"/>
<path opacity="0.3" d="M287.882 211.354C279.933 196.012 284.025 172.669 294.231 167.728C296.912 166.41 300.11 166.363 303.59 167.21C301.756 172.528 302.132 176.34 303.026 179.07C307.071 191.165 324.52 189.8 329.975 203.589C333.409 212.295 327.953 216.625 332.844 223.637C337.924 230.885 346.201 229.661 348.788 236.72C350.716 241.991 346.954 244.956 348.365 249.38C348.788 250.604 349.541 251.874 350.904 253.051C341.921 269.193 321.039 282.323 294.419 287.406C293.479 284.018 292.491 280.582 291.55 277.194C295.266 273.335 300.769 267.781 307.87 261.381C318.735 251.592 320.992 250.933 321.51 247.827C323.203 237.662 297.147 229.191 287.882 211.354Z" fill="#199FFF"/>
<path d="M303.261 172.528C302.697 195.777 303.026 220.861 304.672 247.592C306.836 281.712 310.834 313.102 315.772 341.292C313.608 341.998 311.398 342.703 309.235 343.362C286.753 321.479 280.075 302.183 278.194 288.347C276.877 278.558 278.852 277.711 277.112 265.475C273.773 242.133 265.072 234.132 258.91 212.295C256.606 204.107 254.066 191.682 254.207 175.54C270.574 174.505 286.894 173.517 303.261 172.528Z" fill="#006BB8"/>
<path d="M319.346 130.926C318.923 131.02 317.183 131.632 316.477 139.02C314.784 156.857 324.096 164.104 321.792 173.752C319.581 183.023 308.388 187.541 296.865 192.2C289.152 195.306 265.354 204.907 251.526 194.13C245.694 189.612 245.083 184.105 240.897 163.963C230.315 112.807 226.223 108.383 230.691 97.3236C238.31 78.3107 258.769 70.4043 262.155 69.1336C298.417 55.1563 341.216 80.852 358.1 110.36C360.311 114.266 373.621 137.467 364.261 148.433C358.618 155.068 345.637 156.151 337.03 151.633C325.601 145.515 323.156 130.032 319.346 130.926Z" fill="url(#paint8_linear)"/>
<path d="M358.947 144.432C359.041 144.432 359.182 144.385 359.276 144.338C359.699 144.15 359.887 143.679 359.699 143.256C359.37 142.597 351.892 126.502 334.631 120.149C334.208 120.007 333.738 120.196 333.597 120.619C333.456 121.043 333.644 121.513 334.067 121.655C350.716 127.773 358.147 143.726 358.241 143.868C358.335 144.291 358.665 144.432 358.947 144.432Z" fill="url(#paint9_linear)"/>
<path d="M291.08 126.078C291.174 125.325 291.927 120.243 296.16 118.596C298.276 117.795 301.992 117.56 303.45 119.866C304.343 121.325 304.296 123.631 303.073 124.808C301.568 126.267 299.593 124.525 296.865 125.702C293.62 127.114 293.056 131.067 291.927 130.784C291.08 130.643 290.845 128.055 291.08 126.078Z" fill="url(#paint10_linear)"/>
<path opacity="0.3" d="M254.348 90.735C256.653 96.9471 249.786 102.359 252.702 109.136C256.935 118.831 273.678 113.842 279.651 123.443C286.753 134.785 270.48 153.468 277.206 159.822C280.263 162.739 283.79 159.022 292.726 161.045C305.472 163.963 309.281 174.034 315.207 172.481C317.089 172.011 319.346 170.316 321.228 165.092C322.074 167.963 322.45 170.74 321.745 173.705C319.534 182.976 308.341 187.494 296.818 192.153C289.105 195.259 265.307 204.86 251.479 194.083C245.647 189.565 245.036 184.058 240.85 163.916C230.268 112.76 226.176 108.336 230.644 97.2765C233.09 91.2526 236.758 86.3112 240.85 82.405C249.598 84.3346 253.172 87.4877 254.348 90.735Z" fill="url(#paint11_linear)"/>
<path d="M290.798 121.278C289.81 122.172 278.852 133.938 266.906 130.973C256.512 128.384 250.162 118.266 249.034 109.748C246.4 89.5113 272.691 72.5691 269.445 68.4747C267.517 66.0746 257.358 70.5454 250.256 75.0163C244.425 78.6871 219.921 94.0763 220.579 119.913C220.626 122.549 221.05 139.114 232.055 147.444C246.87 158.645 269.822 158.316 294.278 131.302C292.961 127.396 292.162 125.137 290.798 121.278Z" fill="url(#paint12_linear)"/>
<path d="M344.367 96.5236L332.562 134.267C332.186 135.491 331.057 136.385 329.74 136.432L314.314 138.691C312.338 138.738 310.786 136.95 311.21 134.973L321.604 96.3354C321.886 94.9706 323.109 93.9823 324.473 93.9352L341.31 92.5704C343.427 92.4763 344.979 94.5 344.367 96.5236Z" fill="#00579E"/>
<path d="M343.803 97.7472L332.327 134.361C331.951 135.585 330.869 136.385 329.599 136.432L316.054 138.597C314.126 138.644 312.621 136.903 313.044 135.02L323.203 97.5119C323.485 96.1942 324.661 95.2059 326.025 95.1588L340.887 93.8411C342.909 93.8411 344.367 95.8177 343.803 97.7472Z" fill="#00579E"/>
<path opacity="0.3" d="M313.044 135.067L322.78 99.2532C323.485 99.6297 324.52 100.147 325.508 100.994C329.317 104.289 331.528 110.219 330.258 114.972C328.659 121.043 322.451 121.231 321.604 126.267C320.946 130.22 324.144 134.408 326.777 136.95L316.054 138.691C314.079 138.691 312.621 136.95 313.044 135.067Z" fill="url(#paint13_linear)"/>
<path d="M299.499 65.4629C298.84 67.8159 300.251 70.3102 302.65 70.875C305.566 71.5809 309.093 72.5221 310.598 73.4163C313.42 75.0164 302.086 73.181 291.645 72.9457C285.154 72.8045 280.263 72.0515 277.535 71.5338C276.782 71.3926 276.735 70.3573 277.441 70.122C280.028 69.2749 284.308 68.0042 287.882 67.5806C292.303 67.0159 297.053 57.2271 297.053 57.2271L300.863 60.6626L299.499 65.4629Z" fill="#00579E"/>
<path d="M337.218 123.396L336.513 122.219C335.854 119.772 333.502 118.172 331.01 118.501L327.2 118.972C326.024 119.113 325.225 120.243 325.46 121.419C325.789 123.113 326.73 125.137 329.034 124.996C332.985 124.714 335.525 130.502 335.525 130.502L337.03 128.384C338.065 126.878 338.159 124.902 337.218 123.396Z" fill="url(#paint14_linear)"/>
<path d="M307.965 60.4272C311.257 59.9566 314.925 57.18 314.831 54.921C314.737 51.7679 307.589 50.0737 303.967 49.2265C300.346 48.3794 298.794 48.6618 297.759 49.4619C296.677 50.2619 296.019 51.7208 295.784 52.9444C295.642 53.6033 295.642 54.5445 295.784 56.427C295.878 58.0742 295.878 58.0271 295.878 58.4977C295.972 59.6743 296.301 61.745 297.43 64.5687C297.9 64.051 298.511 63.4392 299.311 62.8274C299.64 62.5921 300.816 61.6979 302.18 61.1332C304.626 60.1449 305.942 60.7096 307.965 60.4272Z" fill="#00579E"/>
<path d="M295.736 61.3685C295.736 61.3685 295.971 65.9335 300.251 67.9571C304.108 69.7455 309.234 61.6979 307.823 58.6389C307.353 57.6036 305.895 56.5212 304.39 56.1447C303.496 55.9564 303.073 56.0976 301.662 55.7682C300.345 55.4387 300.11 55.1093 299.593 55.2505C298.934 55.3917 298.135 56.0976 297.523 58.9213C297.194 57.7918 296.489 57.0859 295.736 57.0388C295.595 57.0388 295.266 57.0859 294.984 57.2271C293.902 57.8859 294.137 59.5802 295.736 61.3685Z" fill="url(#paint15_linear)"/>
</g>
<defs>
<linearGradient id="paint0_linear" x1="30.3882" y1="215.878" x2="181.608" y2="128.882" gradientUnits="userSpaceOnUse">
<stop stop-color="#00C8C9"/>
<stop offset="0.491686" stop-color="#006BB8"/>
<stop offset="1" stop-color="#199FFF"/>
</linearGradient>
<linearGradient id="paint1_linear" x1="8.11719" y1="269.993" x2="181.098" y2="141.113" gradientUnits="userSpaceOnUse">
<stop stop-color="#00C8C9"/>
<stop offset="1" stop-color="#006BB8"/>
</linearGradient>
<linearGradient id="paint2_linear" x1="40.1963" y1="274.323" x2="155.874" y2="176.569" gradientUnits="userSpaceOnUse">
<stop stop-color="#00C8C9"/>
<stop offset="1" stop-color="#199FFF"/>
</linearGradient>
<linearGradient id="paint3_linear" x1="97.6851" y1="362.191" x2="379.111" y2="217.749" gradientUnits="userSpaceOnUse">
<stop stop-color="#00C8C9"/>
<stop offset="1" stop-color="#006BB8"/>
</linearGradient>
<linearGradient id="paint4_linear" x1="103.282" y1="355.132" x2="365.922" y2="218.211" gradientUnits="userSpaceOnUse">
<stop stop-color="#006BB8"/>
<stop offset="1" stop-color="#199FFF"/>
</linearGradient>
<linearGradient id="paint5_linear" x1="283.655" y1="287.406" x2="389.891" y2="224.082" gradientUnits="userSpaceOnUse">
<stop stop-color="#00C8C9"/>
<stop offset="0.491686" stop-color="#006BB8"/>
<stop offset="1" stop-color="#199FFF"/>
</linearGradient>
<linearGradient id="paint6_linear" x1="310.249" y1="356.1" x2="317.459" y2="338.115" gradientUnits="userSpaceOnUse">
<stop stop-color="#006BB8"/>
<stop offset="1" stop-color="#199FFF"/>
</linearGradient>
<linearGradient id="paint7_linear" x1="306.534" y1="304.378" x2="315.943" y2="363.247" gradientUnits="userSpaceOnUse">
<stop stop-color="#311944"/>
<stop offset="1" stop-color="#A03976"/>
</linearGradient>
<linearGradient id="paint8_linear" x1="228.903" y1="199.112" x2="362.717" y2="60.5404" gradientUnits="userSpaceOnUse">
<stop stop-color="#00C8C9"/>
<stop offset="1" stop-color="#006BB8"/>
</linearGradient>
<linearGradient id="paint9_linear" x1="333.55" y1="144.432" x2="357.812" y2="118.284" gradientUnits="userSpaceOnUse">
<stop stop-color="#00C8C9"/>
<stop offset="1" stop-color="#006BB8"/>
</linearGradient>
<linearGradient id="paint10_linear" x1="288.696" y1="110.306" x2="299.63" y2="128.76" gradientUnits="userSpaceOnUse">
<stop stop-color="#311944"/>
<stop offset="1" stop-color="#A03976"/>
</linearGradient>
<linearGradient id="paint11_linear" x1="228.856" y1="199.064" x2="342.652" y2="108.096" gradientUnits="userSpaceOnUse">
<stop stop-color="#006BB8"/>
<stop offset="1" stop-color="#199FFF"/>
</linearGradient>
<linearGradient id="paint12_linear" x1="220.566" y1="154.389" x2="306.043" y2="81.6224" gradientUnits="userSpaceOnUse">
<stop stop-color="#00C8C9"/>
<stop offset="0.491686" stop-color="#006BB8"/>
<stop offset="1" stop-color="#199FFF"/>
</linearGradient>
<linearGradient id="paint13_linear" x1="312.971" y1="138.691" x2="342.377" y2="125.533" gradientUnits="userSpaceOnUse">
<stop stop-color="#00C8C9"/>
<stop offset="1" stop-color="#006BB8"/>
</linearGradient>
<linearGradient id="paint14_linear" x1="337.877" y1="124.448" x2="325.424" y2="124.448" gradientUnits="userSpaceOnUse">
<stop stop-color="#311944"/>
<stop offset="1" stop-color="#A03976"/>
</linearGradient>
<linearGradient id="paint15_linear" x1="294.438" y1="42.2801" x2="299.346" y2="54.5426" gradientUnits="userSpaceOnUse">
<stop stop-color="#311944"/>
<stop offset="1" stop-color="#A03976"/>
</linearGradient>
<clipPath id="clip0">
<rect width="389" height="382" fill="white"/>
</clipPath>
</defs>
</svg>
