<?xml version="1.0" encoding="UTF-8"?>
<svg width="2620px" height="512px" viewBox="0 0 2620 512" version="1.1" xmlns="http://www.w3.org/2000/svg" xmlns:xlink="http://www.w3.org/1999/xlink">
    <title>Group</title>
    <g id="Page-1" stroke="none" stroke-width="1" fill="none" fill-rule="evenodd">
        <g id="Group" fill="#FFFFFF" fill-rule="nonzero">
            <g id="basketball">
                <path d="M175.872,197.8 C200.47,192.999 224.472,186.4 247.27,179.2 C216.972,123.699 179.472,73.599 135.371,31.3 C70.572,66.099 21.27,128.2 5.371,202.299 C53.072,211.899 111.972,210.7 175.872,197.8 Z" id="Path"></path>
                <path d="M418.571,60.099 L414.371,76.599 C407.772,102.999 351.972,140.799 278.772,168.1 L275.471,169.299 C245.771,113.199 208.271,62.199 164.472,18.1 C192.672,7 223.571,0 255.671,0 C312.97,0 366.371,20.2 408.971,52.299 C412.27,54.699 415.572,57.1 418.571,60.099 Z" id="Path"></path>
                <path d="M287.171,268.299 C279.371,247 270.671,226.3 261.071,206.199 C235.872,214.6 209.172,221.8 181.871,227.199 C152.171,233.199 113.472,238.599 72.672,238.599 C49.271,238.599 24.271,236.799 0.572,232.298 C-0.029,240.098 0.671,247.899 0.671,255.999 C0.671,334.899 36.671,405.398 92.771,452.198 C93.071,450.398 93.372,448.598 93.67,446.798 C105.071,377.8 184.872,304.9 287.171,268.299 Z" id="Path"></path>
                <path d="M297.071,296.499 C317.471,360.699 328.871,430.399 330.07,500.9 C306.671,508.1 281.47,512 255.671,512 C207.371,512 162.071,497.5 123.67,474.099 C122.17,466.899 122.17,459.399 123.372,451.599 C132.672,394.9 207.071,329.2 297.071,296.499 Z" id="Path"></path>
                <path d="M508.97,292.299 C496.371,380.201 438.071,453.699 359.471,488.8 C357.371,419.2 345.37,351.399 325.271,287.499 C392.471,268.9 456.172,271 508.97,292.299 Z" id="Path"></path>
                <path d="M511.671,256 L511.671,261.4 C454.372,240.099 386.471,239.2 315.671,259.3 C307.871,237.701 298.871,216.701 289.271,196.301 C338.582,177.786 430.608,135.174 443.471,83.801 C485.172,129.099 511.671,189.699 511.671,256 Z" id="Path"></path>
            </g>
            <g id="dribbble" transform="translate(582.000000, 0.000000)">
                <path d="M782.852538,383.541695 C778.404459,390.537295 774.850095,396.541135 770.893969,402.2622 C758.230267,420.572887 746.013423,439.231919 732.423208,456.825424 C725.097201,466.300426 715.832077,474.504991 706.554655,482.230068 C674.389097,509.019898 636.201209,495.094268 617.511077,471.7756 C612.546447,465.587342 608.459133,458.710589 604.240632,452.542822 C595.045202,460.804761 586.194139,469.644544 576.416564,477.324541 C560.698651,489.684665 543.168709,497.704811 522.43697,496.6024 C499.183969,495.372944 481.543338,484.676684 469.027222,465.329156 C456.711987,446.288992 451.845747,424.822704 449.459773,402.717098 C446.651538,376.763298 447.471461,350.793105 450.205902,324.855697 C450.677357,320.396873 450.935633,315.880674 450.820844,311.39726 C450.615863,303.032866 447.233683,298.504373 439.030359,296.983947 C427.727728,294.897971 416.277511,293.582454 405.19216,291.967769 C399.034542,307.938393 393.602556,323.622144 387.018579,338.793622 C370.070782,377.837022 348.715902,414.392825 322.420989,447.928266 C316.90701,454.96075 310.523914,461.480961 303.747255,467.316775 C280.363067,487.512627 253.100646,489.864985 226.83853,473.480444 C217.495513,467.652827 209.415178,459.800706 201.601317,453.550975 C192.032822,464.333297 182.825093,476.586868 171.75204,486.820034 C142.513606,513.851657 108.753299,517.687557 73.4228407,500.983359 C32.3693238,481.578456 9.40739567,447.899579 2.20437698,403.389201 C-2.93243715,371.65696 0.703918899,340.949266 15.2698412,312.085755 C27.6998654,287.447472 45.4101903,267.710617 73.32445,261.251879 C94.511246,256.35045 116.03421,257.415978 136.96683,265.915612 C135.622157,253.330089 133.965914,240.974063 133.035302,228.56886 C129.083276,175.628517 130.022087,123.061108 146.445134,71.8624933 C150.520148,59.1622206 155.771752,46.9906136 164.180056,36.4213966 C181.177049,15.0616607 208.107401,10.9388874 230.495384,26.729191 C249.255209,39.9622277 259.479642,59.2236933 266.182508,80.4522874 C273.930775,104.971723 275.160659,130.417349 274.775295,155.879367 C273.451121,242.748577 257.052672,326.601524 223.76792,407.020192 C222.886503,409.155346 222.984894,412.528151 224.104088,414.470691 C227.687149,420.704029 231.491589,426.937367 236.095454,432.424835 C241.297862,438.629486 244.91372,438.690959 252.051145,434.87555 C277.604028,421.195811 296.40485,401.176181 310.962573,376.091196 C328.467917,345.932658 344.370313,315.220866 354.959611,281.919022 C356.119801,278.259343 355.959916,276.025833 352.655629,273.079238 C332.928295,255.469341 322.871946,233.392423 325.942556,206.823895 C328.763089,182.435601 350.413141,170.460706 373.067598,180.243072 C394.164203,189.353336 405.118367,206.905858 410.451962,228.38854 C413.522572,240.760958 413.211001,240.875707 426.104282,242.756774 C442.338746,245.129622 458.724896,246.727914 474.795376,249.912203 C501.08209,255.120995 512.91767,269.304811 512.872575,296.094641 C512.843877,312.868508 510.658784,329.625984 509.773268,346.395753 C508.678671,367.116172 507.928442,387.865279 512.831579,408.26604 C514.009835,413.196352 515.848003,417.945251 518.296362,422.384284 C523.859535,432.375657 533.415732,435.768954 543.771352,430.888016 C549.670694,428.109447 555.512641,424.28994 559.985318,419.601617 C569.279139,409.864332 577.736639,399.323802 586.255634,388.885727 C587.518314,387.340711 587.756092,384.533455 587.629004,382.349123 C585.144639,339.404251 588.166053,296.774939 594.934513,254.383322 C598.058417,234.834984 604.273429,231.523651 622.586397,238.92907 C641.739786,246.674638 649.500351,257.920055 648.905908,278.648671 C648.155679,304.438544 646.524033,330.212024 645.913191,356.001897 C645.49913,373.570812 645.191659,391.299557 650.172688,408.405378 C651.94372,414.478887 654.624867,420.622065 658.281721,425.752992 C666.804815,437.731984 681.149358,439.170447 691.742756,429.072521 C697.629799,423.462107 703.028988,417.032056 707.370478,410.171695 C730.422597,373.665071 753.097553,336.920751 775.784807,300.18053 C777.026989,298.176518 777.736222,295.467618 777.711624,293.090672 C777.252468,247.285267 779.175186,201.602808 785.136022,156.162142 C789.559504,122.413595 795.208769,88.833074 808.708792,57.3221359 C813.267561,46.6791516 819.2038,36.1959965 826.464213,27.2250713 C841.341706,8.84881345 862.262027,7.29969983 880.878366,22.0285738 C896.432295,34.3354208 903.393437,51.1133869 904.795504,70.4609144 C906.984697,100.590764 900.695892,129.589516 892.435173,158.223529 C876.352394,213.995717 852.71813,266.669678 826.07065,318.097791 C824.095464,322.036674 823.12246,326.401701 823.237818,330.806261 C824.193028,358.800957 826.402719,386.664511 836.672248,413.122388 C839.701861,420.921232 842.952853,428.810237 847.396833,435.842721 C851.926905,443.014543 857.350692,449.97326 863.643596,455.620558 C875.577568,466.329113 888.761921,466.706146 901.56501,457.018039 C907.628816,452.413693 912.993507,446.955623 917.492003,440.813818 C929.020113,425.019417 935.173631,406.962817 936.858571,387.52513 C937.07995,385.008844 935.329416,381.840948 933.574782,379.726285 C928.614251,373.722445 922.555024,368.554635 918.037251,362.263922 C903.073667,341.420558 891.857128,318.798581 887.802611,293.127555 C887.445291,290.811089 887.257577,288.471642 887.240964,286.127857 C887.056482,266.919667 899.068346,257.604495 917.233727,264.223062 C925.232071,267.136871 933.136123,272.177638 939.215848,278.156888 C961.144674,299.680552 974.566805,326.044171 980.195572,356.276475 C980.949901,360.288598 980.794116,364.206462 986.586868,364.894957 C995.396934,365.956386 999.279267,365.013804 1002.1162,359.059142 C1004.2029,354.682282 1005.2442,349.74397 1007.66707,345.588411 C1012.38573,337.527283 1017.83001,329.900562 1022.83154,322.007459 C1027.95605,313.929938 1033.02318,305.82373 1037.83612,297.561791 C1038.70934,296.065953 1038.34037,293.750479 1038.31577,291.832529 C1037.74183,246.219739 1039.81623,200.733993 1045.74427,155.481843 C1050.01197,122.901279 1055.45625,90.455955 1068.19375,59.9449738 C1073.03129,48.3717016 1079.3037,36.9336696 1087.10526,27.1758931 C1101.80237,8.79143887 1123.09166,7.38985988 1141.51121,22.0900465 C1157.00775,34.4706609 1163.97299,51.2322342 1165.34636,70.5756635 C1167.50276,100.701415 1161.20985,129.700167 1152.95323,158.330081 C1136.78846,214.286688 1113.16649,267.186049 1086.19925,318.659243 C1084.96526,321.0116 1083.4853,323.716402 1083.56319,326.216294 C1084.5799,355.760104 1086.56001,385.201459 1097.18211,413.241235 C1102.11394,426.273461 1107.90669,438.867181 1117.40959,449.317551 C1120.27736,452.518681 1123.48583,455.397601 1126.97809,457.903246 C1137.66578,465.468494 1149.0217,466.140597 1159.74629,458.546661 C1166.03509,454.100132 1172.03283,448.706921 1176.72688,442.608823 C1189.16921,426.441487 1195.6015,407.688196 1197.45452,387.422675 C1197.6554,385.234245 1196.95847,382.037661 1195.44571,380.754929 C1177.42382,365.538371 1166.32617,345.621196 1157.5407,324.380308 C1153.38779,314.37664 1151.27239,303.516452 1148.36577,293.00461 C1147.85331,291.164525 1147.86971,289.140022 1147.82052,287.185188 C1147.31626,266.272154 1160.51292,257.133204 1180.19515,264.74763 C1191.09602,268.964661 1199.59452,276.472535 1206.87953,285.279533 C1224.75794,306.917945 1237.10187,331.248864 1241.19738,359.284542 C1241.69754,362.694232 1243.1693,363.948276 1246.10052,364.61628 C1257.25557,367.173547 1261.60525,364.431862 1264.86035,353.313488 C1265.77456,350.19477 1267.56609,347.280961 1269.30433,344.498294 C1278.37267,329.900562 1287.64599,315.405284 1296.58725,300.729687 C1298.01801,298.393722 1298.83383,295.275004 1298.80924,292.52922 C1298.41977,250.05564 1300.03502,207.680415 1305.08164,165.489609 C1309.39443,129.55673 1314.81002,93.7426987 1328.7405,60.0679193 C1333.66824,48.1422033 1340.28911,36.4172984 1348.38995,26.4136308 C1362.52951,8.92667894 1383.8024,7.68492914 1401.53322,21.6474426 C1417.29213,34.0526461 1424.48695,50.9002813 1425.90131,70.4732089 C1428.09051,100.603059 1421.76891,129.60181 1413.52459,158.235823 C1397.45411,214.016208 1373.81164,266.677875 1347.16006,318.097791 C1345.16637,322.033101 1344.17768,326.400392 1344.28213,330.810359 C1345.31524,358.993571 1347.75041,387.000562 1357.87645,413.712526 C1362.68939,426.375916 1368.42065,438.555719 1377.47669,448.817572 C1380.17922,451.903814 1383.18573,454.710198 1386.45075,457.194261 C1397.5566,465.558654 1409.31018,466.275837 1420.69891,458.304868 C1426.84423,453.997677 1432.64518,448.657743 1437.19985,442.70718 C1449.60527,426.519352 1456.11546,407.807043 1457.95208,387.537424 C1458.15706,385.324405 1457.54622,382.086839 1456.04576,380.8205 C1437.7246,365.325266 1426.73354,344.973683 1417.5709,323.429529 C1412.12252,310.606311 1407.92042,297.373274 1408.37957,283.18536 C1408.73214,272.087478 1414.01244,264.378793 1422.79381,263.050982 C1427.31978,262.366585 1432.22292,262.632967 1436.71609,263.608335 C1446.36658,265.702507 1454.16404,271.468652 1460.88741,278.410976 C1482.41037,300.61084 1496.32855,326.888396 1501.33008,357.469047 C1502.24429,363.026185 1504.61387,364.845778 1509.44731,364.948233 C1515.30156,365.06708 1521.37308,366.026055 1526.95676,364.788404 C1532.17146,363.632716 1537.29188,360.649238 1541.58007,357.354298 C1543.53559,355.850264 1544.65478,351.358654 1544.04394,348.715325 C1523.99274,261.911686 1528.654,175.624419 1549.06596,89.6691036 C1553.9527,69.0798263 1561.31151,49.3101858 1572.60594,31.2289972 C1574.88765,27.58434 1577.39322,24.0846072 1580.10823,20.7499403 C1600.69238,-4.45799058 1630.19319,-6.9128029 1654.80726,14.5616822 C1671.3287,28.9831923 1680.17566,48.0356505 1686.39068,68.4610005 C1695.88948,99.6522803 1698.02947,131.76975 1697.55392,164.145405 C1697.04557,198.48409 1693.92576,232.412957 1681.83601,264.977128 C1669.96353,296.959357 1650.62566,324.318835 1629.52085,350.633276 C1625.97879,355.055216 1622.18255,359.300935 1618.88236,363.903196 C1617.86976,365.321168 1617.25072,368.09154 1617.94355,369.484923 C1625.36385,384.094949 1632.87434,398.684485 1640.84808,412.991246 C1643.37344,417.527936 1647.09589,421.49088 1650.72405,425.298093 C1656.47581,431.351111 1663.55994,434.277215 1672.16092,434.465731 C1695.40982,434.969808 1715.99808,428.347142 1734.05687,413.52401 C1737.9023,410.36431 1738.75912,407.561152 1737.89,402.680215 C1727.20641,343.281133 1743.04732,291.857118 1786.30642,249.764668 C1807.30464,229.327024 1833.23469,219.323356 1863.01837,220.356099 C1908.72085,221.946194 1942.58364,262.341996 1935.87258,307.647422 C1930.03063,347.002284 1907.80253,376.050214 1877.15383,399.528711 C1860.84967,412.007682 1842.52441,420.646654 1821.56309,426.474272 C1823.89987,428.269277 1825.52742,429.72823 1827.34764,430.855231 C1848.38685,443.797297 1871.61116,446.653731 1895.62668,445.178385 C1937.90189,442.563743 1969.23112,420.482727 1994.94389,388.689014 C1999.24438,383.373669 2003.09802,377.70588 2007.26732,372.279884 C2012.13766,365.931797 2016.34387,365.31707 2021.79225,371.144687 C2031.40174,381.406541 2037.51016,393.496184 2037.98571,407.848025 C2038.2071,415.110007 2035.84982,421.6712 2031.37714,427.453738 C1988.77807,482.439075 1932.66668,507.237188 1863.42423,502.35625 C1832.32047,500.16782 1803.63549,490.901825 1778.94352,471.23464 C1773.76571,467.111866 1769.13725,462.321089 1765.4394,458.919596 C1748.96716,467.894619 1733.38453,477.664691 1716.7565,485.13568 C1696.19285,494.377086 1674.30912,498.893285 1651.58497,494.618878 C1626.67982,489.922359 1607.30916,475.820508 1592.58745,456.02218 C1582.5147,442.465387 1574.71314,427.244731 1565.95227,412.724864 C1564.84537,410.909368 1564.13204,408.864375 1563.05794,406.524311 C1544.20792,412.081449 1525.28001,411.872442 1506.82356,408.143094 C1503.2487,420.69993 1500.22728,432.97809 1496.24656,444.924297 C1490.03565,463.599722 1480.32367,480.295725 1464.73694,492.750106 C1438.98728,513.335286 1411.00742,514.00329 1382.20355,500.188311 C1359.4425,489.274846 1343.04815,471.246934 1330.01958,450.075715 C1318.70055,431.666671 1309.86589,412.151118 1305.88107,390.721713 C1305.74578,389.988138 1305.31532,389.316036 1304.5036,387.361202 C1290.34764,410.929859 1269.72659,414.798545 1246.3547,407.819338 C1242.68144,420.712225 1239.54524,432.941207 1235.67931,444.94069 C1230.94835,459.5876 1223.58135,472.906699 1213.09454,484.299651 C1190.70656,508.634668 1160.51292,515.654858 1129.64694,503.770124 C1108.74711,495.717192 1092.59464,481.545671 1079.10282,464.066915 C1062.61828,442.698983 1054.01729,423.392437 1043.69447,384.537553 C1030.82988,410.536434 1010.13094,415.282131 986.107213,407.884909 C981.532046,422.82279 977.830096,437.150042 972.664584,450.932235 C969.417692,459.599895 964.727735,467.976583 959.39414,475.586911 C935.821369,509.146941 897.809765,518.519489 861.019845,500.25798 C840.677569,490.160054 825.304023,474.545972 812.689516,455.985296 C799.53796,436.588591 794.023981,423.224412 782.852538,383.541695 L782.852538,383.541695 Z M100.455684,459.149094 C118.420185,459.575306 134.375875,454.530441 145.358736,440.145814 C154.652557,427.961913 162.019561,414.306763 170.005605,401.159788 C170.784532,399.877057 170.231084,397.475521 169.722732,395.754283 C162.814089,372.376711 155.826944,349.022394 148.761415,325.691727 C148.056281,323.372154 147.084673,320.773906 145.416131,319.134632 C126.422628,300.508385 93.2485654,297.729816 73.2465573,319.220694 C66.5600898,326.400713 60.3778745,334.691339 56.30286,343.555712 C42.24119,374.132264 44.4385822,405.122732 56.9014034,435.678794 C61.4396741,446.805364 70.0939555,454.10423 81.9213368,456.792639 C87.9641653,458.173727 94.2693689,458.407323 100.455684,459.149094 L100.455684,459.149094 Z M195.123929,330.765279 C195.874158,330.728395 196.616188,330.687413 197.358218,330.658726 C201.753002,312.057068 206.590545,293.549668 210.45238,274.841457 C220.951486,223.995286 227.867532,172.7311 226.276883,120.64318 C225.78083,104.402076 224.255774,88.2265428 218.020264,72.9567085 C214.469999,64.2521653 210.222801,63.5677686 203.872502,70.5346817 C196.571092,78.5548281 192.852744,88.4273538 189.958418,98.6318324 C182.800495,123.880745 181.36973,149.850938 180.926972,175.862113 C180.279233,213.659666 183.095667,251.285095 187.941409,288.7384 C189.769836,302.819761 192.696959,316.761783 195.123929,330.765279 Z M1595.43258,303.213186 C1604.40253,293.414428 1610.71593,282.968157 1615.97574,271.898961 C1637.01495,227.675456 1644.32865,180.845505 1641.50402,132.298415 C1640.56521,116.122882 1638.31042,100.008822 1631.58706,84.9684863 C1629.43886,80.1490218 1627.06109,74.3582875 1621.10845,74.2713236 C1615.13122,74.1861638 1612.99532,80.2760655 1611.60965,84.894719 C1607.23946,99.4309783 1602.68479,114.012318 1599.86016,128.892824 C1592.67764,166.587922 1590.54994,204.836275 1589.29136,243.121512 C1588.61902,263.071472 1590.78772,282.730462 1595.43258,303.213186 L1595.43258,303.213186 Z M1796.38737,379.312368 L1798.65036,380.062336 C1801.55288,378.951728 1804.4923,377.927182 1807.34154,376.705923 C1833.71024,365.33756 1855.83995,348.903842 1868.51595,322.417278 C1872.01702,315.114313 1873.93564,306.422065 1874.11192,298.311758 C1874.41119,284.480387 1862.89538,276.390571 1849.41586,279.603547 C1839.17502,282.046065 1831.03319,287.963843 1824.04336,295.570073 C1810.58843,310.208787 1802.68438,327.695739 1799.35959,347.067855 C1797.52296,357.66576 1797.32208,368.550537 1796.38737,379.312368 Z M859.461992,67.1741707 C842.391207,81.021935 820.946135,192.234359 825.291724,212.126945 C841.3991,187.513251 863.471413,94.52955 859.461992,67.1741707 Z M1120.4638,68.0839675 C1105.26244,80.6735893 1081.82906,191.775362 1086.12135,213.651469 C1105.697,166.001882 1117.59408,118.143287 1120.4638,68.0839675 Z M1345.98347,211.778599 C1365.40334,165.715009 1377.79646,117.971164 1381.6009,68.1905203 L1378.59179,67.4733381 C1358.29461,113.303332 1349.02129,161.784851 1345.98347,211.778599 L1345.98347,211.778599 Z" id="Shape"></path>
                <path d="M581,162.664343 C581.016354,139.605722 597.020447,122.190848 620.081207,120.141557 C641.0266,118.280801 661.355352,134.98662 665.12054,157.168145 C667.072558,168.668765 665.851526,179.792316 660.689705,190.296981 C653.265505,205.412551 638.118992,213.134279 621.514592,210.486595 C597.555414,206.670815 580.9796,187.104186 581,162.664343 Z" id="Path"></path>
            </g>
        </g>
    </g>
</svg>