<?xml version="1.0" encoding="UTF-8"?>
<svg width="2502px" height="664px" viewBox="0 0 2502 664" version="1.1" xmlns="http://www.w3.org/2000/svg" xmlns:xlink="http://www.w3.org/1999/xlink">
    <title>linkedin</title>
    <g id="Page-1" stroke="none" stroke-width="1" fill="none" fill-rule="evenodd">
        <g id="linkedin" transform="translate(0.684626, 0.684626)" fill="#FFFFFF" fill-rule="nonzero">
            <path d="M2452.18352,0.800062529 C2479.04507,0.800062529 2500.81743,22.0513435 2500.81743,48.2354923 L2500.81743,615.558717 C2500.81743,641.75155 2479.04507,662.985462 2452.18352,662.985462 L1891.43456,662.985462 C1864.5817,662.985462 1842.80065,641.75155 1842.80065,615.567401 L1842.80065,48.2354923 C1842.80065,22.0513435 1864.5817,0.800062529 1891.43456,0.800062529 L2452.18352,0.800062529 Z M2042.26915,256.102027 L1942.88229,256.102027 L1942.88229,555.113716 L2042.26915,555.113716 L2042.26915,256.102027 Z M2286.23768,249.093533 C2233.69969,249.093533 2210.03725,277.869001 2196.80187,298.228687 L2196.66365,298.441063 L2196.66444,256.110712 L2097.28626,256.110712 C2098.56733,283.881542 2097.30337,549.727485 2097.27796,555.041627 L2097.27665,555.113063 L2196.65576,555.113716 L2196.65576,388.151773 C2196.65576,379.223977 2197.30711,370.278811 2199.92986,363.904295 C2207.11205,346.040019 2223.4652,327.550449 2250.92599,327.550449 C2286.88034,327.550449 2301.27077,354.967815 2301.27077,395.168951 L2301.27077,555.113716 L2400.64895,555.113716 L2400.64895,383.670505 C2400.64895,291.83058 2351.62423,249.093533 2286.23768,249.093533 Z M2196.66365,298.441063 L2196.66444,299.464367 L2196.00441,299.464367 C2196.1352,299.260278 2196.26704,299.055234 2196.39994,298.849274 L2196.66365,298.441063 Z M1993.25312,111.963281 C1959.23544,111.963281 1937.02017,134.282771 1937.02017,163.628124 C1937.02017,192.32213 1958.58409,215.284283 1991.94174,215.284283 L1992.59309,215.284283 C2027.24475,215.284283 2048.81736,192.32213 2048.81736,163.628124 C2048.16602,134.282771 2027.24475,111.963281 1993.25312,111.963281 Z" id="Combined-Shape"></path>
            <path d="M0.817431782,555.478471 L275.425321,555.478471 L275.425321,465.314679 L100.212982,465.314679 L100.212982,121.360047 L0.817431782,121.360047 L0.817431782,555.478471 Z M414.457506,555.478471 L414.457506,256.466781 L315.070641,256.466781 L315.070641,555.478471 L414.457506,555.478471 Z M364.772758,215.649037 C399.424418,215.649037 420.99703,192.686884 420.99703,163.975509 C420.354367,134.638841 399.424418,112.328036 365.43279,112.328036 C331.432477,112.328036 309.199833,134.647526 309.199833,163.975509 C309.199833,192.686884 330.772445,215.649037 364.121411,215.649037 L364.772758,215.649037 L364.772758,215.649037 Z M460.598927,555.478471 L559.985792,555.478471 L559.985792,388.490473 C559.985792,379.553992 560.628454,370.617512 563.259896,364.25168 C570.433398,346.396088 586.786549,327.897834 614.247338,327.897834 C650.219061,327.897834 664.609487,355.323884 664.609487,395.498967 L664.609487,555.469786 L763.978983,555.469786 L763.978983,384.026575 C763.978983,292.177965 714.945582,249.440918 649.550345,249.440918 C595.940146,249.440918 572.396123,279.411564 559.317076,299.829121 L559.985792,299.829121 L559.985792,256.466781 L460.598927,256.466781 C461.910305,284.526809 460.598927,555.478471 460.598927,555.478471 L460.598927,555.478471 Z M904.192278,121.360047 L804.805412,121.360047 L804.805412,555.478471 L904.192278,555.478471 L904.192278,458.531985 L929.030309,427.258646 L1006.84456,555.478471 L1129.10673,555.478471 L998.350998,369.861949 L1112.76227,243.58748 L993.122853,243.58748 C993.122853,243.58748 911.391833,356.557101 904.192278,369.966165 L904.192278,121.360047 Z" id="Shape"></path>
            <path d="M1394.88236,430.749865 C1396.19374,423.072656 1398.15646,408.343529 1398.15646,391.686416 C1398.15646,314.39324 1358.91932,235.918955 1255.61569,235.918955 C1145.1125,235.918955 1094.10769,323.312351 1094.10769,402.576937 C1094.10769,500.609001 1156.22882,561.826933 1264.7606,561.826933 C1307.92319,561.826933 1347.79431,555.469786 1380.50062,542.069408 L1367.42157,476.431001 C1340.60344,485.324058 1313.14265,489.779272 1279.15103,489.779272 C1232.7317,489.779272 1192.20055,470.716516 1188.92644,430.107203 L1394.88236,430.732496 L1394.88236,430.749865 L1394.88236,430.749865 Z M1188.27509,363.513487 C1190.88917,337.998055 1207.90235,300.350199 1250.39623,300.350199 C1295.50418,300.350199 1305.97784,340.54265 1305.97784,363.513487 L1188.28378,363.513487 L1188.27509,363.513487 Z M1643.47111,121.360047 L1643.47111,271.638824 L1642.15973,271.638824 C1627.7693,250.604658 1597.69444,236.570302 1557.832,236.570302 C1481.32045,236.570302 1413.97985,297.796919 1414.62251,402.39456 C1414.62251,499.34973 1475.44095,562.495649 1551.27511,562.495649 C1592.47498,562.495649 1631.69475,544.622688 1651.32201,510.179459 L1653.27605,510.179459 L1657.21019,555.478471 L1745.47204,555.478471 C1744.16935,534.426936 1742.84929,498.07309 1742.84929,462.353221 L1742.84929,121.351363 L1643.46242,121.351363 L1643.47111,121.360047 Z M1643.47111,417.071579 C1643.47111,424.71405 1642.81976,432.382575 1641.4997,438.739722 C1635.63757,466.183141 1612.09355,485.298004 1583.32138,485.298004 C1542.13888,485.298004 1515.32076,452.1401 1515.32076,399.84128 C1515.32076,350.738402 1538.22212,311.188613 1583.98141,311.188613 C1614.70762,311.188613 1636.28024,332.231463 1642.16841,358.372188 C1643.47111,364.130096 1643.47111,370.513296 1643.47111,376.24515 L1643.47111,417.062894 L1643.47111,417.071579 Z" id="Shape"></path>
        </g>
    </g>
</svg>