<svg width="134" height="46" viewBox="0 0 134 46" fill="none" xmlns="http://www.w3.org/2000/svg">
<path d="M34.2022 18.304C31.2019 24.701 23.5957 27.449 17.2132 24.4419C10.8308 21.4347 8.08902 13.8111 11.0893 7.41406L34.2022 18.304Z" fill="url(#paint0_radial)"/>
<g style="mix-blend-mode:multiply" opacity="0.25">
<path d="M34.2022 18.698C30.4888 23.801 23.3828 24.903 18.3235 21.1604C13.2642 17.4178 12.1641 10.2453 15.8653 5.1333L34.2022 18.698Z" fill="url(#paint1_radial)"/>
</g>
<path fill-rule="evenodd" clip-rule="evenodd" d="M34.2022 5.89355C39.6608 5.89355 44.0859 10.337 44.0859 15.8183C43.0488 15.8182 42.0546 16.2342 41.3245 16.9738C40.5943 17.7134 40.1887 18.7152 40.1978 19.7566L40.242 24.8771C40.242 29.1178 38.5644 33.1848 35.5781 36.1834C32.5919 39.182 28.5417 40.8666 24.3185 40.8666V15.8183C24.3185 10.337 28.7436 5.89355 34.2022 5.89355ZM37.9675 12.392C37.9675 13.0662 38.5118 13.6128 39.1833 13.6128C39.5058 13.6129 39.8151 13.4843 40.0431 13.2553C40.2711 13.0263 40.3992 12.7157 40.3992 12.3919C40.3991 11.7177 39.8548 11.1711 39.1833 11.1711C38.5119 11.1711 37.9675 11.7177 37.9675 12.392Z" fill="url(#paint2_linear)"/>
<path d="M34.2022 18.0581C34.2022 26.456 27.5646 33.2638 19.3767 33.2638C11.1888 33.2638 4.55115 26.456 4.55115 18.0581H34.2022Z" fill="url(#paint3_radial)"/>
<g style="mix-blend-mode:multiply" opacity="0.25">
<path d="M33.8284 18.0581C36.4368 22.69 36.346 28.3455 33.5903 32.8933C30.8347 37.4412 25.8329 40.1902 20.4698 40.1044C15.1068 40.0186 10.1976 37.1111 7.59229 32.4774L33.8284 18.0581Z" fill="url(#paint4_radial)"/>
</g>
<g style="mix-blend-mode:multiply" opacity="0.25">
<path d="M33.6681 18.8184C35.0711 23.9837 33.6651 29.5199 29.9798 33.3416C26.2945 37.1632 20.8898 38.6897 15.8015 37.346C10.7132 36.0023 6.71444 31.9926 5.31146 26.8273L33.6681 18.8184Z" fill="url(#paint5_radial)"/>
</g>
<path d="M24.3185 40.8667C33.2594 40.1191 36.3183 33.0188 36.3183 26.1923V22.878C36.3183 17.1612 39.7304 15.7773 44.0859 15.7773C43.0488 15.7773 42.0546 16.194 41.3245 16.9347C40.5943 17.6755 40.1887 18.679 40.1978 19.7221L40.242 24.851C40.242 29.0986 38.5644 33.1723 35.5781 36.1758C32.5919 39.1794 28.5417 40.8667 24.3185 40.8667Z" fill="url(#paint6_linear)"/>
<path fill-rule="evenodd" clip-rule="evenodd" d="M50.0267 10.426V26.506H54.5015V21.5688H57.1635C57.959 21.5688 58.6895 21.414 59.355 21.1045C60.0205 20.795 60.5866 20.3798 61.0532 19.8589C61.5198 19.338 61.8831 18.7416 62.1432 18.0697C62.4033 17.3978 62.5333 16.707 62.5333 15.9974C62.5333 15.318 62.3957 14.6423 62.1203 13.9704C61.8449 13.2985 61.4663 12.7021 60.9844 12.1812C60.5024 11.6603 59.9249 11.2376 59.2518 10.913C58.5786 10.5883 57.8443 10.426 57.0488 10.426H50.0267ZM56.8652 17.7187H54.5015V14.2762H56.7504C57.0258 14.2762 57.3012 14.397 57.5765 14.6386C57.8519 14.8801 57.9896 15.3331 57.9896 15.9974C57.9896 16.6467 57.871 17.0958 57.6339 17.345C57.3968 17.5941 57.1405 17.7187 56.8652 17.7187Z" fill="#199FFF"/>
<path d="M75.04 22.6559V26.506H63.4267V10.426H74.8335V14.2762H67.9022V16.541H73.8236V20.1193H67.9022V22.6559H75.04Z" fill="#199FFF"/>
<path d="M82.1301 18.6019V26.506H77.72V10.426H81.1576L87.6032 18.6019V10.426H92.0133V26.506H88.5078L82.1301 18.6019Z" fill="#199FFF"/>
<path d="M105.396 25.0767C104.266 26.0296 102.966 26.506 101.494 26.506C100.468 26.506 99.4866 26.3237 98.55 25.9589C97.6134 25.5941 96.7957 25.0618 96.0969 24.362C95.3982 23.6623 94.8407 22.8062 94.4244 21.7937C94.0081 20.7812 93.8 19.6274 93.8 18.332C93.8 17.2154 94.0081 16.1769 94.4244 15.2165C94.8407 14.2562 95.4131 13.4224 96.1415 12.7152C96.87 12.008 97.7286 11.4496 98.7173 11.0402C99.7059 10.6307 100.773 10.426 101.917 10.426C102.631 10.426 103.315 10.5042 103.969 10.6605C104.623 10.8169 105.229 11.0476 105.787 11.3529C106.344 11.6581 106.846 12.0229 107.292 12.4472C107.738 12.8715 108.102 13.3517 108.385 13.8877L105.151 16.3667C104.839 15.7414 104.37 15.2389 103.746 14.8592C103.122 14.4795 102.46 14.2897 101.761 14.2897C101.241 14.2897 100.765 14.3939 100.334 14.6024C99.9029 14.8108 99.5312 15.1011 99.219 15.4734C98.9068 15.8456 98.6615 16.2885 98.4831 16.8022C98.3047 17.3159 98.2155 17.8779 98.2155 18.4884C98.2155 19.1137 98.3047 19.6795 98.4831 20.1857C98.6615 20.6919 98.9105 21.1274 99.2302 21.4922C99.5498 21.857 99.9326 22.1399 100.379 22.3409C100.825 22.5419 101.323 22.6424 101.873 22.6424C103.136 22.6424 104.251 22.1213 105.218 21.079H102.475V17.9524H108.987V26.3944H105.396V25.0767Z" fill="#199FFF"/>
<path d="M113.699 10.426L116.535 17.3789L119.439 10.426H124.173L118.702 21.1838V26.506H114.369V21.1385L108.987 10.426H113.699Z" fill="#199FFF"/>
<path d="M125.067 26.506V10.426H129.533V26.506H125.067Z" fill="#199FFF"/>
<path fill-rule="evenodd" clip-rule="evenodd" d="M68.7867 29.4714V38.42H77.2322V37.4873H69.9374V29.4714H68.7867Z" fill="#C5C5C5"/>
<path fill-rule="evenodd" clip-rule="evenodd" d="M83.0907 29.4714L77.8989 38.42H79.2157L80.4028 36.3695H87.5231L88.706 38.42H89.9004L84.7233 29.4714H83.0907ZM83.9702 30.2098L86.9844 35.4368H80.9424L83.9702 30.2098Z" fill="#C5C5C5"/>
<path fill-rule="evenodd" clip-rule="evenodd" d="M98.1105 37.5208C98.5586 37.5208 98.9463 37.5146 99.2747 37.5001C99.602 37.4877 99.8806 37.4578 100.109 37.4134C100.337 37.3689 100.52 37.3039 100.66 37.2202C100.801 37.1355 100.91 37.0249 100.988 36.8865C101.066 36.7481 101.119 36.5787 101.146 36.3803C101.175 36.181 101.189 35.9413 101.189 35.6603C101.189 35.4413 101.175 35.2512 101.146 35.089C101.119 34.9269 101.066 34.7905 100.988 34.68C100.91 34.5694 100.801 34.4795 100.66 34.4103C100.52 34.3422 100.337 34.2884 100.109 34.2492C99.8806 34.211 99.602 34.1851 99.2747 34.1707C98.9463 34.1572 98.5586 34.15 98.1105 34.15H92.7387V37.5208H98.1105ZM98.1105 33.2141C98.5025 33.2141 98.8404 33.2058 99.1243 33.1903C99.4092 33.1748 99.6508 33.1459 99.851 33.1025C100.05 33.0601 100.212 33.0002 100.337 32.9238C100.461 32.8484 100.559 32.7492 100.627 32.6283C100.697 32.5075 100.744 32.3618 100.769 32.1924C100.793 32.023 100.804 31.8205 100.804 31.587C100.804 31.337 100.777 31.1335 100.721 30.9775C100.665 30.8226 100.564 30.7017 100.421 30.618C100.277 30.5343 100.081 30.4775 99.8361 30.4476C99.5893 30.4186 99.2747 30.4042 98.8902 30.4042H92.7387V33.2141H98.1105ZM91.5872 38.4578V29.4683H99.2747C99.8509 29.4683 100.315 29.5137 100.667 29.6057C101.018 29.6976 101.289 29.8319 101.48 30.0096C101.67 30.1862 101.797 30.4083 101.861 30.6738C101.925 30.9393 101.957 31.243 101.957 31.587C101.957 31.836 101.935 32.0571 101.891 32.2482C101.847 32.4393 101.789 32.6046 101.716 32.7451C101.645 32.8866 101.563 33.0043 101.471 33.0994C101.378 33.1955 101.285 33.275 101.189 33.336C100.964 33.4847 100.709 33.5694 100.421 33.588C100.781 33.6076 101.101 33.6934 101.381 33.8452C101.5 33.9124 101.619 33.995 101.732 34.0952C101.846 34.1934 101.948 34.3163 102.038 34.463C102.128 34.6097 102.2 34.7812 102.257 34.9785C102.314 35.1748 102.341 35.402 102.341 35.6603C102.341 35.9723 102.325 36.2574 102.296 36.5167C102.266 36.777 102.205 37.0105 102.113 37.2171C102.02 37.4237 101.889 37.6055 101.716 37.7605C101.545 37.9175 101.316 38.0476 101.03 38.1499C100.744 38.2542 100.393 38.3307 99.9802 38.3813C99.566 38.4319 99.0702 38.4578 98.4939 38.4578H91.5872Z" fill="#C5C5C5"/>
<mask id="mask0" mask-type="alpha" maskUnits="userSpaceOnUse" x="103" y="29" width="12" height="10">
<path fill-rule="evenodd" clip-rule="evenodd" d="M103.877 29.281H114.248V38.6681H103.877V29.281Z" fill="white"/>
</mask>
<g mask="url(#mask0)">
<path fill-rule="evenodd" clip-rule="evenodd" d="M110.071 33.4008C110.704 33.4008 111.245 33.4256 111.697 33.4772C112.15 33.5289 112.53 33.6032 112.84 33.7034C113.151 33.8047 113.399 33.9276 113.582 34.0764C113.765 34.2262 113.908 34.3956 114.008 34.5846C114.108 34.7757 114.173 34.9875 114.203 35.223C114.233 35.4575 114.248 35.7127 114.248 35.9875C114.248 36.2592 114.223 36.5154 114.173 36.753C114.123 36.9926 114.034 37.2106 113.906 37.409C113.778 37.6073 113.604 37.784 113.384 37.9399C113.163 38.0959 112.884 38.2271 112.544 38.3366C112.204 38.4451 111.795 38.5277 111.317 38.5835C110.838 38.6393 110.279 38.6682 109.639 38.6682H108.103C107.527 38.6682 107.023 38.6465 106.59 38.6042C106.158 38.5608 105.786 38.4957 105.474 38.4079C105.161 38.3201 104.904 38.2085 104.701 38.0742C104.495 37.9399 104.333 37.7819 104.211 37.6001C104.089 37.4193 104.004 37.2116 103.956 36.9802C103.908 36.7478 103.884 36.4906 103.884 36.2106H105.035C105.035 36.567 105.088 36.846 105.192 37.0474C105.296 37.2509 105.467 37.4017 105.708 37.503C105.947 37.6042 106.263 37.6672 106.653 37.693C107.044 37.7199 107.527 37.7313 108.103 37.7313H109.639C110.312 37.7313 110.869 37.7003 111.314 37.6373C111.758 37.5753 112.112 37.474 112.375 37.3377C112.64 37.1993 112.827 37.0195 112.934 36.7974C113.042 36.5753 113.096 36.3067 113.096 35.9875C113.096 35.6683 113.059 35.4038 112.984 35.191C112.911 34.9793 112.765 34.8098 112.547 34.6848C112.329 34.5598 112.021 34.47 111.625 34.4173C111.229 34.3646 110.711 34.3367 110.071 34.3367H108.487C107.783 34.3367 107.179 34.3119 106.677 34.2613C106.175 34.2107 105.755 34.1373 105.415 34.0413C105.073 33.9462 104.801 33.8274 104.598 33.6849C104.394 33.5423 104.239 33.3791 104.133 33.1962C104.027 33.0123 103.958 32.8088 103.925 32.5847C103.893 32.3605 103.877 32.1177 103.877 31.8564C103.877 31.5826 103.903 31.3295 103.953 31.0961C104.002 30.8605 104.096 30.6498 104.231 30.4597C104.368 30.2707 104.553 30.1023 104.791 29.9535C105.026 29.8058 105.329 29.6808 105.698 29.5827C106.069 29.4824 106.515 29.4081 107.034 29.3564C107.554 29.3058 108.167 29.281 108.871 29.281H110.023C110.599 29.281 111.104 29.3006 111.535 29.342C111.967 29.3833 112.34 29.4473 112.652 29.5351C112.963 29.6229 113.223 29.7324 113.429 29.8626C113.635 29.9938 113.799 30.1508 113.921 30.3306C114.043 30.5124 114.127 30.718 114.176 30.9483C114.224 31.1797 114.248 31.4349 114.248 31.7148H113.096C113.096 31.3636 113.044 31.0899 112.94 30.8894C112.835 30.6911 112.663 30.5413 112.424 30.4432C112.184 30.343 111.867 30.28 111.475 30.2552C111.083 30.2304 110.599 30.2169 110.023 30.2169H108.871C108.103 30.2169 107.471 30.2428 106.974 30.2965C106.478 30.3492 106.086 30.438 105.798 30.563C105.51 30.687 105.31 30.8554 105.197 31.0651C105.086 31.2758 105.03 31.5392 105.03 31.8564C105.03 32.0506 105.044 32.2241 105.071 32.377C105.1 32.5289 105.156 32.6621 105.243 32.7768C105.329 32.8925 105.451 32.9896 105.606 33.0681C105.762 33.1456 105.969 33.2097 106.224 33.2603C106.48 33.3109 106.793 33.347 107.163 33.3687C107.533 33.3904 107.975 33.4008 108.487 33.4008H110.071Z" fill="#C5C5C5"/>
</g>
<defs>
<radialGradient id="paint0_radial" cx="0" cy="0" r="1" gradientUnits="userSpaceOnUse" gradientTransform="translate(10.4873 7.35733) scale(21.0116 15.7587)">
<stop stop-color="#00C8C9"/>
<stop offset="0.2484" stop-color="#199FFF"/>
<stop offset="0.3862" stop-color="#199FFF"/>
<stop offset="0.4749" stop-color="#199FFF"/>
<stop offset="1" stop-color="#006BB8"/>
</radialGradient>
<radialGradient id="paint1_radial" cx="0" cy="0" r="1" gradientUnits="userSpaceOnUse" gradientTransform="translate(13.3862 4.59665) rotate(11.1553) scale(24.442 21.9423)">
<stop offset="0.1818" stop-color="#199FFF"/>
<stop offset="0.3744" stop-color="#077ACC"/>
<stop offset="0.6096" stop-color="#077ACC"/>
<stop offset="0.8248" stop-color="#077ACC"/>
<stop offset="1" stop-color="#006BB8"/>
</radialGradient>
<linearGradient id="paint2_linear" x1="24.623" y1="1.97058" x2="9.22502" y2="35.7949" gradientUnits="userSpaceOnUse">
<stop stop-color="#199FFF"/>
<stop offset="0.1483" stop-color="#199FFF"/>
<stop offset="0.4954" stop-color="#006BB8"/>
<stop offset="0.806614" stop-color="#077ACC"/>
<stop offset="1" stop-color="#077ACC"/>
</linearGradient>
<radialGradient id="paint3_radial" cx="0" cy="0" r="1" gradientUnits="userSpaceOnUse" gradientTransform="translate(5.99367 16.4898) scale(37.6157 19.2901)">
<stop stop-color="#00C8C9"/>
<stop offset="0.2748" stop-color="#4BD6FF"/>
<stop offset="0.5162" stop-color="#199FFF"/>
<stop offset="0.7398" stop-color="#199FFF"/>
<stop offset="1" stop-color="#006BB8"/>
</radialGradient>
<radialGradient id="paint4_radial" cx="0" cy="0" r="1" gradientUnits="userSpaceOnUse" gradientTransform="translate(7.27099 31.4829) rotate(-28.7911) scale(35.3198 31.7145)">
<stop stop-color="#199FFF"/>
<stop offset="0.2353" stop-color="#077ACC"/>
<stop offset="0.5229" stop-color="#077ACC"/>
<stop offset="0.791543" stop-color="#077ACC"/>
<stop offset="1" stop-color="#006BB8"/>
</radialGradient>
<radialGradient id="paint5_radial" cx="0" cy="0" r="1" gradientUnits="userSpaceOnUse" gradientTransform="translate(0.684174 27.085) rotate(-15.7706) scale(34.7656 25.086)">
<stop offset="0.1818" stop-color="#199FFF"/>
<stop offset="0.3744" stop-color="#077ACC"/>
<stop offset="0.6096" stop-color="#077ACC"/>
<stop offset="0.8248" stop-color="#077ACC"/>
<stop offset="1" stop-color="#006BB8"/>
</radialGradient>
<linearGradient id="paint6_linear" x1="26.6132" y1="8.0554" x2="13.8215" y2="36.0631" gradientUnits="userSpaceOnUse">
<stop stop-color="#199FFF"/>
<stop offset="0.1483" stop-color="#199FFF"/>
<stop offset="0.4954" stop-color="#006BB8"/>
<stop offset="0.7916" stop-color="#077ACC"/>
<stop offset="1" stop-color="#006BB8"/>
</linearGradient>
</defs>
</svg>
